<svg width="18" height="19" viewBox="0 0 18 19" fill="none" xmlns="http://www.w3.org/2000/svg">
<path d="M12.77 2.87C12.9996 3.00037 13.2715 3.03464 13.5263 2.96532C13.7811 2.896 13.9981 2.72873 14.13 2.5C14.2392 2.30736 14.4092 2.15639 14.6134 2.07078C14.8176 1.98517 15.0444 1.96975 15.2583 2.02694C15.4723 2.08414 15.6611 2.21071 15.7954 2.38681C15.9296 2.56291 16.0016 2.77858 16 3C16 3.26522 15.8947 3.51957 15.7071 3.70711C15.5196 3.89464 15.2652 4 15 4C14.7348 4 14.4804 4.10536 14.2929 4.29289C14.1054 4.48043 14 4.73478 14 5C14 5.26522 14.1054 5.51957 14.2929 5.70711C14.4804 5.89464 14.7348 6 15 6C15.5265 5.99966 16.0437 5.86075 16.4995 5.59723C16.9554 5.33371 17.3338 4.95486 17.5969 4.49875C17.8599 4.04264 17.9983 3.52533 17.9981 2.9988C17.9979 2.47227 17.8591 1.95507 17.5957 1.49917C17.3323 1.04326 16.9535 0.664718 16.4975 0.401563C16.0414 0.138409 15.5241 -8.42941e-05 14.9976 3.84915e-08C14.4711 8.43711e-05 13.9539 0.138743 13.4979 0.402044C13.0419 0.665344 12.6633 1.04401 12.4 1.5C12.3339 1.61413 12.291 1.74022 12.2738 1.871C12.2566 2.00178 12.2655 2.13466 12.2999 2.262C12.3343 2.38934 12.3935 2.50862 12.4742 2.61297C12.5549 2.71732 12.6554 2.80467 12.77 2.87ZM17.07 10C16.8075 9.96593 16.5422 10.0373 16.3323 10.1985C16.1223 10.3597 15.9849 10.5976 15.95 10.86C15.7402 12.5552 14.9177 14.1151 13.6376 15.246C12.3575 16.3769 10.7081 17.0007 9.00002 17H3.41002L4.06002 16.35C4.24627 16.1626 4.35081 15.9092 4.35081 15.645C4.35081 15.3808 4.24627 15.1274 4.06002 14.94C3.08497 13.9611 2.4214 12.7156 2.15291 11.3603C1.88442 10.005 2.02301 8.60052 2.55122 7.32383C3.07943 6.04714 3.97364 4.95532 5.12121 4.18589C6.26878 3.41646 7.61838 3.00384 9.00002 3C9.26523 3 9.51959 2.89464 9.70712 2.70711C9.89466 2.51957 10 2.26522 10 2C10 1.73478 9.89466 1.48043 9.70712 1.29289C9.51959 1.10536 9.26523 0.999999 9.00002 0.999999C7.30925 1.00705 5.65466 1.49024 4.22581 2.39419C2.79697 3.29815 1.65165 4.58632 0.921082 6.11112C0.190513 7.63592 -0.0957586 9.33568 0.095063 11.0157C0.285885 12.6956 0.946081 14.2879 2.00002 15.61L0.290017 17.29C0.15126 17.4306 0.0572635 17.6092 0.0198894 17.8032C-0.0174847 17.9972 0.00343795 18.1979 0.0800174 18.38C0.155037 18.5626 0.282435 18.7189 0.446156 18.8293C0.609876 18.9396 0.802592 18.999 1.00002 19H9.00002C11.1915 19.0003 13.3077 18.201 14.9518 16.7521C16.5959 15.3031 17.6549 13.3041 17.93 11.13C17.9483 10.9993 17.9405 10.8662 17.9071 10.7385C17.8737 10.6107 17.8154 10.4909 17.7354 10.3858C17.6555 10.2808 17.5555 10.1926 17.4413 10.1264C17.3271 10.0602 17.2009 10.0172 17.07 10ZM15.38 7.07C15.198 6.98945 14.996 6.96508 14.8 7L14.62 7.06L14.44 7.15L14.29 7.28C14.2001 7.37215 14.1288 7.48081 14.08 7.6C14.0209 7.72473 13.9934 7.86212 14 8C13.9971 8.13337 14.0209 8.26597 14.07 8.39C14.1217 8.51002 14.1965 8.61873 14.29 8.71C14.3835 8.80268 14.4943 8.87601 14.6161 8.92577C14.7379 8.97553 14.8684 9.00076 15 9C15.2652 9 15.5196 8.89464 15.7071 8.70711C15.8947 8.51957 16 8.26522 16 8C16.0034 7.86882 15.976 7.73868 15.92 7.62C15.8126 7.37971 15.6203 7.18745 15.38 7.08V7.07Z" fill="black"/>
</svg>
