<svg width="88" height="55" viewBox="0 0 88 55" fill="none" xmlns="http://www.w3.org/2000/svg">
<path d="M64.997 9.94008L63.4786 14.6243H42.2209L40.7025 9.94008H64.997ZM49.8129 0L56.2647 4.55522V24.5333C56.2647 25.1071 56.3314 25.5542 56.4649 25.8745C56.5983 26.1814 56.8252 26.4016 57.1455 26.5351C57.4791 26.6552 57.9195 26.7152 58.4667 26.7152C58.8537 26.7152 59.174 26.7086 59.4275 26.6952C59.6811 26.6685 63.2517 26.6122 63.4786 26.5721L60.1482 31.4195C59.5743 31.6063 58.9738 31.7464 58.3466 31.8399C57.7193 31.9466 57.0521 32 56.3448 32C54.9035 32 53.669 31.7731 52.6414 31.3194C51.6272 30.8656 50.8531 30.1517 50.3193 29.1775C49.7855 28.2032 49.5186 26.9354 49.5186 25.374L49.8129 0Z" fill="#101010"/>
<path d="M64.997 9.94008L63.4786 14.6243H42.2209L40.7025 9.94008H64.997ZM49.8129 0L56.2647 4.55522V24.5333C56.2647 25.1071 56.3314 25.5542 56.4649 25.8745C56.5983 26.1814 56.8252 26.4016 57.1455 26.5351C57.4791 26.6552 57.9195 26.7152 58.4667 26.7152C58.8537 26.7152 59.174 26.7086 59.4275 26.6952C59.6811 26.6685 63.2517 26.6122 63.4786 26.5721L60.1482 31.4195C59.5743 31.6063 58.9738 31.7464 58.3466 31.8399C57.7193 31.9466 57.0521 32 56.3448 32C54.9035 32 53.669 31.7731 52.6414 31.3194C51.6272 30.8656 50.8531 30.1517 50.3193 29.1775C49.7855 28.2032 49.5186 26.9354 49.5186 25.374L49.8129 0Z" fill="black" fill-opacity="0.2"/>
<path d="M40.5228 0V31.8866H33.078V0H40.5228ZM49.8129 0V5.93493H24V0H49.8129Z" fill="#101010"/>
<path d="M40.5228 0V31.8866H33.078V0H40.5228ZM49.8129 0V5.93493H24V0H49.8129Z" fill="black" fill-opacity="0.2"/>
<path d="M4.57617 41.4688V50H2.82422V41.4688H4.57617ZM7.20117 41.4688V42.8457H0.240234V41.4688H7.20117ZM9.615 45.043V50H7.9275V43.6602H9.51539L9.615 45.043ZM11.5252 43.6191L11.4959 45.1836C11.4138 45.1719 11.3142 45.1621 11.197 45.1543C11.0837 45.1426 10.9802 45.1367 10.8865 45.1367C10.6482 45.1367 10.4412 45.168 10.2654 45.2305C10.0935 45.2891 9.94898 45.377 9.8318 45.4941C9.71852 45.6113 9.63258 45.7539 9.57398 45.9219C9.5193 46.0898 9.48805 46.2812 9.48023 46.4961L9.14039 46.3906C9.14039 45.9805 9.18141 45.6035 9.26344 45.2598C9.34547 44.9121 9.46461 44.6094 9.62086 44.3516C9.78102 44.0938 9.97633 43.8945 10.2068 43.7539C10.4373 43.6133 10.7009 43.543 10.9978 43.543C11.0916 43.543 11.1873 43.5508 11.2849 43.5664C11.3826 43.5781 11.4627 43.5957 11.5252 43.6191ZM15.7847 48.5703V45.7461C15.7847 45.543 15.7515 45.3691 15.6851 45.2246C15.6187 45.0762 15.5152 44.9609 15.3745 44.8789C15.2378 44.7969 15.0601 44.7559 14.8413 44.7559C14.6538 44.7559 14.4917 44.7891 14.355 44.8555C14.2183 44.918 14.1128 45.0098 14.0386 45.1309C13.9644 45.248 13.9273 45.3867 13.9273 45.5469H12.2398C12.2398 45.2773 12.3023 45.0215 12.4273 44.7793C12.5523 44.5371 12.7339 44.3242 12.9722 44.1406C13.2105 43.9531 13.4937 43.8066 13.8218 43.7012C14.1538 43.5957 14.5249 43.543 14.9351 43.543C15.4273 43.543 15.8648 43.625 16.2476 43.7891C16.6304 43.9531 16.9312 44.1992 17.1499 44.5273C17.3726 44.8555 17.4839 45.2656 17.4839 45.7578V48.4707C17.4839 48.8184 17.5054 49.1035 17.5484 49.3262C17.5913 49.5449 17.6538 49.7363 17.7359 49.9004V50H16.0308C15.9487 49.8281 15.8862 49.6133 15.8433 49.3555C15.8042 49.0938 15.7847 48.832 15.7847 48.5703ZM16.0073 46.1387L16.0191 47.0938H15.0757C14.853 47.0938 14.6597 47.1191 14.4956 47.1699C14.3316 47.2207 14.1968 47.293 14.0913 47.3867C13.9859 47.4766 13.9077 47.582 13.857 47.7031C13.8101 47.8242 13.7866 47.957 13.7866 48.1016C13.7866 48.2461 13.8198 48.377 13.8862 48.4941C13.9527 48.6074 14.0484 48.6973 14.1734 48.7637C14.2984 48.8262 14.4448 48.8574 14.6128 48.8574C14.8667 48.8574 15.0874 48.8066 15.2749 48.7051C15.4624 48.6035 15.607 48.4785 15.7085 48.3301C15.814 48.1816 15.8687 48.041 15.8726 47.9082L16.3179 48.623C16.2554 48.7832 16.1695 48.9492 16.0601 49.1211C15.9546 49.293 15.8198 49.4551 15.6558 49.6074C15.4917 49.7559 15.2945 49.8789 15.064 49.9766C14.8335 50.0703 14.5601 50.1172 14.2437 50.1172C13.8413 50.1172 13.4761 50.0371 13.148 49.877C12.8237 49.7129 12.5659 49.4883 12.3745 49.2031C12.187 48.9141 12.0933 48.5859 12.0933 48.2188C12.0933 47.8867 12.1558 47.5918 12.2808 47.334C12.4058 47.0762 12.5894 46.8594 12.8316 46.6836C13.0777 46.5039 13.3843 46.3691 13.7515 46.2793C14.1187 46.1855 14.5445 46.1387 15.0288 46.1387H16.0073ZM21.0872 48.7695L22.4934 43.6602H24.2571L22.1184 50H21.052L21.0872 48.7695ZM20.1204 43.6602L21.5325 48.7754L21.5618 50H20.4895L18.3509 43.6602H20.1204ZM28.0889 50.1172C27.5967 50.1172 27.1553 50.0391 26.7647 49.8828C26.3741 49.7227 26.042 49.502 25.7686 49.2207C25.4991 48.9395 25.292 48.6133 25.1475 48.2422C25.003 47.8672 24.9307 47.4688 24.9307 47.0469V46.8125C24.9307 46.332 24.9991 45.8926 25.1358 45.4941C25.2725 45.0957 25.4678 44.75 25.7217 44.457C25.9795 44.1641 26.292 43.9395 26.6592 43.7832C27.0264 43.623 27.4405 43.543 27.9014 43.543C28.3506 43.543 28.7491 43.6172 29.0967 43.7656C29.4444 43.9141 29.7354 44.125 29.9698 44.3984C30.208 44.6719 30.3877 45 30.5088 45.3828C30.6299 45.7617 30.6905 46.1836 30.6905 46.6484V47.3516H25.6514V46.2266H29.0323V46.0977C29.0323 45.8633 28.9893 45.6543 28.9034 45.4707C28.8213 45.2832 28.6963 45.1348 28.5284 45.0254C28.3604 44.916 28.1455 44.8613 27.8838 44.8613C27.6612 44.8613 27.4698 44.9102 27.3096 45.0078C27.1495 45.1055 27.0186 45.2422 26.917 45.418C26.8194 45.5938 26.7452 45.8008 26.6944 46.0391C26.6475 46.2734 26.6241 46.5312 26.6241 46.8125V47.0469C26.6241 47.3008 26.6592 47.5352 26.7295 47.75C26.8037 47.9648 26.9073 48.1504 27.0401 48.3066C27.1768 48.4629 27.3409 48.584 27.5323 48.6699C27.7276 48.7559 27.9483 48.7988 28.1944 48.7988C28.4991 48.7988 28.7823 48.7402 29.044 48.623C29.3096 48.502 29.5381 48.3203 29.7295 48.0781L30.5498 48.9688C30.417 49.1602 30.2354 49.3438 30.0049 49.5195C29.7784 49.6953 29.5049 49.8398 29.1846 49.9531C28.8643 50.0625 28.4991 50.1172 28.0889 50.1172ZM33.6727 41V50H31.9793V41H33.6727ZM42.139 41.4688V50H40.387V41.4688H42.139ZM44.764 41.4688V42.8457H37.803V41.4688H44.764ZM44.6114 46.8945V46.7715C44.6114 46.3066 44.6778 45.8789 44.8106 45.4883C44.9434 45.0938 45.1368 44.752 45.3907 44.4629C45.6446 44.1738 45.9571 43.9492 46.3282 43.7891C46.6993 43.625 47.1251 43.543 47.6055 43.543C48.086 43.543 48.5137 43.625 48.8887 43.7891C49.2637 43.9492 49.5782 44.1738 49.8321 44.4629C50.0899 44.752 50.2852 45.0938 50.418 45.4883C50.5509 45.8789 50.6173 46.3066 50.6173 46.7715V46.8945C50.6173 47.3555 50.5509 47.7832 50.418 48.1777C50.2852 48.5684 50.0899 48.9102 49.8321 49.2031C49.5782 49.4922 49.2657 49.7168 48.8946 49.877C48.5235 50.0371 48.0977 50.1172 47.6173 50.1172C47.1368 50.1172 46.7091 50.0371 46.3341 49.877C45.963 49.7168 45.6485 49.4922 45.3907 49.2031C45.1368 48.9102 44.9434 48.5684 44.8106 48.1777C44.6778 47.7832 44.6114 47.3555 44.6114 46.8945ZM46.2989 46.7715V46.8945C46.2989 47.1602 46.3223 47.4082 46.3692 47.6387C46.4161 47.8691 46.4903 48.0723 46.5919 48.248C46.6973 48.4199 46.8341 48.5547 47.002 48.6523C47.17 48.75 47.3751 48.7988 47.6173 48.7988C47.8516 48.7988 48.0528 48.75 48.2208 48.6523C48.3887 48.5547 48.5235 48.4199 48.6251 48.248C48.7266 48.0723 48.8009 47.8691 48.8477 47.6387C48.8985 47.4082 48.9239 47.1602 48.9239 46.8945V46.7715C48.9239 46.5137 48.8985 46.2715 48.8477 46.0449C48.8009 45.8145 48.7247 45.6113 48.6192 45.4355C48.5177 45.2559 48.3829 45.1152 48.2149 45.0137C48.047 44.9121 47.8438 44.8613 47.6055 44.8613C47.3673 44.8613 47.1641 44.9121 46.9962 45.0137C46.8321 45.1152 46.6973 45.2559 46.5919 45.4355C46.4903 45.6113 46.4161 45.8145 46.3692 46.0449C46.3223 46.2715 46.2989 46.5137 46.2989 46.7715ZM55.908 43.6602H57.4373V49.7891C57.4373 50.3672 57.3084 50.8574 57.0506 51.2598C56.7967 51.666 56.4412 51.9727 55.9842 52.1797C55.5272 52.3906 54.9959 52.4961 54.3905 52.4961C54.1248 52.4961 53.8436 52.4609 53.5467 52.3906C53.2537 52.3203 52.9725 52.2109 52.703 52.0625C52.4373 51.9141 52.2147 51.7266 52.035 51.5L52.7791 50.5039C52.9745 50.7305 53.201 50.9062 53.4588 51.0312C53.7166 51.1602 54.0018 51.2246 54.3143 51.2246C54.619 51.2246 54.8768 51.168 55.0877 51.0547C55.2987 50.9453 55.4608 50.7832 55.5741 50.5684C55.6873 50.3574 55.744 50.1016 55.744 49.8008V45.125L55.908 43.6602ZM51.6424 46.9062V46.7832C51.6424 46.2988 51.701 45.8594 51.8182 45.4648C51.9393 45.0664 52.1092 44.7246 52.328 44.4395C52.5506 44.1543 52.8202 43.9336 53.1366 43.7773C53.453 43.6211 53.8104 43.543 54.2088 43.543C54.6307 43.543 54.9842 43.6211 55.2694 43.7773C55.5545 43.9336 55.7889 44.1562 55.9725 44.4453C56.1561 44.7305 56.2987 45.0684 56.4002 45.459C56.5057 45.8457 56.5877 46.2695 56.6463 46.7305V47C56.5877 47.4414 56.4998 47.8516 56.3827 48.2305C56.2655 48.6094 56.1112 48.9414 55.9198 49.2266C55.7284 49.5078 55.4901 49.7266 55.2049 49.8828C54.9237 50.0391 54.5877 50.1172 54.1971 50.1172C53.8065 50.1172 53.453 50.0371 53.1366 49.877C52.8241 49.7168 52.5565 49.4922 52.3338 49.2031C52.1112 48.9141 51.9393 48.5742 51.8182 48.1836C51.701 47.793 51.6424 47.3672 51.6424 46.9062ZM53.3299 46.7832V46.9062C53.3299 47.168 53.3553 47.4121 53.4061 47.6387C53.4569 47.8652 53.535 48.0664 53.6405 48.2422C53.7498 48.4141 53.8846 48.5488 54.0448 48.6465C54.2088 48.7402 54.4022 48.7871 54.6248 48.7871C54.9334 48.7871 55.1854 48.7227 55.3807 48.5938C55.576 48.4609 55.7225 48.2793 55.8202 48.0488C55.9178 47.8184 55.9745 47.5527 55.9901 47.252V46.4844C55.9823 46.2383 55.9491 46.0176 55.8905 45.8223C55.8319 45.623 55.7498 45.4531 55.6444 45.3125C55.5389 45.1719 55.4022 45.0625 55.2342 44.9844C55.0662 44.9062 54.867 44.8672 54.6366 44.8672C54.4139 44.8672 54.2205 44.918 54.0565 45.0195C53.8963 45.1172 53.7616 45.252 53.6522 45.4238C53.5467 45.5957 53.4666 45.7988 53.412 46.0332C53.3573 46.2637 53.3299 46.5137 53.3299 46.7832ZM61.9078 50.1172C61.4156 50.1172 60.9742 50.0391 60.5836 49.8828C60.193 49.7227 59.8609 49.502 59.5875 49.2207C59.318 48.9395 59.1109 48.6133 58.9664 48.2422C58.8219 47.8672 58.7496 47.4688 58.7496 47.0469V46.8125C58.7496 46.332 58.818 45.8926 58.9547 45.4941C59.0914 45.0957 59.2867 44.75 59.5406 44.457C59.7984 44.1641 60.1109 43.9395 60.4781 43.7832C60.8453 43.623 61.2594 43.543 61.7203 43.543C62.1695 43.543 62.568 43.6172 62.9156 43.7656C63.2633 43.9141 63.5543 44.125 63.7887 44.3984C64.027 44.6719 64.2066 45 64.3277 45.3828C64.4488 45.7617 64.5094 46.1836 64.5094 46.6484V47.3516H59.4703V46.2266H62.8512V46.0977C62.8512 45.8633 62.8082 45.6543 62.7223 45.4707C62.6402 45.2832 62.5152 45.1348 62.3473 45.0254C62.1793 44.916 61.9645 44.8613 61.7027 44.8613C61.4801 44.8613 61.2887 44.9102 61.1285 45.0078C60.9684 45.1055 60.8375 45.2422 60.7359 45.418C60.6383 45.5938 60.5641 45.8008 60.5133 46.0391C60.4664 46.2734 60.443 46.5312 60.443 46.8125V47.0469C60.443 47.3008 60.4781 47.5352 60.5484 47.75C60.6227 47.9648 60.7262 48.1504 60.859 48.3066C60.9957 48.4629 61.1598 48.584 61.3512 48.6699C61.5465 48.7559 61.7672 48.7988 62.0133 48.7988C62.318 48.7988 62.6012 48.7402 62.8629 48.623C63.1285 48.502 63.357 48.3203 63.5484 48.0781L64.3688 48.9688C64.2359 49.1602 64.0543 49.3438 63.8238 49.5195C63.5973 49.6953 63.3238 49.8398 63.0035 49.9531C62.6832 50.0625 62.318 50.1172 61.9078 50.1172ZM68.8158 43.6602V44.8555H65.1244V43.6602H68.8158ZM66.0384 42.0957H67.7259V48.0898C67.7259 48.2734 67.7494 48.4141 67.7962 48.5117C67.847 48.6094 67.9212 48.6777 68.0189 48.7168C68.1166 48.752 68.2396 48.7695 68.388 48.7695C68.4935 48.7695 68.5873 48.7656 68.6693 48.7578C68.7552 48.7461 68.8275 48.7344 68.8861 48.7227L68.892 49.9648C68.7474 50.0117 68.5912 50.0488 68.4232 50.0762C68.2552 50.1035 68.0697 50.1172 67.8666 50.1172C67.4955 50.1172 67.1712 50.0566 66.8939 49.9355C66.6205 49.8105 66.4095 49.6113 66.2611 49.3379C66.1127 49.0645 66.0384 48.7051 66.0384 48.2598V42.0957ZM71.6632 41V50H69.9757V41H71.6632ZM71.423 46.6074H70.9601C70.964 46.166 71.0226 45.7598 71.1359 45.3887C71.2491 45.0137 71.4112 44.6895 71.6222 44.416C71.8331 44.1387 72.0851 43.9238 72.378 43.7715C72.6749 43.6191 73.003 43.543 73.3624 43.543C73.6749 43.543 73.9581 43.5879 74.212 43.6777C74.4698 43.7637 74.6905 43.9043 74.8741 44.0996C75.0616 44.291 75.2062 44.543 75.3077 44.8555C75.4093 45.168 75.4601 45.5469 75.4601 45.9922V50H73.7609V45.9805C73.7609 45.6992 73.7198 45.4785 73.6378 45.3184C73.5597 45.1543 73.4445 45.0391 73.2921 44.9727C73.1437 44.9023 72.9601 44.8672 72.7413 44.8672C72.4991 44.8672 72.2921 44.9121 72.1202 45.002C71.9523 45.0918 71.8175 45.2168 71.7159 45.377C71.6144 45.5332 71.5402 45.7168 71.4933 45.9277C71.4464 46.1387 71.423 46.3652 71.423 46.6074ZM79.9013 50.1172C79.4091 50.1172 78.9677 50.0391 78.577 49.8828C78.1864 49.7227 77.8544 49.502 77.5809 49.2207C77.3114 48.9395 77.1044 48.6133 76.9598 48.2422C76.8153 47.8672 76.743 47.4688 76.743 47.0469V46.8125C76.743 46.332 76.8114 45.8926 76.9481 45.4941C77.0848 45.0957 77.2802 44.75 77.5341 44.457C77.7919 44.1641 78.1044 43.9395 78.4716 43.7832C78.8388 43.623 79.2528 43.543 79.7138 43.543C80.163 43.543 80.5614 43.6172 80.9091 43.7656C81.2567 43.9141 81.5477 44.125 81.7821 44.3984C82.0204 44.6719 82.2001 45 82.3212 45.3828C82.4423 45.7617 82.5028 46.1836 82.5028 46.6484V47.3516H77.4638V46.2266H80.8446V46.0977C80.8446 45.8633 80.8016 45.6543 80.7157 45.4707C80.6337 45.2832 80.5087 45.1348 80.3407 45.0254C80.1727 44.916 79.9579 44.8613 79.6962 44.8613C79.4735 44.8613 79.2821 44.9102 79.122 45.0078C78.9618 45.1055 78.8309 45.2422 78.7294 45.418C78.6317 45.5938 78.5575 45.8008 78.5067 46.0391C78.4598 46.2734 78.4364 46.5312 78.4364 46.8125V47.0469C78.4364 47.3008 78.4716 47.5352 78.5419 47.75C78.6161 47.9648 78.7196 48.1504 78.8524 48.3066C78.9891 48.4629 79.1532 48.584 79.3446 48.6699C79.5399 48.7559 79.7606 48.7988 80.0067 48.7988C80.3114 48.7988 80.5946 48.7402 80.8563 48.623C81.122 48.502 81.3505 48.3203 81.5419 48.0781L82.3622 48.9688C82.2294 49.1602 82.0477 49.3438 81.8173 49.5195C81.5907 49.6953 81.3173 49.8398 80.997 49.9531C80.6766 50.0625 80.3114 50.1172 79.9013 50.1172ZM85.3913 45.043V50H83.7038V43.6602H85.2916L85.3913 45.043ZM87.3014 43.6191L87.2721 45.1836C87.1901 45.1719 87.0905 45.1621 86.9733 45.1543C86.86 45.1426 86.7565 45.1367 86.6627 45.1367C86.4245 45.1367 86.2174 45.168 86.0416 45.2305C85.8698 45.2891 85.7252 45.377 85.608 45.4941C85.4948 45.6113 85.4088 45.7539 85.3502 45.9219C85.2955 46.0898 85.2643 46.2812 85.2565 46.4961L84.9166 46.3906C84.9166 45.9805 84.9577 45.6035 85.0397 45.2598C85.1217 44.9121 85.2409 44.6094 85.3971 44.3516C85.5573 44.0938 85.7526 43.8945 85.983 43.7539C86.2135 43.6133 86.4772 43.543 86.7741 43.543C86.8678 43.543 86.9635 43.5508 87.0612 43.5664C87.1588 43.5781 87.2389 43.5957 87.3014 43.6191Z" fill="#101010"/>
<path d="M4.57617 41.4688V50H2.82422V41.4688H4.57617ZM7.20117 41.4688V42.8457H0.240234V41.4688H7.20117ZM9.615 45.043V50H7.9275V43.6602H9.51539L9.615 45.043ZM11.5252 43.6191L11.4959 45.1836C11.4138 45.1719 11.3142 45.1621 11.197 45.1543C11.0837 45.1426 10.9802 45.1367 10.8865 45.1367C10.6482 45.1367 10.4412 45.168 10.2654 45.2305C10.0935 45.2891 9.94898 45.377 9.8318 45.4941C9.71852 45.6113 9.63258 45.7539 9.57398 45.9219C9.5193 46.0898 9.48805 46.2812 9.48023 46.4961L9.14039 46.3906C9.14039 45.9805 9.18141 45.6035 9.26344 45.2598C9.34547 44.9121 9.46461 44.6094 9.62086 44.3516C9.78102 44.0938 9.97633 43.8945 10.2068 43.7539C10.4373 43.6133 10.7009 43.543 10.9978 43.543C11.0916 43.543 11.1873 43.5508 11.2849 43.5664C11.3826 43.5781 11.4627 43.5957 11.5252 43.6191ZM15.7847 48.5703V45.7461C15.7847 45.543 15.7515 45.3691 15.6851 45.2246C15.6187 45.0762 15.5152 44.9609 15.3745 44.8789C15.2378 44.7969 15.0601 44.7559 14.8413 44.7559C14.6538 44.7559 14.4917 44.7891 14.355 44.8555C14.2183 44.918 14.1128 45.0098 14.0386 45.1309C13.9644 45.248 13.9273 45.3867 13.9273 45.5469H12.2398C12.2398 45.2773 12.3023 45.0215 12.4273 44.7793C12.5523 44.5371 12.7339 44.3242 12.9722 44.1406C13.2105 43.9531 13.4937 43.8066 13.8218 43.7012C14.1538 43.5957 14.5249 43.543 14.9351 43.543C15.4273 43.543 15.8648 43.625 16.2476 43.7891C16.6304 43.9531 16.9312 44.1992 17.1499 44.5273C17.3726 44.8555 17.4839 45.2656 17.4839 45.7578V48.4707C17.4839 48.8184 17.5054 49.1035 17.5484 49.3262C17.5913 49.5449 17.6538 49.7363 17.7359 49.9004V50H16.0308C15.9487 49.8281 15.8862 49.6133 15.8433 49.3555C15.8042 49.0938 15.7847 48.832 15.7847 48.5703ZM16.0073 46.1387L16.0191 47.0938H15.0757C14.853 47.0938 14.6597 47.1191 14.4956 47.1699C14.3316 47.2207 14.1968 47.293 14.0913 47.3867C13.9859 47.4766 13.9077 47.582 13.857 47.7031C13.8101 47.8242 13.7866 47.957 13.7866 48.1016C13.7866 48.2461 13.8198 48.377 13.8862 48.4941C13.9527 48.6074 14.0484 48.6973 14.1734 48.7637C14.2984 48.8262 14.4448 48.8574 14.6128 48.8574C14.8667 48.8574 15.0874 48.8066 15.2749 48.7051C15.4624 48.6035 15.607 48.4785 15.7085 48.3301C15.814 48.1816 15.8687 48.041 15.8726 47.9082L16.3179 48.623C16.2554 48.7832 16.1695 48.9492 16.0601 49.1211C15.9546 49.293 15.8198 49.4551 15.6558 49.6074C15.4917 49.7559 15.2945 49.8789 15.064 49.9766C14.8335 50.0703 14.5601 50.1172 14.2437 50.1172C13.8413 50.1172 13.4761 50.0371 13.148 49.877C12.8237 49.7129 12.5659 49.4883 12.3745 49.2031C12.187 48.9141 12.0933 48.5859 12.0933 48.2188C12.0933 47.8867 12.1558 47.5918 12.2808 47.334C12.4058 47.0762 12.5894 46.8594 12.8316 46.6836C13.0777 46.5039 13.3843 46.3691 13.7515 46.2793C14.1187 46.1855 14.5445 46.1387 15.0288 46.1387H16.0073ZM21.0872 48.7695L22.4934 43.6602H24.2571L22.1184 50H21.052L21.0872 48.7695ZM20.1204 43.6602L21.5325 48.7754L21.5618 50H20.4895L18.3509 43.6602H20.1204ZM28.0889 50.1172C27.5967 50.1172 27.1553 50.0391 26.7647 49.8828C26.3741 49.7227 26.042 49.502 25.7686 49.2207C25.4991 48.9395 25.292 48.6133 25.1475 48.2422C25.003 47.8672 24.9307 47.4688 24.9307 47.0469V46.8125C24.9307 46.332 24.9991 45.8926 25.1358 45.4941C25.2725 45.0957 25.4678 44.75 25.7217 44.457C25.9795 44.1641 26.292 43.9395 26.6592 43.7832C27.0264 43.623 27.4405 43.543 27.9014 43.543C28.3506 43.543 28.7491 43.6172 29.0967 43.7656C29.4444 43.9141 29.7354 44.125 29.9698 44.3984C30.208 44.6719 30.3877 45 30.5088 45.3828C30.6299 45.7617 30.6905 46.1836 30.6905 46.6484V47.3516H25.6514V46.2266H29.0323V46.0977C29.0323 45.8633 28.9893 45.6543 28.9034 45.4707C28.8213 45.2832 28.6963 45.1348 28.5284 45.0254C28.3604 44.916 28.1455 44.8613 27.8838 44.8613C27.6612 44.8613 27.4698 44.9102 27.3096 45.0078C27.1495 45.1055 27.0186 45.2422 26.917 45.418C26.8194 45.5938 26.7452 45.8008 26.6944 46.0391C26.6475 46.2734 26.6241 46.5312 26.6241 46.8125V47.0469C26.6241 47.3008 26.6592 47.5352 26.7295 47.75C26.8037 47.9648 26.9073 48.1504 27.0401 48.3066C27.1768 48.4629 27.3409 48.584 27.5323 48.6699C27.7276 48.7559 27.9483 48.7988 28.1944 48.7988C28.4991 48.7988 28.7823 48.7402 29.044 48.623C29.3096 48.502 29.5381 48.3203 29.7295 48.0781L30.5498 48.9688C30.417 49.1602 30.2354 49.3438 30.0049 49.5195C29.7784 49.6953 29.5049 49.8398 29.1846 49.9531C28.8643 50.0625 28.4991 50.1172 28.0889 50.1172ZM33.6727 41V50H31.9793V41H33.6727ZM42.139 41.4688V50H40.387V41.4688H42.139ZM44.764 41.4688V42.8457H37.803V41.4688H44.764ZM44.6114 46.8945V46.7715C44.6114 46.3066 44.6778 45.8789 44.8106 45.4883C44.9434 45.0938 45.1368 44.752 45.3907 44.4629C45.6446 44.1738 45.9571 43.9492 46.3282 43.7891C46.6993 43.625 47.1251 43.543 47.6055 43.543C48.086 43.543 48.5137 43.625 48.8887 43.7891C49.2637 43.9492 49.5782 44.1738 49.8321 44.4629C50.0899 44.752 50.2852 45.0938 50.418 45.4883C50.5509 45.8789 50.6173 46.3066 50.6173 46.7715V46.8945C50.6173 47.3555 50.5509 47.7832 50.418 48.1777C50.2852 48.5684 50.0899 48.9102 49.8321 49.2031C49.5782 49.4922 49.2657 49.7168 48.8946 49.877C48.5235 50.0371 48.0977 50.1172 47.6173 50.1172C47.1368 50.1172 46.7091 50.0371 46.3341 49.877C45.963 49.7168 45.6485 49.4922 45.3907 49.2031C45.1368 48.9102 44.9434 48.5684 44.8106 48.1777C44.6778 47.7832 44.6114 47.3555 44.6114 46.8945ZM46.2989 46.7715V46.8945C46.2989 47.1602 46.3223 47.4082 46.3692 47.6387C46.4161 47.8691 46.4903 48.0723 46.5919 48.248C46.6973 48.4199 46.8341 48.5547 47.002 48.6523C47.17 48.75 47.3751 48.7988 47.6173 48.7988C47.8516 48.7988 48.0528 48.75 48.2208 48.6523C48.3887 48.5547 48.5235 48.4199 48.6251 48.248C48.7266 48.0723 48.8009 47.8691 48.8477 47.6387C48.8985 47.4082 48.9239 47.1602 48.9239 46.8945V46.7715C48.9239 46.5137 48.8985 46.2715 48.8477 46.0449C48.8009 45.8145 48.7247 45.6113 48.6192 45.4355C48.5177 45.2559 48.3829 45.1152 48.2149 45.0137C48.047 44.9121 47.8438 44.8613 47.6055 44.8613C47.3673 44.8613 47.1641 44.9121 46.9962 45.0137C46.8321 45.1152 46.6973 45.2559 46.5919 45.4355C46.4903 45.6113 46.4161 45.8145 46.3692 46.0449C46.3223 46.2715 46.2989 46.5137 46.2989 46.7715ZM55.908 43.6602H57.4373V49.7891C57.4373 50.3672 57.3084 50.8574 57.0506 51.2598C56.7967 51.666 56.4412 51.9727 55.9842 52.1797C55.5272 52.3906 54.9959 52.4961 54.3905 52.4961C54.1248 52.4961 53.8436 52.4609 53.5467 52.3906C53.2537 52.3203 52.9725 52.2109 52.703 52.0625C52.4373 51.9141 52.2147 51.7266 52.035 51.5L52.7791 50.5039C52.9745 50.7305 53.201 50.9062 53.4588 51.0312C53.7166 51.1602 54.0018 51.2246 54.3143 51.2246C54.619 51.2246 54.8768 51.168 55.0877 51.0547C55.2987 50.9453 55.4608 50.7832 55.5741 50.5684C55.6873 50.3574 55.744 50.1016 55.744 49.8008V45.125L55.908 43.6602ZM51.6424 46.9062V46.7832C51.6424 46.2988 51.701 45.8594 51.8182 45.4648C51.9393 45.0664 52.1092 44.7246 52.328 44.4395C52.5506 44.1543 52.8202 43.9336 53.1366 43.7773C53.453 43.6211 53.8104 43.543 54.2088 43.543C54.6307 43.543 54.9842 43.6211 55.2694 43.7773C55.5545 43.9336 55.7889 44.1562 55.9725 44.4453C56.1561 44.7305 56.2987 45.0684 56.4002 45.459C56.5057 45.8457 56.5877 46.2695 56.6463 46.7305V47C56.5877 47.4414 56.4998 47.8516 56.3827 48.2305C56.2655 48.6094 56.1112 48.9414 55.9198 49.2266C55.7284 49.5078 55.4901 49.7266 55.2049 49.8828C54.9237 50.0391 54.5877 50.1172 54.1971 50.1172C53.8065 50.1172 53.453 50.0371 53.1366 49.877C52.8241 49.7168 52.5565 49.4922 52.3338 49.2031C52.1112 48.9141 51.9393 48.5742 51.8182 48.1836C51.701 47.793 51.6424 47.3672 51.6424 46.9062ZM53.3299 46.7832V46.9062C53.3299 47.168 53.3553 47.4121 53.4061 47.6387C53.4569 47.8652 53.535 48.0664 53.6405 48.2422C53.7498 48.4141 53.8846 48.5488 54.0448 48.6465C54.2088 48.7402 54.4022 48.7871 54.6248 48.7871C54.9334 48.7871 55.1854 48.7227 55.3807 48.5938C55.576 48.4609 55.7225 48.2793 55.8202 48.0488C55.9178 47.8184 55.9745 47.5527 55.9901 47.252V46.4844C55.9823 46.2383 55.9491 46.0176 55.8905 45.8223C55.8319 45.623 55.7498 45.4531 55.6444 45.3125C55.5389 45.1719 55.4022 45.0625 55.2342 44.9844C55.0662 44.9062 54.867 44.8672 54.6366 44.8672C54.4139 44.8672 54.2205 44.918 54.0565 45.0195C53.8963 45.1172 53.7616 45.252 53.6522 45.4238C53.5467 45.5957 53.4666 45.7988 53.412 46.0332C53.3573 46.2637 53.3299 46.5137 53.3299 46.7832ZM61.9078 50.1172C61.4156 50.1172 60.9742 50.0391 60.5836 49.8828C60.193 49.7227 59.8609 49.502 59.5875 49.2207C59.318 48.9395 59.1109 48.6133 58.9664 48.2422C58.8219 47.8672 58.7496 47.4688 58.7496 47.0469V46.8125C58.7496 46.332 58.818 45.8926 58.9547 45.4941C59.0914 45.0957 59.2867 44.75 59.5406 44.457C59.7984 44.1641 60.1109 43.9395 60.4781 43.7832C60.8453 43.623 61.2594 43.543 61.7203 43.543C62.1695 43.543 62.568 43.6172 62.9156 43.7656C63.2633 43.9141 63.5543 44.125 63.7887 44.3984C64.027 44.6719 64.2066 45 64.3277 45.3828C64.4488 45.7617 64.5094 46.1836 64.5094 46.6484V47.3516H59.4703V46.2266H62.8512V46.0977C62.8512 45.8633 62.8082 45.6543 62.7223 45.4707C62.6402 45.2832 62.5152 45.1348 62.3473 45.0254C62.1793 44.916 61.9645 44.8613 61.7027 44.8613C61.4801 44.8613 61.2887 44.9102 61.1285 45.0078C60.9684 45.1055 60.8375 45.2422 60.7359 45.418C60.6383 45.5938 60.5641 45.8008 60.5133 46.0391C60.4664 46.2734 60.443 46.5312 60.443 46.8125V47.0469C60.443 47.3008 60.4781 47.5352 60.5484 47.75C60.6227 47.9648 60.7262 48.1504 60.859 48.3066C60.9957 48.4629 61.1598 48.584 61.3512 48.6699C61.5465 48.7559 61.7672 48.7988 62.0133 48.7988C62.318 48.7988 62.6012 48.7402 62.8629 48.623C63.1285 48.502 63.357 48.3203 63.5484 48.0781L64.3688 48.9688C64.2359 49.1602 64.0543 49.3438 63.8238 49.5195C63.5973 49.6953 63.3238 49.8398 63.0035 49.9531C62.6832 50.0625 62.318 50.1172 61.9078 50.1172ZM68.8158 43.6602V44.8555H65.1244V43.6602H68.8158ZM66.0384 42.0957H67.7259V48.0898C67.7259 48.2734 67.7494 48.4141 67.7962 48.5117C67.847 48.6094 67.9212 48.6777 68.0189 48.7168C68.1166 48.752 68.2396 48.7695 68.388 48.7695C68.4935 48.7695 68.5873 48.7656 68.6693 48.7578C68.7552 48.7461 68.8275 48.7344 68.8861 48.7227L68.892 49.9648C68.7474 50.0117 68.5912 50.0488 68.4232 50.0762C68.2552 50.1035 68.0697 50.1172 67.8666 50.1172C67.4955 50.1172 67.1712 50.0566 66.8939 49.9355C66.6205 49.8105 66.4095 49.6113 66.2611 49.3379C66.1127 49.0645 66.0384 48.7051 66.0384 48.2598V42.0957ZM71.6632 41V50H69.9757V41H71.6632ZM71.423 46.6074H70.9601C70.964 46.166 71.0226 45.7598 71.1359 45.3887C71.2491 45.0137 71.4112 44.6895 71.6222 44.416C71.8331 44.1387 72.0851 43.9238 72.378 43.7715C72.6749 43.6191 73.003 43.543 73.3624 43.543C73.6749 43.543 73.9581 43.5879 74.212 43.6777C74.4698 43.7637 74.6905 43.9043 74.8741 44.0996C75.0616 44.291 75.2062 44.543 75.3077 44.8555C75.4093 45.168 75.4601 45.5469 75.4601 45.9922V50H73.7609V45.9805C73.7609 45.6992 73.7198 45.4785 73.6378 45.3184C73.5597 45.1543 73.4445 45.0391 73.2921 44.9727C73.1437 44.9023 72.9601 44.8672 72.7413 44.8672C72.4991 44.8672 72.2921 44.9121 72.1202 45.002C71.9523 45.0918 71.8175 45.2168 71.7159 45.377C71.6144 45.5332 71.5402 45.7168 71.4933 45.9277C71.4464 46.1387 71.423 46.3652 71.423 46.6074ZM79.9013 50.1172C79.4091 50.1172 78.9677 50.0391 78.577 49.8828C78.1864 49.7227 77.8544 49.502 77.5809 49.2207C77.3114 48.9395 77.1044 48.6133 76.9598 48.2422C76.8153 47.8672 76.743 47.4688 76.743 47.0469V46.8125C76.743 46.332 76.8114 45.8926 76.9481 45.4941C77.0848 45.0957 77.2802 44.75 77.5341 44.457C77.7919 44.1641 78.1044 43.9395 78.4716 43.7832C78.8388 43.623 79.2528 43.543 79.7138 43.543C80.163 43.543 80.5614 43.6172 80.9091 43.7656C81.2567 43.9141 81.5477 44.125 81.7821 44.3984C82.0204 44.6719 82.2001 45 82.3212 45.3828C82.4423 45.7617 82.5028 46.1836 82.5028 46.6484V47.3516H77.4638V46.2266H80.8446V46.0977C80.8446 45.8633 80.8016 45.6543 80.7157 45.4707C80.6337 45.2832 80.5087 45.1348 80.3407 45.0254C80.1727 44.916 79.9579 44.8613 79.6962 44.8613C79.4735 44.8613 79.2821 44.9102 79.122 45.0078C78.9618 45.1055 78.8309 45.2422 78.7294 45.418C78.6317 45.5938 78.5575 45.8008 78.5067 46.0391C78.4598 46.2734 78.4364 46.5312 78.4364 46.8125V47.0469C78.4364 47.3008 78.4716 47.5352 78.5419 47.75C78.6161 47.9648 78.7196 48.1504 78.8524 48.3066C78.9891 48.4629 79.1532 48.584 79.3446 48.6699C79.5399 48.7559 79.7606 48.7988 80.0067 48.7988C80.3114 48.7988 80.5946 48.7402 80.8563 48.623C81.122 48.502 81.3505 48.3203 81.5419 48.0781L82.3622 48.9688C82.2294 49.1602 82.0477 49.3438 81.8173 49.5195C81.5907 49.6953 81.3173 49.8398 80.997 49.9531C80.6766 50.0625 80.3114 50.1172 79.9013 50.1172ZM85.3913 45.043V50H83.7038V43.6602H85.2916L85.3913 45.043ZM87.3014 43.6191L87.2721 45.1836C87.1901 45.1719 87.0905 45.1621 86.9733 45.1543C86.86 45.1426 86.7565 45.1367 86.6627 45.1367C86.4245 45.1367 86.2174 45.168 86.0416 45.2305C85.8698 45.2891 85.7252 45.377 85.608 45.4941C85.4948 45.6113 85.4088 45.7539 85.3502 45.9219C85.2955 46.0898 85.2643 46.2812 85.2565 46.4961L84.9166 46.3906C84.9166 45.9805 84.9577 45.6035 85.0397 45.2598C85.1217 44.9121 85.2409 44.6094 85.3971 44.3516C85.5573 44.0938 85.7526 43.8945 85.983 43.7539C86.2135 43.6133 86.4772 43.543 86.7741 43.543C86.8678 43.543 86.9635 43.5508 87.0612 43.5664C87.1588 43.5781 87.2389 43.5957 87.3014 43.6191Z" fill="black" fill-opacity="0.2"/>
</svg>
