<svg width="12" height="12" viewBox="0 0 12 12" fill="none" xmlns="http://www.w3.org/2000/svg">
<path d="M0.999982 7L8.58998 7L5.28998 10.29C5.10168 10.4783 4.99589 10.7337 4.99589 11C4.99589 11.2663 5.10168 11.5217 5.28998 11.71C5.47828 11.8983 5.73368 12.0041 5.99998 12.0041C6.26628 12.0041 6.52168 11.8983 6.70998 11.71L11.71 6.71C11.801 6.6149 11.8724 6.50275 11.92 6.38C12.02 6.13654 12.02 5.86346 11.92 5.62C11.8724 5.49725 11.801 5.3851 11.71 5.29L6.70998 0.290001C6.61702 0.196273 6.50642 0.121877 6.38456 0.0711079C6.2627 0.020339 6.13199 -0.00579834 5.99998 -0.00579834C5.86797 -0.00579834 5.73726 0.020339 5.6154 0.0711079C5.49355 0.121877 5.38294 0.196273 5.28998 0.290001C5.19625 0.382964 5.12186 0.493564 5.07109 0.615423C5.02032 0.737283 4.99418 0.867989 4.99418 1C4.99418 1.13201 5.02032 1.26272 5.07109 1.38458C5.12186 1.50644 5.19625 1.61704 5.28998 1.71L8.58998 5L0.999982 5C0.734765 5 0.480411 5.10536 0.292874 5.29289C0.105338 5.48043 -1.81198e-05 5.73478 -1.81198e-05 6C-1.81198e-05 6.26522 0.105338 6.51957 0.292874 6.70711C0.480411 6.89464 0.734765 7 0.999982 7Z" fill="white"/>
</svg>
