<svg width="0" height="0" class="hidden">
  <symbol fill="none" xmlns="http://www.w3.org/2000/svg" viewBox="0 0 24 24" id="calendar">
    <path d="M12 19C12.1978 19 12.3911 18.9414 12.5556 18.8315C12.72 18.7216 12.8482 18.5654 12.9239 18.3827C12.9996 18.2 13.0194 17.9989 12.9808 17.8049C12.9422 17.6109 12.847 17.4327 12.7071 17.2929C12.5673 17.153 12.3891 17.0578 12.1951 17.0192C12.0011 16.9806 11.8 17.0004 11.6173 17.0761C11.4346 17.1518 11.2784 17.28 11.1685 17.4444C11.0586 17.6089 11 17.8022 11 18C11 18.2652 11.1054 18.5196 11.2929 18.7071C11.4804 18.8946 11.7348 19 12 19ZM17 19C17.1978 19 17.3911 18.9414 17.5556 18.8315C17.72 18.7216 17.8482 18.5654 17.9239 18.3827C17.9996 18.2 18.0194 17.9989 17.9808 17.8049C17.9422 17.6109 17.847 17.4327 17.7071 17.2929C17.5673 17.153 17.3891 17.0578 17.1951 17.0192C17.0011 16.9806 16.8 17.0004 16.6173 17.0761C16.4346 17.1518 16.2784 17.28 16.1685 17.4444C16.0586 17.6089 16 17.8022 16 18C16 18.2652 16.1054 18.5196 16.2929 18.7071C16.4804 18.8946 16.7348 19 17 19ZM17 15C17.1978 15 17.3911 14.9414 17.5556 14.8315C17.72 14.7216 17.8482 14.5654 17.9239 14.3827C17.9996 14.2 18.0194 13.9989 17.9808 13.8049C17.9422 13.6109 17.847 13.4327 17.7071 13.2929C17.5673 13.153 17.3891 13.0578 17.1951 13.0192C17.0011 12.9806 16.8 13.0004 16.6173 13.0761C16.4346 13.1518 16.2784 13.28 16.1685 13.4444C16.0586 13.6089 16 13.8022 16 14C16 14.2652 16.1054 14.5196 16.2929 14.7071C16.4804 14.8946 16.7348 15 17 15ZM12 15C12.1978 15 12.3911 14.9414 12.5556 14.8315C12.72 14.7216 12.8482 14.5654 12.9239 14.3827C12.9996 14.2 13.0194 13.9989 12.9808 13.8049C12.9422 13.6109 12.847 13.4327 12.7071 13.2929C12.5673 13.153 12.3891 13.0578 12.1951 13.0192C12.0011 12.9806 11.8 13.0004 11.6173 13.0761C11.4346 13.1518 11.2784 13.28 11.1685 13.4444C11.0586 13.6089 11 13.8022 11 14C11 14.2652 11.1054 14.5196 11.2929 14.7071C11.4804 14.8946 11.7348 15 12 15ZM19 3H18V2C18 1.73478 17.8946 1.48043 17.7071 1.29289C17.5196 1.10536 17.2652 1 17 1C16.7348 1 16.4804 1.10536 16.2929 1.29289C16.1054 1.48043 16 1.73478 16 2V3H8V2C8 1.73478 7.89464 1.48043 7.70711 1.29289C7.51957 1.10536 7.26522 1 7 1C6.73478 1 6.48043 1.10536 6.29289 1.29289C6.10536 1.48043 6 1.73478 6 2V3H5C4.20435 3 3.44129 3.31607 2.87868 3.87868C2.31607 4.44129 2 5.20435 2 6V20C2 20.7956 2.31607 21.5587 2.87868 22.1213C3.44129 22.6839 4.20435 23 5 23H19C19.7956 23 20.5587 22.6839 21.1213 22.1213C21.6839 21.5587 22 20.7956 22 20V6C22 5.20435 21.6839 4.44129 21.1213 3.87868C20.5587 3.31607 19.7956 3 19 3ZM20 20C20 20.2652 19.8946 20.5196 19.7071 20.7071C19.5196 20.8946 19.2652 21 19 21H5C4.73478 21 4.48043 20.8946 4.29289 20.7071C4.10536 20.5196 4 20.2652 4 20V11H20V20ZM20 9H4V6C4 5.73478 4.10536 5.48043 4.29289 5.29289C4.48043 5.10536 4.73478 5 5 5H6V6C6 6.26522 6.10536 6.51957 6.29289 6.70711C6.48043 6.89464 6.73478 7 7 7C7.26522 7 7.51957 6.89464 7.70711 6.70711C7.89464 6.51957 8 6.26522 8 6V5H16V6C16 6.26522 16.1054 6.51957 16.2929 6.70711C16.4804 6.89464 16.7348 7 17 7C17.2652 7 17.5196 6.89464 17.7071 6.70711C17.8946 6.51957 18 6.26522 18 6V5H19C19.2652 5 19.5196 5.10536 19.7071 5.29289C19.8946 5.48043 20 5.73478 20 6V9ZM7 15C7.19778 15 7.39112 14.9414 7.55557 14.8315C7.72002 14.7216 7.84819 14.5654 7.92388 14.3827C7.99957 14.2 8.01937 13.9989 7.98079 13.8049C7.9422 13.6109 7.84696 13.4327 7.70711 13.2929C7.56725 13.153 7.38907 13.0578 7.19509 13.0192C7.00111 12.9806 6.80004 13.0004 6.61732 13.0761C6.43459 13.1518 6.27841 13.28 6.16853 13.4444C6.05865 13.6089 6 13.8022 6 14C6 14.2652 6.10536 14.5196 6.29289 14.7071C6.48043 14.8946 6.73478 15 7 15ZM7 19C7.19778 19 7.39112 18.9414 7.55557 18.8315C7.72002 18.7216 7.84819 18.5654 7.92388 18.3827C7.99957 18.2 8.01937 17.9989 7.98079 17.8049C7.9422 17.6109 7.84696 17.4327 7.70711 17.2929C7.56725 17.153 7.38907 17.0578 7.19509 17.0192C7.00111 16.9806 6.80004 17.0004 6.61732 17.0761C6.43459 17.1518 6.27841 17.28 6.16853 17.4444C6.05865 17.6089 6 17.8022 6 18C6 18.2652 6.10536 18.5196 6.29289 18.7071C6.48043 18.8946 6.73478 19 7 19Z" fill="#6C7072"></path>
  </symbol>
  <symbol fill="none" xmlns="http://www.w3.org/2000/svg" viewBox="0 0 72 72" id="calendar-check">
    <path d="M60 36V21C60 17.6863 57.3137 15 54 15H18C14.6863 15 12 17.6863 12 21V57C12 60.3137 14.6863 63 18 63H24M45 9V21M27 9V21M12 33H60M59.5715 45L40.9719 63.5997L33.0002 55.6284" stroke="#101010" stroke-width="6" stroke-linecap="round" stroke-linejoin="round"></path>
    <path d="M60 36V21C60 17.6863 57.3137 15 54 15H18C14.6863 15 12 17.6863 12 21V57C12 60.3137 14.6863 63 18 63H24M45 9V21M27 9V21M12 33H60M59.5715 45L40.9719 63.5997L33.0002 55.6284" stroke="black" stroke-opacity="0.2" stroke-width="6" stroke-linecap="round" stroke-linejoin="round"></path>
  </symbol>
  <symbol fill="none" xmlns="http://www.w3.org/2000/svg" viewBox="0 0 24 24" id="chat">
    <path d="M14.77 5.87C14.9996 6.00037 15.2715 6.03464 15.5263 5.96532C15.7811 5.896 15.9981 5.72873 16.13 5.5C16.2392 5.30736 16.4092 5.15639 16.6134 5.07078C16.8176 4.98517 17.0444 4.96975 17.2583 5.02694C17.4723 5.08414 17.6611 5.21071 17.7954 5.38681C17.9296 5.56291 18.0016 5.77858 18 6C18 6.26522 17.8947 6.51957 17.7071 6.70711C17.5196 6.89464 17.2652 7 17 7C16.7348 7 16.4804 7.10536 16.2929 7.29289C16.1054 7.48043 16 7.73478 16 8C16 8.26522 16.1054 8.51957 16.2929 8.70711C16.4804 8.89464 16.7348 9 17 9C17.5265 8.99966 18.0437 8.86075 18.4995 8.59723C18.9554 8.33371 19.3338 7.95486 19.5969 7.49875C19.8599 7.04264 19.9983 6.52533 19.9981 5.9988C19.9979 5.47227 19.8591 4.95507 19.5957 4.49917C19.3323 4.04326 18.9535 3.66472 18.4975 3.40156C18.0414 3.13841 17.5241 2.99992 16.9976 3C16.4711 3.00008 15.9539 3.13874 15.4979 3.40204C15.0419 3.66534 14.6633 4.04401 14.4 4.5C14.3339 4.61413 14.291 4.74022 14.2738 4.871C14.2566 5.00178 14.2655 5.13466 14.2999 5.262C14.3343 5.38934 14.3935 5.50862 14.4742 5.61297C14.5549 5.71732 14.6554 5.80467 14.77 5.87ZM19.07 13C18.8075 12.9659 18.5422 13.0373 18.3323 13.1985C18.1223 13.3597 17.9849 13.5976 17.95 13.86C17.7402 15.5552 16.9177 17.1151 15.6376 18.246C14.3575 19.3769 12.7081 20.0007 11 20H5.41002L6.06002 19.35C6.24627 19.1626 6.35081 18.9092 6.35081 18.645C6.35081 18.3808 6.24627 18.1274 6.06002 17.94C5.08497 16.9611 4.4214 15.7156 4.15291 14.3603C3.88442 13.005 4.02301 11.6005 4.55122 10.3238C5.07943 9.04714 5.97364 7.95532 7.12121 7.18589C8.26878 6.41646 9.61838 6.00384 11 6C11.2652 6 11.5196 5.89464 11.7071 5.70711C11.8947 5.51957 12 5.26522 12 5C12 4.73478 11.8947 4.48043 11.7071 4.29289C11.5196 4.10536 11.2652 4 11 4C9.30925 4.00705 7.65466 4.49024 6.22581 5.39419C4.79697 6.29815 3.65165 7.58632 2.92108 9.11112C2.19051 10.6359 1.90424 12.3357 2.09506 14.0157C2.28588 15.6956 2.94608 17.2879 4.00002 18.61L2.29002 20.29C2.15126 20.4306 2.05726 20.6092 2.01989 20.8032C1.98252 20.9972 2.00344 21.1979 2.08002 21.38C2.15504 21.5626 2.28244 21.7189 2.44616 21.8293C2.60988 21.9396 2.80259 21.999 3.00002 22H11C13.1915 22.0003 15.3077 21.201 16.9518 19.7521C18.5959 18.3031 19.6549 16.3041 19.93 14.13C19.9483 13.9993 19.9405 13.8662 19.9071 13.7385C19.8737 13.6107 19.8154 13.4909 19.7354 13.3858C19.6555 13.2808 19.5555 13.1926 19.4413 13.1264C19.3271 13.0602 19.2009 13.0172 19.07 13ZM17.38 10.07C17.198 9.98945 16.996 9.96508 16.8 10L16.62 10.06L16.44 10.15L16.29 10.28C16.2001 10.3721 16.1288 10.4808 16.08 10.6C16.0209 10.7247 15.9934 10.8621 16 11C15.9971 11.1334 16.0209 11.266 16.07 11.39C16.1217 11.51 16.1965 11.6187 16.29 11.71C16.3835 11.8027 16.4943 11.876 16.6161 11.9258C16.7379 11.9755 16.8684 12.0008 17 12C17.2652 12 17.5196 11.8946 17.7071 11.7071C17.8947 11.5196 18 11.2652 18 11C18.0034 10.8688 17.976 10.7387 17.92 10.62C17.8126 10.3797 17.6203 10.1875 17.38 10.08V10.07Z" fill="black"></path>
  </symbol>
  <symbol fill="none" xmlns="http://www.w3.org/2000/svg" viewBox="0 0 68 68" id="dollar-coin">
    <path d="M31 25H43C43.7957 25 44.5587 24.6839 45.1213 24.1213C45.6839 23.5587 46 22.7957 46 22C46 21.2044 45.6839 20.4413 45.1213 19.8787C44.5587 19.3161 43.7957 19 43 19H37V16C37 15.2044 36.6839 14.4413 36.1213 13.8787C35.5587 13.3161 34.7957 13 34 13C33.2044 13 32.4413 13.3161 31.8787 13.8787C31.3161 14.4413 31 15.2044 31 16V19C28.6131 19 26.3239 19.9482 24.6361 21.636C22.9482 23.3239 22 25.6131 22 28C22 30.387 22.9482 32.6761 24.6361 34.364C26.3239 36.0518 28.6131 37 31 37H37C37.7957 37 38.5587 37.3161 39.1213 37.8787C39.6839 38.4413 40 39.2044 40 40C40 40.7957 39.6839 41.5587 39.1213 42.1213C38.5587 42.6839 37.7957 43 37 43H25C24.2044 43 23.4413 43.3161 22.8787 43.8787C22.3161 44.4413 22 45.2044 22 46C22 46.7957 22.3161 47.5587 22.8787 48.1213C23.4413 48.6839 24.2044 49 25 49H31V52C31 52.7957 31.3161 53.5587 31.8787 54.1213C32.4413 54.6839 33.2044 55 34 55C34.7957 55 35.5587 54.6839 36.1213 54.1213C36.6839 53.5587 37 52.7957 37 52V49C39.387 49 41.6761 48.0518 43.364 46.364C45.0518 44.6761 46 42.387 46 40C46 37.6131 45.0518 35.3239 43.364 33.636C41.6761 31.9482 39.387 31 37 31H31C30.2044 31 29.4413 30.6839 28.8787 30.1213C28.3161 29.5587 28 28.7957 28 28C28 27.2044 28.3161 26.4413 28.8787 25.8787C29.4413 25.3161 30.2044 25 31 25V25ZM34 1C27.4732 1 21.093 2.93542 15.6662 6.5615C10.2394 10.1876 6.00968 15.3415 3.51199 21.3714C1.0143 27.4014 0.360788 34.0366 1.6341 40.438C2.90741 46.8394 6.05036 52.7194 10.6655 57.3345C15.2806 61.9497 21.1607 65.0926 27.562 66.3659C33.9634 67.6392 40.5986 66.9857 46.6286 64.488C52.6585 61.9903 57.8124 57.7606 61.4385 52.3338C65.0646 46.907 67 40.5268 67 34C67 25.2479 63.5232 16.8542 57.3345 10.6655C51.1458 4.47678 42.7522 1 34 1V1ZM34 61C28.6599 61 23.4397 59.4165 18.9996 56.4497C14.5595 53.4829 11.0988 49.2661 9.05527 44.3325C7.0117 39.3989 6.47701 33.9701 7.51881 28.7326C8.56061 23.4951 11.1321 18.6841 14.9081 14.9081C18.6841 11.1321 23.4951 8.5606 28.7326 7.5188C33.9701 6.477 39.3989 7.01169 44.3325 9.05525C49.2661 11.0988 53.4829 14.5595 56.4497 18.9996C59.4165 23.4397 61 28.6599 61 34C61 41.1608 58.1554 48.0284 53.0919 53.0919C48.0284 58.1554 41.1609 61 34 61V61Z" fill="black" stroke="black"></path>
  </symbol>
  <symbol fill="none" xmlns="http://www.w3.org/2000/svg" viewBox="0 0 32 32" id="facebook">
    <path d="M24 2.6665H20C18.2319 2.6665 16.5362 3.36888 15.286 4.61913C14.0358 5.86937 13.3334 7.56506 13.3334 9.33317V13.3332H9.33337V18.6665H13.3334V29.3332H18.6667V18.6665H22.6667L24 13.3332H18.6667V9.33317C18.6667 8.97955 18.8072 8.64041 19.0572 8.39036C19.3073 8.14031 19.6464 7.99984 20 7.99984H24V2.6665Z" stroke="white" stroke-width="2" stroke-linecap="round" stroke-linejoin="round"></path>
  </symbol>
  <symbol fill="none" xmlns="http://www.w3.org/2000/svg" viewBox="0 0 24 24" id="globe">
    <path d="M12 22C17.5228 22 22 17.5228 22 12C22 6.47715 17.5228 2 12 2C6.47715 2 2 6.47715 2 12C2 17.5228 6.47715 22 12 22Z" stroke="#808080" stroke-width="2" stroke-linecap="round" stroke-linejoin="round"></path>
    <path d="M2 12H22" stroke="#808080" stroke-width="2" stroke-linecap="round" stroke-linejoin="round"></path>
    <path d="M12 2C14.5013 4.73835 15.9228 8.29203 16 12C15.9228 15.708 14.5013 19.2616 12 22C9.49872 19.2616 8.07725 15.708 8 12C8.07725 8.29203 9.49872 4.73835 12 2V2Z" stroke="#808080" stroke-width="2" stroke-linecap="round" stroke-linejoin="round"></path>
  </symbol>
  <symbol xmlns="http://www.w3.org/2000/svg" clip-rule="evenodd" baseProfile="basic" viewBox="0 0 48 48" id="google-play">
    <linearGradient id="jFdG-76_seIEvf-hbjSsaa" x1="1688.489" x2="1685.469" y1="-883.003" y2="-881.443" gradientTransform="matrix(11.64 0 0 22.55 -19615.32 19904.924)" gradientUnits="userSpaceOnUse">
      <stop offset="0" stop-color="#047ed6"></stop>
      <stop offset="1" stop-color="#50e6ff"></stop>
    </linearGradient>
    <path fill="url(#jFdG-76_seIEvf-hbjSsaa)" fill-rule="evenodd" d="M7.809,4.608c-0.45,0.483-0.708,1.227-0.708,2.194	v34.384c0,0.967,0.258,1.711,0.725,2.177l0.122,0.103L27.214,24.2v-0.433L7.931,4.505L7.809,4.608z" clip-rule="evenodd"></path>
    <linearGradient id="jFdG-76_seIEvf-hbjSsab" x1="1645.286" x2="1642.929" y1="-897.055" y2="-897.055" gradientTransform="matrix(9.145 0 0 7.7 -15001.938 6931.316)" gradientUnits="userSpaceOnUse">
      <stop offset="0" stop-color="#ffda1c"></stop>
      <stop offset="1" stop-color="#feb705"></stop>
    </linearGradient>
    <path fill="url(#jFdG-76_seIEvf-hbjSsab)" fill-rule="evenodd" d="M33.623,30.647l-6.426-6.428v-0.45l6.428-6.428	l0.139,0.086l7.603,4.321c2.177,1.227,2.177,3.249,0,4.493l-7.603,4.321C33.762,30.561,33.623,30.647,33.623,30.647z" clip-rule="evenodd"></path>
    <linearGradient id="jFdG-76_seIEvf-hbjSsac" x1="1722.978" x2="1720.622" y1="-889.412" y2="-886.355" gradientTransform="matrix(15.02 0 0 11.5775 -25848.943 10324.73)" gradientUnits="userSpaceOnUse">
      <stop offset="0" stop-color="#d9414f"></stop>
      <stop offset="1" stop-color="#8c193f"></stop>
    </linearGradient>
    <path fill="url(#jFdG-76_seIEvf-hbjSsac)" fill-rule="evenodd" d="M33.762,30.561l-6.565-6.567L7.809,43.382	c0.708,0.761,1.9,0.847,3.232,0.103L33.762,30.561" clip-rule="evenodd"></path>
    <linearGradient id="jFdG-76_seIEvf-hbjSsad" x1="1721.163" x2="1722.215" y1="-891.39" y2="-890.024" gradientTransform="matrix(15.02 0 0 11.5715 -25848.943 10307.886)" gradientUnits="userSpaceOnUse">
      <stop offset="0" stop-color="#33c481"></stop>
      <stop offset="1" stop-color="#61e3a7"></stop>
    </linearGradient>
    <path fill="url(#jFdG-76_seIEvf-hbjSsad)" fill-rule="evenodd" d="M33.762,17.429L11.041,4.522	c-1.33-0.761-2.524-0.658-3.232,0.103l19.386,19.369L33.762,17.429z" clip-rule="evenodd"></path>
  </symbol>
  <symbol fill="none" xmlns="http://www.w3.org/2000/svg" viewBox="0 0 30 26" id="group">
    <path d="M19.4269 6.5C19.4269 9.07711 17.5485 11 15.4269 11C13.3053 11 11.4269 9.07711 11.4269 6.5C11.4269 3.92289 13.3053 2 15.4269 2C17.5485 2 19.4269 3.92289 19.4269 6.5Z" stroke="#222222" stroke-width="2" stroke-linecap="round"></path>
    <path d="M17.9385 3.78995C18.3208 3.19385 18.9018 2.69735 19.6211 2.37809C20.3409 2.05864 21.1565 1.93613 21.9618 2.03155C22.7671 2.12697 23.5117 2.43418 24.1041 2.90168C24.6954 3.36843 25.1043 3.96984 25.2981 4.62066C25.4914 5.26988 25.4669 5.95441 25.2259 6.59357C24.9841 7.23453 24.5299 7.8139 23.9024 8.24724C23.2741 8.68114 22.5062 8.94425 21.695 8.9921C20.8838 9.03995 20.0802 8.86946 19.388 8.50976" stroke="#222222" stroke-width="2"></path>
    <path d="M11.0013 3.70658C10.6898 3.09956 10.2352 2.62941 9.7109 2.33851C9.18874 2.04882 8.61279 1.94454 8.05129 2.02771C7.48866 2.11104 6.94414 2.38232 6.49182 2.82858C6.03819 3.27613 5.69994 3.87856 5.53596 4.56701C5.37197 5.25556 5.39346 5.98463 5.59653 6.6576C5.79954 7.33041 6.17032 7.90311 6.64528 8.31312C7.11867 8.72177 7.67407 8.95143 8.2388 8.99307C8.80296 9.03467 9.37393 8.8886 9.88218 8.55849" stroke="#222222" stroke-width="2"></path>
    <path d="M14.9269 13C22.6631 13 24.0994 20.2947 24.3661 23.0033C24.4202 23.5529 23.9792 24 23.4269 24H6.42688C5.87459 24 5.43356 23.5529 5.48767 23.0033C5.75434 20.2947 7.19063 13 14.9269 13Z" stroke="#222222" stroke-width="2" stroke-linecap="round"></path>
    <path d="M27.9647 20.0435L26.9839 20.2386V20.2386L27.9647 20.0435ZM16.8971 14.2717L16.1586 13.5974L14.9177 14.9565L16.7332 15.2582L16.8971 14.2717ZM24.0747 21.1335L23.1141 21.4114L23.323 22.1335H24.0747V21.1335ZM21.1271 13.368C23.0723 13.368 24.3891 14.4242 25.3252 15.8688C26.2772 17.3382 26.7599 19.1129 26.9839 20.2386L28.9455 19.8483C28.7022 18.6256 28.1577 16.5625 27.0036 14.7813C25.8335 12.9753 23.9652 11.368 21.1271 11.368V13.368ZM17.6356 14.946C18.4936 14.0063 19.6085 13.368 21.1271 13.368V11.368C18.9527 11.368 17.3273 12.3175 16.1586 13.5974L17.6356 14.946ZM16.7332 15.2582C20.6984 15.9171 22.3802 18.8748 23.1141 21.4114L25.0353 20.8556C24.2033 17.9798 22.1251 14.1268 17.061 13.2852L16.7332 15.2582ZM27.0344 20.1335H24.0747V22.1335H27.0344V20.1335ZM26.9839 20.2386C26.9823 20.2306 26.9815 20.2137 26.987 20.1934C26.9922 20.1746 27.0007 20.1607 27.0085 20.1517C27.0242 20.1336 27.0381 20.1335 27.0344 20.1335V22.1335C28.2012 22.1335 29.1946 21.1004 28.9455 19.8483L26.9839 20.2386Z" fill="#222222"></path>
    <path d="M13.0857 14.2717L13.2496 15.2582L15.065 14.9565L13.8242 13.5974L13.0857 14.2717ZM2.01803 20.0435L1.03726 19.8483L2.01803 20.0435ZM5.90812 21.1335V22.1335H6.65982L6.86873 21.4114L5.90812 21.1335ZM8.85566 13.368C10.3742 13.368 11.4892 14.0063 12.3472 14.946L13.8242 13.5974C12.6555 12.3175 11.0301 11.368 8.85566 11.368V13.368ZM2.9988 20.2386C3.22279 19.1129 3.70551 17.3382 4.65759 15.8688C5.59362 14.4242 6.91051 13.368 8.85566 13.368V11.368C6.01756 11.368 4.14928 12.9753 2.97912 14.7813C1.82502 16.5625 1.28055 18.6256 1.03726 19.8483L2.9988 20.2386ZM2.94829 20.1335C2.94466 20.1335 2.95854 20.1336 2.97419 20.1517C2.98198 20.1607 2.99052 20.1746 2.99569 20.1934C3.00125 20.2137 3.0004 20.2306 2.9988 20.2386L1.03726 19.8483C0.788134 21.1004 1.78155 22.1335 2.94829 22.1335V20.1335ZM5.90812 20.1335H2.94829V22.1335H5.90812V20.1335ZM6.86873 21.4114C7.60258 18.8749 9.28442 15.9171 13.2496 15.2582L12.9217 13.2852C7.85773 14.1268 5.77949 17.9798 4.94752 20.8556L6.86873 21.4114Z" fill="#222222"></path>
  </symbol>
  <symbol fill="none" xmlns="http://www.w3.org/2000/svg" viewBox="0 0 70 63" id="heart">
    <path d="M61.52 8.83011C59.9877 7.29712 58.1684 6.08104 56.1661 5.25136C54.1637 4.42167 52.0175 3.99463 49.85 3.99463C47.6825 3.99463 45.5363 4.42167 43.5339 5.25136C41.5315 6.08104 39.7123 7.29712 38.18 8.83011L35 12.0101L31.82 8.83011C28.7249 5.73503 24.5271 3.99623 20.15 3.99623C15.7729 3.99623 11.5751 5.73503 8.47999 8.83011C5.38491 11.9252 3.64612 16.123 3.64612 20.5001C3.64612 24.8772 5.38491 29.075 8.47999 32.1701L11.66 35.3501L35 58.6901L58.34 35.3501L61.52 32.1701C63.053 30.6378 64.269 28.8185 65.0987 26.8162C65.9284 24.8138 66.3555 22.6676 66.3555 20.5001C66.3555 18.3326 65.9284 16.1864 65.0987 14.184C64.269 12.1817 63.053 10.3624 61.52 8.83011V8.83011Z" stroke="black" stroke-width="7" stroke-linecap="round" stroke-linejoin="round"></path>
  </symbol>
  <symbol fill="none" xmlns="http://www.w3.org/2000/svg" viewBox="0 0 40 40" id="home">
    <path d="M9.16663 16.6667V30.5C9.16663 31.4428 9.16663 31.9142 9.45952 32.2071C9.75241 32.5 10.2238 32.5 11.1666 32.5H28.8333C29.7761 32.5 30.2475 32.5 30.5404 32.2071C30.8333 31.9142 30.8333 31.4428 30.8333 30.5V16.6667" stroke="#101010" stroke-width="3"></path>
    <path d="M9.16663 16.6667V30.5C9.16663 31.4428 9.16663 31.9142 9.45952 32.2071C9.75241 32.5 10.2238 32.5 11.1666 32.5H28.8333C29.7761 32.5 30.2475 32.5 30.5404 32.2071C30.8333 31.9142 30.8333 31.4428 30.8333 30.5V16.6667" stroke="black" stroke-opacity="0.2" stroke-width="3"></path>
    <path d="M34.1667 19.1667L20.5767 9.57376C20.231 9.32972 19.7691 9.32971 19.4234 9.57376L5.83337 19.1667" stroke="#101010" stroke-width="3" stroke-linecap="round"></path>
    <path d="M34.1667 19.1667L20.5767 9.57376C20.231 9.32972 19.7691 9.32971 19.4234 9.57376L5.83337 19.1667" stroke="black" stroke-opacity="0.2" stroke-width="3" stroke-linecap="round"></path>
    <path d="M24.1666 31.6667V23.6667C24.1666 22.5621 23.2712 21.6667 22.1666 21.6667H17.8333C16.7287 21.6667 15.8333 22.5621 15.8333 23.6667V31.6667" stroke="#101010" stroke-width="3" stroke-linejoin="round"></path>
    <path d="M24.1666 31.6667V23.6667C24.1666 22.5621 23.2712 21.6667 22.1666 21.6667H17.8333C16.7287 21.6667 15.8333 22.5621 15.8333 23.6667V31.6667" stroke="black" stroke-opacity="0.2" stroke-width="3" stroke-linejoin="round"></path>
    <path d="M29.1667 15V9.16669" stroke="#101010" stroke-width="3" stroke-linecap="round"></path>
    <path d="M29.1667 15V9.16669" stroke="black" stroke-opacity="0.2" stroke-width="3" stroke-linecap="round"></path>
  </symbol>
  <symbol fill="none" xmlns="http://www.w3.org/2000/svg" viewBox="0 0 32 32" id="instagram">
    <path d="M23.12 7.27984C22.8035 7.27984 22.4942 7.37368 22.231 7.54949C21.9679 7.7253 21.7629 7.97518 21.6418 8.26754C21.5207 8.55991 21.489 8.88161 21.5507 9.19198C21.6124 9.50235 21.7648 9.78744 21.9886 10.0112C22.2124 10.235 22.4974 10.3874 22.8078 10.4491C23.1182 10.5108 23.4399 10.4791 23.7323 10.358C24.0246 10.2369 24.2745 10.0319 24.4503 9.76875C24.6261 9.50563 24.72 9.19629 24.72 8.87984C24.72 8.45549 24.5514 8.04852 24.2513 7.74847C23.9513 7.44841 23.5443 7.27984 23.12 7.27984ZM29.2533 10.5065C29.2274 9.40024 29.0202 8.30571 28.64 7.2665C28.3009 6.37735 27.7733 5.57221 27.0933 4.9065C26.4331 4.22307 25.626 3.69874 24.7333 3.37317C23.6968 2.98138 22.6011 2.76945 21.4933 2.7465C20.08 2.6665 19.6266 2.6665 16 2.6665C12.3733 2.6665 11.92 2.6665 10.5066 2.7465C9.39883 2.76945 8.30308 2.98138 7.26663 3.37317C6.37553 3.70204 5.5692 4.22592 4.90663 4.9065C4.22319 5.56674 3.69886 6.37376 3.37329 7.2665C2.98151 8.30296 2.76957 9.39871 2.74663 10.5065C2.66663 11.9198 2.66663 12.3732 2.66663 15.9998C2.66663 19.6265 2.66663 20.0798 2.74663 21.4932C2.76957 22.601 2.98151 23.6967 3.37329 24.7332C3.69886 25.6259 4.22319 26.4329 4.90663 27.0932C5.5692 27.7738 6.37553 28.2976 7.26663 28.6265C8.30308 29.0183 9.39883 29.2302 10.5066 29.2532C11.92 29.3332 12.3733 29.3332 16 29.3332C19.6266 29.3332 20.08 29.3332 21.4933 29.2532C22.6011 29.2302 23.6968 29.0183 24.7333 28.6265C25.626 28.3009 26.4331 27.7766 27.0933 27.0932C27.7763 26.4299 28.3044 25.6241 28.64 24.7332C29.0202 23.694 29.2274 22.5994 29.2533 21.4932C29.2533 20.0798 29.3333 19.6265 29.3333 15.9998C29.3333 12.3732 29.3333 11.9198 29.2533 10.5065ZM26.8533 21.3332C26.8436 22.1795 26.6903 23.0181 26.4 23.8132C26.1871 24.3934 25.8451 24.9177 25.4 25.3465C24.9675 25.7872 24.4443 26.1284 23.8666 26.3465C23.0716 26.6368 22.233 26.7901 21.3866 26.7998C20.0533 26.8665 19.56 26.8798 16.0533 26.8798C12.5466 26.8798 12.0533 26.8798 10.72 26.7998C9.84115 26.8163 8.96609 26.681 8.13329 26.3998C7.581 26.1706 7.08177 25.8302 6.66663 25.3998C6.22408 24.9715 5.88642 24.4468 5.67996 23.8665C5.35443 23.06 5.17388 22.2024 5.14663 21.3332C5.14663 19.9998 5.06663 19.5065 5.06663 15.9998C5.06663 12.4932 5.06663 11.9998 5.14663 10.6665C5.1526 9.80124 5.31056 8.94376 5.61329 8.13317C5.84802 7.57039 6.20831 7.06872 6.66663 6.6665C7.07171 6.20806 7.57234 5.84397 8.13329 5.59984C8.94603 5.30656 9.80262 5.15328 10.6666 5.1465C12 5.1465 12.4933 5.0665 16 5.0665C19.5066 5.0665 20 5.0665 21.3333 5.1465C22.1797 5.15621 23.0182 5.3095 23.8133 5.59984C24.4192 5.82471 24.963 6.1903 25.4 6.6665C25.8369 7.07608 26.1783 7.57681 26.4 8.13317C26.6963 8.94508 26.8497 9.80221 26.8533 10.6665C26.92 11.9998 26.9333 12.4932 26.9333 15.9998C26.9333 19.5065 26.92 19.9998 26.8533 21.3332ZM16 9.15984C14.6477 9.16247 13.3266 9.56587 12.2035 10.3191C11.0804 11.0723 10.2058 12.1414 9.69014 13.3915C9.17448 14.6416 9.04093 16.0165 9.30635 17.3424C9.57178 18.6684 10.2243 19.8859 11.1814 20.8411C12.1385 21.7964 13.3573 22.4465 14.6838 22.7094C16.0102 22.9722 17.3848 22.836 18.6339 22.3179C19.883 21.7998 20.9505 20.9231 21.7015 19.7985C22.4525 18.674 22.8533 17.3521 22.8533 15.9998C22.8551 15.1 22.6789 14.2086 22.3349 13.3771C21.991 12.5456 21.486 11.7903 20.8491 11.1546C20.2122 10.5189 19.4559 10.0154 18.6237 9.67308C17.7915 9.33074 16.8998 9.15632 16 9.15984ZM16 20.4398C15.1218 20.4398 14.2634 20.1794 13.5332 19.6916C12.8031 19.2037 12.234 18.5103 11.8979 17.699C11.5619 16.8876 11.474 15.9949 11.6453 15.1336C11.8166 14.2724 12.2395 13.4812 12.8604 12.8603C13.4814 12.2393 14.2725 11.8165 15.1338 11.6452C15.995 11.4738 16.8878 11.5618 17.6991 11.8978C18.5104 12.2339 19.2038 12.803 19.6917 13.5331C20.1796 14.2633 20.44 15.1217 20.44 15.9998C20.44 16.5829 20.3251 17.1603 20.102 17.699C19.8789 18.2376 19.5518 18.7271 19.1395 19.1394C18.7272 19.5517 18.2378 19.8787 17.6991 20.1019C17.1604 20.325 16.583 20.4398 16 20.4398Z" fill="white"></path>
  </symbol>
  <symbol fill="none" xmlns="http://www.w3.org/2000/svg" viewBox="0 0 41 32" id="logo">
    <path d="M40.997 9.94008L39.4786 14.6243H18.2209L16.7025 9.94008H40.997ZM25.8129 0L32.2647 4.55522V24.5333C32.2647 25.1071 32.3314 25.5542 32.4649 25.8745C32.5983 26.1814 32.8252 26.4016 33.1455 26.5351C33.4791 26.6552 33.9195 26.7152 34.4667 26.7152C34.8537 26.7152 35.174 26.7086 35.4275 26.6952C35.6811 26.6685 39.2517 26.6122 39.4786 26.5721L36.1482 31.4195C35.5743 31.6063 34.9738 31.7464 34.3466 31.8399C33.7193 31.9466 33.0521 32 32.3448 32C30.9035 32 29.669 31.7731 28.6414 31.3194C27.6272 30.8656 26.8531 30.1517 26.3193 29.1775C25.7855 28.2032 25.5186 26.9354 25.5186 25.374L25.8129 0Z" fill="#101010"></path>
    <path d="M40.997 9.94008L39.4786 14.6243H18.2209L16.7025 9.94008H40.997ZM25.8129 0L32.2647 4.55522V24.5333C32.2647 25.1071 32.3314 25.5542 32.4649 25.8745C32.5983 26.1814 32.8252 26.4016 33.1455 26.5351C33.4791 26.6552 33.9195 26.7152 34.4667 26.7152C34.8537 26.7152 35.174 26.7086 35.4275 26.6952C35.6811 26.6685 39.2517 26.6122 39.4786 26.5721L36.1482 31.4195C35.5743 31.6063 34.9738 31.7464 34.3466 31.8399C33.7193 31.9466 33.0521 32 32.3448 32C30.9035 32 29.669 31.7731 28.6414 31.3194C27.6272 30.8656 26.8531 30.1517 26.3193 29.1775C25.7855 28.2032 25.5186 26.9354 25.5186 25.374L25.8129 0Z" fill="black" fill-opacity="0.2"></path>
    <path d="M16.5228 0V31.8866H9.07801V0H16.5228ZM25.8129 0V5.93493H0V0H25.8129Z" fill="#101010"></path>
    <path d="M16.5228 0V31.8866H9.07801V0H16.5228ZM25.8129 0V5.93493H0V0H25.8129Z" fill="black" fill-opacity="0.2"></path>
  </symbol>
  <symbol fill="none" xmlns="http://www.w3.org/2000/svg" viewBox="0 0 88 55" id="logo-slogan">
    <path d="M64.997 9.94008L63.4786 14.6243H42.2209L40.7025 9.94008H64.997ZM49.8129 0L56.2647 4.55522V24.5333C56.2647 25.1071 56.3314 25.5542 56.4649 25.8745C56.5983 26.1814 56.8252 26.4016 57.1455 26.5351C57.4791 26.6552 57.9195 26.7152 58.4667 26.7152C58.8537 26.7152 59.174 26.7086 59.4275 26.6952C59.6811 26.6685 63.2517 26.6122 63.4786 26.5721L60.1482 31.4195C59.5743 31.6063 58.9738 31.7464 58.3466 31.8399C57.7193 31.9466 57.0521 32 56.3448 32C54.9035 32 53.669 31.7731 52.6414 31.3194C51.6272 30.8656 50.8531 30.1517 50.3193 29.1775C49.7855 28.2032 49.5186 26.9354 49.5186 25.374L49.8129 0Z" fill="#101010"></path>
    <path d="M64.997 9.94008L63.4786 14.6243H42.2209L40.7025 9.94008H64.997ZM49.8129 0L56.2647 4.55522V24.5333C56.2647 25.1071 56.3314 25.5542 56.4649 25.8745C56.5983 26.1814 56.8252 26.4016 57.1455 26.5351C57.4791 26.6552 57.9195 26.7152 58.4667 26.7152C58.8537 26.7152 59.174 26.7086 59.4275 26.6952C59.6811 26.6685 63.2517 26.6122 63.4786 26.5721L60.1482 31.4195C59.5743 31.6063 58.9738 31.7464 58.3466 31.8399C57.7193 31.9466 57.0521 32 56.3448 32C54.9035 32 53.669 31.7731 52.6414 31.3194C51.6272 30.8656 50.8531 30.1517 50.3193 29.1775C49.7855 28.2032 49.5186 26.9354 49.5186 25.374L49.8129 0Z" fill="black" fill-opacity="0.2"></path>
    <path d="M40.5228 0V31.8866H33.078V0H40.5228ZM49.8129 0V5.93493H24V0H49.8129Z" fill="#101010"></path>
    <path d="M40.5228 0V31.8866H33.078V0H40.5228ZM49.8129 0V5.93493H24V0H49.8129Z" fill="black" fill-opacity="0.2"></path>
    <path d="M4.57617 41.4688V50H2.82422V41.4688H4.57617ZM7.20117 41.4688V42.8457H0.240234V41.4688H7.20117ZM9.615 45.043V50H7.9275V43.6602H9.51539L9.615 45.043ZM11.5252 43.6191L11.4959 45.1836C11.4138 45.1719 11.3142 45.1621 11.197 45.1543C11.0837 45.1426 10.9802 45.1367 10.8865 45.1367C10.6482 45.1367 10.4412 45.168 10.2654 45.2305C10.0935 45.2891 9.94898 45.377 9.8318 45.4941C9.71852 45.6113 9.63258 45.7539 9.57398 45.9219C9.5193 46.0898 9.48805 46.2812 9.48023 46.4961L9.14039 46.3906C9.14039 45.9805 9.18141 45.6035 9.26344 45.2598C9.34547 44.9121 9.46461 44.6094 9.62086 44.3516C9.78102 44.0938 9.97633 43.8945 10.2068 43.7539C10.4373 43.6133 10.7009 43.543 10.9978 43.543C11.0916 43.543 11.1873 43.5508 11.2849 43.5664C11.3826 43.5781 11.4627 43.5957 11.5252 43.6191ZM15.7847 48.5703V45.7461C15.7847 45.543 15.7515 45.3691 15.6851 45.2246C15.6187 45.0762 15.5152 44.9609 15.3745 44.8789C15.2378 44.7969 15.0601 44.7559 14.8413 44.7559C14.6538 44.7559 14.4917 44.7891 14.355 44.8555C14.2183 44.918 14.1128 45.0098 14.0386 45.1309C13.9644 45.248 13.9273 45.3867 13.9273 45.5469H12.2398C12.2398 45.2773 12.3023 45.0215 12.4273 44.7793C12.5523 44.5371 12.7339 44.3242 12.9722 44.1406C13.2105 43.9531 13.4937 43.8066 13.8218 43.7012C14.1538 43.5957 14.5249 43.543 14.9351 43.543C15.4273 43.543 15.8648 43.625 16.2476 43.7891C16.6304 43.9531 16.9312 44.1992 17.1499 44.5273C17.3726 44.8555 17.4839 45.2656 17.4839 45.7578V48.4707C17.4839 48.8184 17.5054 49.1035 17.5484 49.3262C17.5913 49.5449 17.6538 49.7363 17.7359 49.9004V50H16.0308C15.9487 49.8281 15.8862 49.6133 15.8433 49.3555C15.8042 49.0938 15.7847 48.832 15.7847 48.5703ZM16.0073 46.1387L16.0191 47.0938H15.0757C14.853 47.0938 14.6597 47.1191 14.4956 47.1699C14.3316 47.2207 14.1968 47.293 14.0913 47.3867C13.9859 47.4766 13.9077 47.582 13.857 47.7031C13.8101 47.8242 13.7866 47.957 13.7866 48.1016C13.7866 48.2461 13.8198 48.377 13.8862 48.4941C13.9527 48.6074 14.0484 48.6973 14.1734 48.7637C14.2984 48.8262 14.4448 48.8574 14.6128 48.8574C14.8667 48.8574 15.0874 48.8066 15.2749 48.7051C15.4624 48.6035 15.607 48.4785 15.7085 48.3301C15.814 48.1816 15.8687 48.041 15.8726 47.9082L16.3179 48.623C16.2554 48.7832 16.1695 48.9492 16.0601 49.1211C15.9546 49.293 15.8198 49.4551 15.6558 49.6074C15.4917 49.7559 15.2945 49.8789 15.064 49.9766C14.8335 50.0703 14.5601 50.1172 14.2437 50.1172C13.8413 50.1172 13.4761 50.0371 13.148 49.877C12.8237 49.7129 12.5659 49.4883 12.3745 49.2031C12.187 48.9141 12.0933 48.5859 12.0933 48.2188C12.0933 47.8867 12.1558 47.5918 12.2808 47.334C12.4058 47.0762 12.5894 46.8594 12.8316 46.6836C13.0777 46.5039 13.3843 46.3691 13.7515 46.2793C14.1187 46.1855 14.5445 46.1387 15.0288 46.1387H16.0073ZM21.0872 48.7695L22.4934 43.6602H24.2571L22.1184 50H21.052L21.0872 48.7695ZM20.1204 43.6602L21.5325 48.7754L21.5618 50H20.4895L18.3509 43.6602H20.1204ZM28.0889 50.1172C27.5967 50.1172 27.1553 50.0391 26.7647 49.8828C26.3741 49.7227 26.042 49.502 25.7686 49.2207C25.4991 48.9395 25.292 48.6133 25.1475 48.2422C25.003 47.8672 24.9307 47.4688 24.9307 47.0469V46.8125C24.9307 46.332 24.9991 45.8926 25.1358 45.4941C25.2725 45.0957 25.4678 44.75 25.7217 44.457C25.9795 44.1641 26.292 43.9395 26.6592 43.7832C27.0264 43.623 27.4405 43.543 27.9014 43.543C28.3506 43.543 28.7491 43.6172 29.0967 43.7656C29.4444 43.9141 29.7354 44.125 29.9698 44.3984C30.208 44.6719 30.3877 45 30.5088 45.3828C30.6299 45.7617 30.6905 46.1836 30.6905 46.6484V47.3516H25.6514V46.2266H29.0323V46.0977C29.0323 45.8633 28.9893 45.6543 28.9034 45.4707C28.8213 45.2832 28.6963 45.1348 28.5284 45.0254C28.3604 44.916 28.1455 44.8613 27.8838 44.8613C27.6612 44.8613 27.4698 44.9102 27.3096 45.0078C27.1495 45.1055 27.0186 45.2422 26.917 45.418C26.8194 45.5938 26.7452 45.8008 26.6944 46.0391C26.6475 46.2734 26.6241 46.5312 26.6241 46.8125V47.0469C26.6241 47.3008 26.6592 47.5352 26.7295 47.75C26.8037 47.9648 26.9073 48.1504 27.0401 48.3066C27.1768 48.4629 27.3409 48.584 27.5323 48.6699C27.7276 48.7559 27.9483 48.7988 28.1944 48.7988C28.4991 48.7988 28.7823 48.7402 29.044 48.623C29.3096 48.502 29.5381 48.3203 29.7295 48.0781L30.5498 48.9688C30.417 49.1602 30.2354 49.3438 30.0049 49.5195C29.7784 49.6953 29.5049 49.8398 29.1846 49.9531C28.8643 50.0625 28.4991 50.1172 28.0889 50.1172ZM33.6727 41V50H31.9793V41H33.6727ZM42.139 41.4688V50H40.387V41.4688H42.139ZM44.764 41.4688V42.8457H37.803V41.4688H44.764ZM44.6114 46.8945V46.7715C44.6114 46.3066 44.6778 45.8789 44.8106 45.4883C44.9434 45.0938 45.1368 44.752 45.3907 44.4629C45.6446 44.1738 45.9571 43.9492 46.3282 43.7891C46.6993 43.625 47.1251 43.543 47.6055 43.543C48.086 43.543 48.5137 43.625 48.8887 43.7891C49.2637 43.9492 49.5782 44.1738 49.8321 44.4629C50.0899 44.752 50.2852 45.0938 50.418 45.4883C50.5509 45.8789 50.6173 46.3066 50.6173 46.7715V46.8945C50.6173 47.3555 50.5509 47.7832 50.418 48.1777C50.2852 48.5684 50.0899 48.9102 49.8321 49.2031C49.5782 49.4922 49.2657 49.7168 48.8946 49.877C48.5235 50.0371 48.0977 50.1172 47.6173 50.1172C47.1368 50.1172 46.7091 50.0371 46.3341 49.877C45.963 49.7168 45.6485 49.4922 45.3907 49.2031C45.1368 48.9102 44.9434 48.5684 44.8106 48.1777C44.6778 47.7832 44.6114 47.3555 44.6114 46.8945ZM46.2989 46.7715V46.8945C46.2989 47.1602 46.3223 47.4082 46.3692 47.6387C46.4161 47.8691 46.4903 48.0723 46.5919 48.248C46.6973 48.4199 46.8341 48.5547 47.002 48.6523C47.17 48.75 47.3751 48.7988 47.6173 48.7988C47.8516 48.7988 48.0528 48.75 48.2208 48.6523C48.3887 48.5547 48.5235 48.4199 48.6251 48.248C48.7266 48.0723 48.8009 47.8691 48.8477 47.6387C48.8985 47.4082 48.9239 47.1602 48.9239 46.8945V46.7715C48.9239 46.5137 48.8985 46.2715 48.8477 46.0449C48.8009 45.8145 48.7247 45.6113 48.6192 45.4355C48.5177 45.2559 48.3829 45.1152 48.2149 45.0137C48.047 44.9121 47.8438 44.8613 47.6055 44.8613C47.3673 44.8613 47.1641 44.9121 46.9962 45.0137C46.8321 45.1152 46.6973 45.2559 46.5919 45.4355C46.4903 45.6113 46.4161 45.8145 46.3692 46.0449C46.3223 46.2715 46.2989 46.5137 46.2989 46.7715ZM55.908 43.6602H57.4373V49.7891C57.4373 50.3672 57.3084 50.8574 57.0506 51.2598C56.7967 51.666 56.4412 51.9727 55.9842 52.1797C55.5272 52.3906 54.9959 52.4961 54.3905 52.4961C54.1248 52.4961 53.8436 52.4609 53.5467 52.3906C53.2537 52.3203 52.9725 52.2109 52.703 52.0625C52.4373 51.9141 52.2147 51.7266 52.035 51.5L52.7791 50.5039C52.9745 50.7305 53.201 50.9062 53.4588 51.0312C53.7166 51.1602 54.0018 51.2246 54.3143 51.2246C54.619 51.2246 54.8768 51.168 55.0877 51.0547C55.2987 50.9453 55.4608 50.7832 55.5741 50.5684C55.6873 50.3574 55.744 50.1016 55.744 49.8008V45.125L55.908 43.6602ZM51.6424 46.9062V46.7832C51.6424 46.2988 51.701 45.8594 51.8182 45.4648C51.9393 45.0664 52.1092 44.7246 52.328 44.4395C52.5506 44.1543 52.8202 43.9336 53.1366 43.7773C53.453 43.6211 53.8104 43.543 54.2088 43.543C54.6307 43.543 54.9842 43.6211 55.2694 43.7773C55.5545 43.9336 55.7889 44.1562 55.9725 44.4453C56.1561 44.7305 56.2987 45.0684 56.4002 45.459C56.5057 45.8457 56.5877 46.2695 56.6463 46.7305V47C56.5877 47.4414 56.4998 47.8516 56.3827 48.2305C56.2655 48.6094 56.1112 48.9414 55.9198 49.2266C55.7284 49.5078 55.4901 49.7266 55.2049 49.8828C54.9237 50.0391 54.5877 50.1172 54.1971 50.1172C53.8065 50.1172 53.453 50.0371 53.1366 49.877C52.8241 49.7168 52.5565 49.4922 52.3338 49.2031C52.1112 48.9141 51.9393 48.5742 51.8182 48.1836C51.701 47.793 51.6424 47.3672 51.6424 46.9062ZM53.3299 46.7832V46.9062C53.3299 47.168 53.3553 47.4121 53.4061 47.6387C53.4569 47.8652 53.535 48.0664 53.6405 48.2422C53.7498 48.4141 53.8846 48.5488 54.0448 48.6465C54.2088 48.7402 54.4022 48.7871 54.6248 48.7871C54.9334 48.7871 55.1854 48.7227 55.3807 48.5938C55.576 48.4609 55.7225 48.2793 55.8202 48.0488C55.9178 47.8184 55.9745 47.5527 55.9901 47.252V46.4844C55.9823 46.2383 55.9491 46.0176 55.8905 45.8223C55.8319 45.623 55.7498 45.4531 55.6444 45.3125C55.5389 45.1719 55.4022 45.0625 55.2342 44.9844C55.0662 44.9062 54.867 44.8672 54.6366 44.8672C54.4139 44.8672 54.2205 44.918 54.0565 45.0195C53.8963 45.1172 53.7616 45.252 53.6522 45.4238C53.5467 45.5957 53.4666 45.7988 53.412 46.0332C53.3573 46.2637 53.3299 46.5137 53.3299 46.7832ZM61.9078 50.1172C61.4156 50.1172 60.9742 50.0391 60.5836 49.8828C60.193 49.7227 59.8609 49.502 59.5875 49.2207C59.318 48.9395 59.1109 48.6133 58.9664 48.2422C58.8219 47.8672 58.7496 47.4688 58.7496 47.0469V46.8125C58.7496 46.332 58.818 45.8926 58.9547 45.4941C59.0914 45.0957 59.2867 44.75 59.5406 44.457C59.7984 44.1641 60.1109 43.9395 60.4781 43.7832C60.8453 43.623 61.2594 43.543 61.7203 43.543C62.1695 43.543 62.568 43.6172 62.9156 43.7656C63.2633 43.9141 63.5543 44.125 63.7887 44.3984C64.027 44.6719 64.2066 45 64.3277 45.3828C64.4488 45.7617 64.5094 46.1836 64.5094 46.6484V47.3516H59.4703V46.2266H62.8512V46.0977C62.8512 45.8633 62.8082 45.6543 62.7223 45.4707C62.6402 45.2832 62.5152 45.1348 62.3473 45.0254C62.1793 44.916 61.9645 44.8613 61.7027 44.8613C61.4801 44.8613 61.2887 44.9102 61.1285 45.0078C60.9684 45.1055 60.8375 45.2422 60.7359 45.418C60.6383 45.5938 60.5641 45.8008 60.5133 46.0391C60.4664 46.2734 60.443 46.5312 60.443 46.8125V47.0469C60.443 47.3008 60.4781 47.5352 60.5484 47.75C60.6227 47.9648 60.7262 48.1504 60.859 48.3066C60.9957 48.4629 61.1598 48.584 61.3512 48.6699C61.5465 48.7559 61.7672 48.7988 62.0133 48.7988C62.318 48.7988 62.6012 48.7402 62.8629 48.623C63.1285 48.502 63.357 48.3203 63.5484 48.0781L64.3688 48.9688C64.2359 49.1602 64.0543 49.3438 63.8238 49.5195C63.5973 49.6953 63.3238 49.8398 63.0035 49.9531C62.6832 50.0625 62.318 50.1172 61.9078 50.1172ZM68.8158 43.6602V44.8555H65.1244V43.6602H68.8158ZM66.0384 42.0957H67.7259V48.0898C67.7259 48.2734 67.7494 48.4141 67.7962 48.5117C67.847 48.6094 67.9212 48.6777 68.0189 48.7168C68.1166 48.752 68.2396 48.7695 68.388 48.7695C68.4935 48.7695 68.5873 48.7656 68.6693 48.7578C68.7552 48.7461 68.8275 48.7344 68.8861 48.7227L68.892 49.9648C68.7474 50.0117 68.5912 50.0488 68.4232 50.0762C68.2552 50.1035 68.0697 50.1172 67.8666 50.1172C67.4955 50.1172 67.1712 50.0566 66.8939 49.9355C66.6205 49.8105 66.4095 49.6113 66.2611 49.3379C66.1127 49.0645 66.0384 48.7051 66.0384 48.2598V42.0957ZM71.6632 41V50H69.9757V41H71.6632ZM71.423 46.6074H70.9601C70.964 46.166 71.0226 45.7598 71.1359 45.3887C71.2491 45.0137 71.4112 44.6895 71.6222 44.416C71.8331 44.1387 72.0851 43.9238 72.378 43.7715C72.6749 43.6191 73.003 43.543 73.3624 43.543C73.6749 43.543 73.9581 43.5879 74.212 43.6777C74.4698 43.7637 74.6905 43.9043 74.8741 44.0996C75.0616 44.291 75.2062 44.543 75.3077 44.8555C75.4093 45.168 75.4601 45.5469 75.4601 45.9922V50H73.7609V45.9805C73.7609 45.6992 73.7198 45.4785 73.6378 45.3184C73.5597 45.1543 73.4445 45.0391 73.2921 44.9727C73.1437 44.9023 72.9601 44.8672 72.7413 44.8672C72.4991 44.8672 72.2921 44.9121 72.1202 45.002C71.9523 45.0918 71.8175 45.2168 71.7159 45.377C71.6144 45.5332 71.5402 45.7168 71.4933 45.9277C71.4464 46.1387 71.423 46.3652 71.423 46.6074ZM79.9013 50.1172C79.4091 50.1172 78.9677 50.0391 78.577 49.8828C78.1864 49.7227 77.8544 49.502 77.5809 49.2207C77.3114 48.9395 77.1044 48.6133 76.9598 48.2422C76.8153 47.8672 76.743 47.4688 76.743 47.0469V46.8125C76.743 46.332 76.8114 45.8926 76.9481 45.4941C77.0848 45.0957 77.2802 44.75 77.5341 44.457C77.7919 44.1641 78.1044 43.9395 78.4716 43.7832C78.8388 43.623 79.2528 43.543 79.7138 43.543C80.163 43.543 80.5614 43.6172 80.9091 43.7656C81.2567 43.9141 81.5477 44.125 81.7821 44.3984C82.0204 44.6719 82.2001 45 82.3212 45.3828C82.4423 45.7617 82.5028 46.1836 82.5028 46.6484V47.3516H77.4638V46.2266H80.8446V46.0977C80.8446 45.8633 80.8016 45.6543 80.7157 45.4707C80.6337 45.2832 80.5087 45.1348 80.3407 45.0254C80.1727 44.916 79.9579 44.8613 79.6962 44.8613C79.4735 44.8613 79.2821 44.9102 79.122 45.0078C78.9618 45.1055 78.8309 45.2422 78.7294 45.418C78.6317 45.5938 78.5575 45.8008 78.5067 46.0391C78.4598 46.2734 78.4364 46.5312 78.4364 46.8125V47.0469C78.4364 47.3008 78.4716 47.5352 78.5419 47.75C78.6161 47.9648 78.7196 48.1504 78.8524 48.3066C78.9891 48.4629 79.1532 48.584 79.3446 48.6699C79.5399 48.7559 79.7606 48.7988 80.0067 48.7988C80.3114 48.7988 80.5946 48.7402 80.8563 48.623C81.122 48.502 81.3505 48.3203 81.5419 48.0781L82.3622 48.9688C82.2294 49.1602 82.0477 49.3438 81.8173 49.5195C81.5907 49.6953 81.3173 49.8398 80.997 49.9531C80.6766 50.0625 80.3114 50.1172 79.9013 50.1172ZM85.3913 45.043V50H83.7038V43.6602H85.2916L85.3913 45.043ZM87.3014 43.6191L87.2721 45.1836C87.1901 45.1719 87.0905 45.1621 86.9733 45.1543C86.86 45.1426 86.7565 45.1367 86.6627 45.1367C86.4245 45.1367 86.2174 45.168 86.0416 45.2305C85.8698 45.2891 85.7252 45.377 85.608 45.4941C85.4948 45.6113 85.4088 45.7539 85.3502 45.9219C85.2955 46.0898 85.2643 46.2812 85.2565 46.4961L84.9166 46.3906C84.9166 45.9805 84.9577 45.6035 85.0397 45.2598C85.1217 44.9121 85.2409 44.6094 85.3971 44.3516C85.5573 44.0938 85.7526 43.8945 85.983 43.7539C86.2135 43.6133 86.4772 43.543 86.7741 43.543C86.8678 43.543 86.9635 43.5508 87.0612 43.5664C87.1588 43.5781 87.2389 43.5957 87.3014 43.6191Z" fill="#101010"></path>
    <path d="M4.57617 41.4688V50H2.82422V41.4688H4.57617ZM7.20117 41.4688V42.8457H0.240234V41.4688H7.20117ZM9.615 45.043V50H7.9275V43.6602H9.51539L9.615 45.043ZM11.5252 43.6191L11.4959 45.1836C11.4138 45.1719 11.3142 45.1621 11.197 45.1543C11.0837 45.1426 10.9802 45.1367 10.8865 45.1367C10.6482 45.1367 10.4412 45.168 10.2654 45.2305C10.0935 45.2891 9.94898 45.377 9.8318 45.4941C9.71852 45.6113 9.63258 45.7539 9.57398 45.9219C9.5193 46.0898 9.48805 46.2812 9.48023 46.4961L9.14039 46.3906C9.14039 45.9805 9.18141 45.6035 9.26344 45.2598C9.34547 44.9121 9.46461 44.6094 9.62086 44.3516C9.78102 44.0938 9.97633 43.8945 10.2068 43.7539C10.4373 43.6133 10.7009 43.543 10.9978 43.543C11.0916 43.543 11.1873 43.5508 11.2849 43.5664C11.3826 43.5781 11.4627 43.5957 11.5252 43.6191ZM15.7847 48.5703V45.7461C15.7847 45.543 15.7515 45.3691 15.6851 45.2246C15.6187 45.0762 15.5152 44.9609 15.3745 44.8789C15.2378 44.7969 15.0601 44.7559 14.8413 44.7559C14.6538 44.7559 14.4917 44.7891 14.355 44.8555C14.2183 44.918 14.1128 45.0098 14.0386 45.1309C13.9644 45.248 13.9273 45.3867 13.9273 45.5469H12.2398C12.2398 45.2773 12.3023 45.0215 12.4273 44.7793C12.5523 44.5371 12.7339 44.3242 12.9722 44.1406C13.2105 43.9531 13.4937 43.8066 13.8218 43.7012C14.1538 43.5957 14.5249 43.543 14.9351 43.543C15.4273 43.543 15.8648 43.625 16.2476 43.7891C16.6304 43.9531 16.9312 44.1992 17.1499 44.5273C17.3726 44.8555 17.4839 45.2656 17.4839 45.7578V48.4707C17.4839 48.8184 17.5054 49.1035 17.5484 49.3262C17.5913 49.5449 17.6538 49.7363 17.7359 49.9004V50H16.0308C15.9487 49.8281 15.8862 49.6133 15.8433 49.3555C15.8042 49.0938 15.7847 48.832 15.7847 48.5703ZM16.0073 46.1387L16.0191 47.0938H15.0757C14.853 47.0938 14.6597 47.1191 14.4956 47.1699C14.3316 47.2207 14.1968 47.293 14.0913 47.3867C13.9859 47.4766 13.9077 47.582 13.857 47.7031C13.8101 47.8242 13.7866 47.957 13.7866 48.1016C13.7866 48.2461 13.8198 48.377 13.8862 48.4941C13.9527 48.6074 14.0484 48.6973 14.1734 48.7637C14.2984 48.8262 14.4448 48.8574 14.6128 48.8574C14.8667 48.8574 15.0874 48.8066 15.2749 48.7051C15.4624 48.6035 15.607 48.4785 15.7085 48.3301C15.814 48.1816 15.8687 48.041 15.8726 47.9082L16.3179 48.623C16.2554 48.7832 16.1695 48.9492 16.0601 49.1211C15.9546 49.293 15.8198 49.4551 15.6558 49.6074C15.4917 49.7559 15.2945 49.8789 15.064 49.9766C14.8335 50.0703 14.5601 50.1172 14.2437 50.1172C13.8413 50.1172 13.4761 50.0371 13.148 49.877C12.8237 49.7129 12.5659 49.4883 12.3745 49.2031C12.187 48.9141 12.0933 48.5859 12.0933 48.2188C12.0933 47.8867 12.1558 47.5918 12.2808 47.334C12.4058 47.0762 12.5894 46.8594 12.8316 46.6836C13.0777 46.5039 13.3843 46.3691 13.7515 46.2793C14.1187 46.1855 14.5445 46.1387 15.0288 46.1387H16.0073ZM21.0872 48.7695L22.4934 43.6602H24.2571L22.1184 50H21.052L21.0872 48.7695ZM20.1204 43.6602L21.5325 48.7754L21.5618 50H20.4895L18.3509 43.6602H20.1204ZM28.0889 50.1172C27.5967 50.1172 27.1553 50.0391 26.7647 49.8828C26.3741 49.7227 26.042 49.502 25.7686 49.2207C25.4991 48.9395 25.292 48.6133 25.1475 48.2422C25.003 47.8672 24.9307 47.4688 24.9307 47.0469V46.8125C24.9307 46.332 24.9991 45.8926 25.1358 45.4941C25.2725 45.0957 25.4678 44.75 25.7217 44.457C25.9795 44.1641 26.292 43.9395 26.6592 43.7832C27.0264 43.623 27.4405 43.543 27.9014 43.543C28.3506 43.543 28.7491 43.6172 29.0967 43.7656C29.4444 43.9141 29.7354 44.125 29.9698 44.3984C30.208 44.6719 30.3877 45 30.5088 45.3828C30.6299 45.7617 30.6905 46.1836 30.6905 46.6484V47.3516H25.6514V46.2266H29.0323V46.0977C29.0323 45.8633 28.9893 45.6543 28.9034 45.4707C28.8213 45.2832 28.6963 45.1348 28.5284 45.0254C28.3604 44.916 28.1455 44.8613 27.8838 44.8613C27.6612 44.8613 27.4698 44.9102 27.3096 45.0078C27.1495 45.1055 27.0186 45.2422 26.917 45.418C26.8194 45.5938 26.7452 45.8008 26.6944 46.0391C26.6475 46.2734 26.6241 46.5312 26.6241 46.8125V47.0469C26.6241 47.3008 26.6592 47.5352 26.7295 47.75C26.8037 47.9648 26.9073 48.1504 27.0401 48.3066C27.1768 48.4629 27.3409 48.584 27.5323 48.6699C27.7276 48.7559 27.9483 48.7988 28.1944 48.7988C28.4991 48.7988 28.7823 48.7402 29.044 48.623C29.3096 48.502 29.5381 48.3203 29.7295 48.0781L30.5498 48.9688C30.417 49.1602 30.2354 49.3438 30.0049 49.5195C29.7784 49.6953 29.5049 49.8398 29.1846 49.9531C28.8643 50.0625 28.4991 50.1172 28.0889 50.1172ZM33.6727 41V50H31.9793V41H33.6727ZM42.139 41.4688V50H40.387V41.4688H42.139ZM44.764 41.4688V42.8457H37.803V41.4688H44.764ZM44.6114 46.8945V46.7715C44.6114 46.3066 44.6778 45.8789 44.8106 45.4883C44.9434 45.0938 45.1368 44.752 45.3907 44.4629C45.6446 44.1738 45.9571 43.9492 46.3282 43.7891C46.6993 43.625 47.1251 43.543 47.6055 43.543C48.086 43.543 48.5137 43.625 48.8887 43.7891C49.2637 43.9492 49.5782 44.1738 49.8321 44.4629C50.0899 44.752 50.2852 45.0938 50.418 45.4883C50.5509 45.8789 50.6173 46.3066 50.6173 46.7715V46.8945C50.6173 47.3555 50.5509 47.7832 50.418 48.1777C50.2852 48.5684 50.0899 48.9102 49.8321 49.2031C49.5782 49.4922 49.2657 49.7168 48.8946 49.877C48.5235 50.0371 48.0977 50.1172 47.6173 50.1172C47.1368 50.1172 46.7091 50.0371 46.3341 49.877C45.963 49.7168 45.6485 49.4922 45.3907 49.2031C45.1368 48.9102 44.9434 48.5684 44.8106 48.1777C44.6778 47.7832 44.6114 47.3555 44.6114 46.8945ZM46.2989 46.7715V46.8945C46.2989 47.1602 46.3223 47.4082 46.3692 47.6387C46.4161 47.8691 46.4903 48.0723 46.5919 48.248C46.6973 48.4199 46.8341 48.5547 47.002 48.6523C47.17 48.75 47.3751 48.7988 47.6173 48.7988C47.8516 48.7988 48.0528 48.75 48.2208 48.6523C48.3887 48.5547 48.5235 48.4199 48.6251 48.248C48.7266 48.0723 48.8009 47.8691 48.8477 47.6387C48.8985 47.4082 48.9239 47.1602 48.9239 46.8945V46.7715C48.9239 46.5137 48.8985 46.2715 48.8477 46.0449C48.8009 45.8145 48.7247 45.6113 48.6192 45.4355C48.5177 45.2559 48.3829 45.1152 48.2149 45.0137C48.047 44.9121 47.8438 44.8613 47.6055 44.8613C47.3673 44.8613 47.1641 44.9121 46.9962 45.0137C46.8321 45.1152 46.6973 45.2559 46.5919 45.4355C46.4903 45.6113 46.4161 45.8145 46.3692 46.0449C46.3223 46.2715 46.2989 46.5137 46.2989 46.7715ZM55.908 43.6602H57.4373V49.7891C57.4373 50.3672 57.3084 50.8574 57.0506 51.2598C56.7967 51.666 56.4412 51.9727 55.9842 52.1797C55.5272 52.3906 54.9959 52.4961 54.3905 52.4961C54.1248 52.4961 53.8436 52.4609 53.5467 52.3906C53.2537 52.3203 52.9725 52.2109 52.703 52.0625C52.4373 51.9141 52.2147 51.7266 52.035 51.5L52.7791 50.5039C52.9745 50.7305 53.201 50.9062 53.4588 51.0312C53.7166 51.1602 54.0018 51.2246 54.3143 51.2246C54.619 51.2246 54.8768 51.168 55.0877 51.0547C55.2987 50.9453 55.4608 50.7832 55.5741 50.5684C55.6873 50.3574 55.744 50.1016 55.744 49.8008V45.125L55.908 43.6602ZM51.6424 46.9062V46.7832C51.6424 46.2988 51.701 45.8594 51.8182 45.4648C51.9393 45.0664 52.1092 44.7246 52.328 44.4395C52.5506 44.1543 52.8202 43.9336 53.1366 43.7773C53.453 43.6211 53.8104 43.543 54.2088 43.543C54.6307 43.543 54.9842 43.6211 55.2694 43.7773C55.5545 43.9336 55.7889 44.1562 55.9725 44.4453C56.1561 44.7305 56.2987 45.0684 56.4002 45.459C56.5057 45.8457 56.5877 46.2695 56.6463 46.7305V47C56.5877 47.4414 56.4998 47.8516 56.3827 48.2305C56.2655 48.6094 56.1112 48.9414 55.9198 49.2266C55.7284 49.5078 55.4901 49.7266 55.2049 49.8828C54.9237 50.0391 54.5877 50.1172 54.1971 50.1172C53.8065 50.1172 53.453 50.0371 53.1366 49.877C52.8241 49.7168 52.5565 49.4922 52.3338 49.2031C52.1112 48.9141 51.9393 48.5742 51.8182 48.1836C51.701 47.793 51.6424 47.3672 51.6424 46.9062ZM53.3299 46.7832V46.9062C53.3299 47.168 53.3553 47.4121 53.4061 47.6387C53.4569 47.8652 53.535 48.0664 53.6405 48.2422C53.7498 48.4141 53.8846 48.5488 54.0448 48.6465C54.2088 48.7402 54.4022 48.7871 54.6248 48.7871C54.9334 48.7871 55.1854 48.7227 55.3807 48.5938C55.576 48.4609 55.7225 48.2793 55.8202 48.0488C55.9178 47.8184 55.9745 47.5527 55.9901 47.252V46.4844C55.9823 46.2383 55.9491 46.0176 55.8905 45.8223C55.8319 45.623 55.7498 45.4531 55.6444 45.3125C55.5389 45.1719 55.4022 45.0625 55.2342 44.9844C55.0662 44.9062 54.867 44.8672 54.6366 44.8672C54.4139 44.8672 54.2205 44.918 54.0565 45.0195C53.8963 45.1172 53.7616 45.252 53.6522 45.4238C53.5467 45.5957 53.4666 45.7988 53.412 46.0332C53.3573 46.2637 53.3299 46.5137 53.3299 46.7832ZM61.9078 50.1172C61.4156 50.1172 60.9742 50.0391 60.5836 49.8828C60.193 49.7227 59.8609 49.502 59.5875 49.2207C59.318 48.9395 59.1109 48.6133 58.9664 48.2422C58.8219 47.8672 58.7496 47.4688 58.7496 47.0469V46.8125C58.7496 46.332 58.818 45.8926 58.9547 45.4941C59.0914 45.0957 59.2867 44.75 59.5406 44.457C59.7984 44.1641 60.1109 43.9395 60.4781 43.7832C60.8453 43.623 61.2594 43.543 61.7203 43.543C62.1695 43.543 62.568 43.6172 62.9156 43.7656C63.2633 43.9141 63.5543 44.125 63.7887 44.3984C64.027 44.6719 64.2066 45 64.3277 45.3828C64.4488 45.7617 64.5094 46.1836 64.5094 46.6484V47.3516H59.4703V46.2266H62.8512V46.0977C62.8512 45.8633 62.8082 45.6543 62.7223 45.4707C62.6402 45.2832 62.5152 45.1348 62.3473 45.0254C62.1793 44.916 61.9645 44.8613 61.7027 44.8613C61.4801 44.8613 61.2887 44.9102 61.1285 45.0078C60.9684 45.1055 60.8375 45.2422 60.7359 45.418C60.6383 45.5938 60.5641 45.8008 60.5133 46.0391C60.4664 46.2734 60.443 46.5312 60.443 46.8125V47.0469C60.443 47.3008 60.4781 47.5352 60.5484 47.75C60.6227 47.9648 60.7262 48.1504 60.859 48.3066C60.9957 48.4629 61.1598 48.584 61.3512 48.6699C61.5465 48.7559 61.7672 48.7988 62.0133 48.7988C62.318 48.7988 62.6012 48.7402 62.8629 48.623C63.1285 48.502 63.357 48.3203 63.5484 48.0781L64.3688 48.9688C64.2359 49.1602 64.0543 49.3438 63.8238 49.5195C63.5973 49.6953 63.3238 49.8398 63.0035 49.9531C62.6832 50.0625 62.318 50.1172 61.9078 50.1172ZM68.8158 43.6602V44.8555H65.1244V43.6602H68.8158ZM66.0384 42.0957H67.7259V48.0898C67.7259 48.2734 67.7494 48.4141 67.7962 48.5117C67.847 48.6094 67.9212 48.6777 68.0189 48.7168C68.1166 48.752 68.2396 48.7695 68.388 48.7695C68.4935 48.7695 68.5873 48.7656 68.6693 48.7578C68.7552 48.7461 68.8275 48.7344 68.8861 48.7227L68.892 49.9648C68.7474 50.0117 68.5912 50.0488 68.4232 50.0762C68.2552 50.1035 68.0697 50.1172 67.8666 50.1172C67.4955 50.1172 67.1712 50.0566 66.8939 49.9355C66.6205 49.8105 66.4095 49.6113 66.2611 49.3379C66.1127 49.0645 66.0384 48.7051 66.0384 48.2598V42.0957ZM71.6632 41V50H69.9757V41H71.6632ZM71.423 46.6074H70.9601C70.964 46.166 71.0226 45.7598 71.1359 45.3887C71.2491 45.0137 71.4112 44.6895 71.6222 44.416C71.8331 44.1387 72.0851 43.9238 72.378 43.7715C72.6749 43.6191 73.003 43.543 73.3624 43.543C73.6749 43.543 73.9581 43.5879 74.212 43.6777C74.4698 43.7637 74.6905 43.9043 74.8741 44.0996C75.0616 44.291 75.2062 44.543 75.3077 44.8555C75.4093 45.168 75.4601 45.5469 75.4601 45.9922V50H73.7609V45.9805C73.7609 45.6992 73.7198 45.4785 73.6378 45.3184C73.5597 45.1543 73.4445 45.0391 73.2921 44.9727C73.1437 44.9023 72.9601 44.8672 72.7413 44.8672C72.4991 44.8672 72.2921 44.9121 72.1202 45.002C71.9523 45.0918 71.8175 45.2168 71.7159 45.377C71.6144 45.5332 71.5402 45.7168 71.4933 45.9277C71.4464 46.1387 71.423 46.3652 71.423 46.6074ZM79.9013 50.1172C79.4091 50.1172 78.9677 50.0391 78.577 49.8828C78.1864 49.7227 77.8544 49.502 77.5809 49.2207C77.3114 48.9395 77.1044 48.6133 76.9598 48.2422C76.8153 47.8672 76.743 47.4688 76.743 47.0469V46.8125C76.743 46.332 76.8114 45.8926 76.9481 45.4941C77.0848 45.0957 77.2802 44.75 77.5341 44.457C77.7919 44.1641 78.1044 43.9395 78.4716 43.7832C78.8388 43.623 79.2528 43.543 79.7138 43.543C80.163 43.543 80.5614 43.6172 80.9091 43.7656C81.2567 43.9141 81.5477 44.125 81.7821 44.3984C82.0204 44.6719 82.2001 45 82.3212 45.3828C82.4423 45.7617 82.5028 46.1836 82.5028 46.6484V47.3516H77.4638V46.2266H80.8446V46.0977C80.8446 45.8633 80.8016 45.6543 80.7157 45.4707C80.6337 45.2832 80.5087 45.1348 80.3407 45.0254C80.1727 44.916 79.9579 44.8613 79.6962 44.8613C79.4735 44.8613 79.2821 44.9102 79.122 45.0078C78.9618 45.1055 78.8309 45.2422 78.7294 45.418C78.6317 45.5938 78.5575 45.8008 78.5067 46.0391C78.4598 46.2734 78.4364 46.5312 78.4364 46.8125V47.0469C78.4364 47.3008 78.4716 47.5352 78.5419 47.75C78.6161 47.9648 78.7196 48.1504 78.8524 48.3066C78.9891 48.4629 79.1532 48.584 79.3446 48.6699C79.5399 48.7559 79.7606 48.7988 80.0067 48.7988C80.3114 48.7988 80.5946 48.7402 80.8563 48.623C81.122 48.502 81.3505 48.3203 81.5419 48.0781L82.3622 48.9688C82.2294 49.1602 82.0477 49.3438 81.8173 49.5195C81.5907 49.6953 81.3173 49.8398 80.997 49.9531C80.6766 50.0625 80.3114 50.1172 79.9013 50.1172ZM85.3913 45.043V50H83.7038V43.6602H85.2916L85.3913 45.043ZM87.3014 43.6191L87.2721 45.1836C87.1901 45.1719 87.0905 45.1621 86.9733 45.1543C86.86 45.1426 86.7565 45.1367 86.6627 45.1367C86.4245 45.1367 86.2174 45.168 86.0416 45.2305C85.8698 45.2891 85.7252 45.377 85.608 45.4941C85.4948 45.6113 85.4088 45.7539 85.3502 45.9219C85.2955 46.0898 85.2643 46.2812 85.2565 46.4961L84.9166 46.3906C84.9166 45.9805 84.9577 45.6035 85.0397 45.2598C85.1217 44.9121 85.2409 44.6094 85.3971 44.3516C85.5573 44.0938 85.7526 43.8945 85.983 43.7539C86.2135 43.6133 86.4772 43.543 86.7741 43.543C86.8678 43.543 86.9635 43.5508 87.0612 43.5664C87.1588 43.5781 87.2389 43.5957 87.3014 43.6191Z" fill="black" fill-opacity="0.2"></path>
  </symbol>
  <symbol fill="none" xmlns="http://www.w3.org/2000/svg" viewBox="0 0 50 30" id="master-card">
    <path d="M50 15C50 23.2308 43.3077 30 35 30C26.7692 30 20 23.2308 20 15C20 6.76923 26.6923 0 34.9231 0C43.3077 0 50 6.76923 50 15Z" fill="#F9B50B"></path>
    <path d="M29.9231 15.0769C29.9231 14 29.7692 12.9231 29.6154 11.9231H20.3846C20.4615 11.3846 20.6154 10.9231 20.7692 10.3077H29C28.8462 9.76923 28.6154 9.23077 28.3846 8.69231H21.3846C21.6154 8.15385 21.9231 7.69231 22.2308 7.07692H27.5385C27.2308 6.53846 26.8462 6 26.3846 5.46154H23.4615C23.9231 4.92308 24.3846 4.46154 25 3.92308C22.3846 1.46154 18.8462 0 14.9231 0C6.76923 0.230769 0 6.76923 0 15C0 23.2308 6.69231 30 15 30C18.9231 30 22.3846 28.4615 25.0769 26.0769C25.6154 25.6154 26.0769 25.0769 26.6154 24.4615H23.5385C23.1538 24 22.7692 23.4615 22.4615 22.9231H27.6923C28 22.4615 28.3077 21.9231 28.5385 21.3077H21.5385C21.3077 20.8462 21.0769 20.3077 20.9231 19.6923H29.1539C29.6154 18.3077 29.9231 16.7692 29.9231 15.0769Z" fill="#C8191C"></path>
    <path d="M20.3077 18.8467L20.5385 17.4621C20.4615 17.4621 20.3077 17.539 20.1538 17.539C19.6154 17.539 19.5385 17.2313 19.6154 17.0774L20.0769 14.3082H20.9231L21.1538 12.7698H20.3846L20.5385 11.8467H18.9231C18.9231 11.8467 18 17.0774 18 17.6928C18 18.6159 18.5385 19.0774 19.3077 19.0774C19.7692 19.0774 20.1538 18.9236 20.3077 18.8467Z" fill="white"></path>
    <path d="M20.8461 16.308C20.8461 18.5388 22.3846 19.0772 23.6154 19.0772C24.7692 19.0772 25.3077 18.8465 25.3077 18.8465L25.6154 17.308C25.6154 17.308 24.7692 17.6926 23.9231 17.6926C22.1538 17.6926 22.4615 16.3849 22.4615 16.3849H25.6923C25.6923 16.3849 25.9231 15.3849 25.9231 14.9234C25.9231 13.9234 25.3846 12.6157 23.6154 12.6157C22.0769 12.5388 20.8461 14.308 20.8461 16.308ZM23.6154 14.0003C24.4615 14.0003 24.3077 15.0003 24.3077 15.0772H22.5384C22.6154 15.0003 22.7692 14.0003 23.6154 14.0003Z" fill="white"></path>
    <path d="M33.6923 18.8464L34 17.0771C34 17.0771 33.2308 17.4618 32.6154 17.4618C31.5384 17.4618 31 16.6156 31 15.6156C31 13.6925 31.9231 12.6925 33.0769 12.6925C33.8461 12.6925 34.5384 13.1541 34.5384 13.1541L34.7692 11.4618C34.7692 11.4618 33.8461 11.0771 32.9231 11.0771C31.0769 11.0771 29.3077 12.6925 29.3077 15.6925C29.3077 17.6925 30.2308 19.0002 32.1538 19.0002C32.8461 19.0771 33.6923 18.8464 33.6923 18.8464Z" fill="white"></path>
    <path d="M11.6154 12.5381C10.5385 12.5381 9.69234 12.8458 9.69234 12.8458L9.46157 14.2304C9.46157 14.2304 10.1539 13.9227 11.2308 13.9227C11.7693 13.9227 12.2308 13.9996 12.2308 14.4612C12.2308 14.7689 12.1539 14.8458 12.1539 14.8458H11.4616C10.077 14.8458 8.61542 15.3842 8.61542 17.2304C8.61542 18.6919 9.53849 18.9996 10.1539 18.9996C11.2308 18.9996 11.7693 18.3073 11.8462 18.3073L11.7693 18.9227H13.077L13.6923 14.5381C13.6923 12.615 12.1539 12.5381 11.6154 12.5381ZM11.9231 16.0765C11.9231 16.3073 11.7693 17.615 10.8462 17.615C10.3846 17.615 10.2308 17.2304 10.2308 16.9996C10.2308 16.615 10.4616 16.0765 11.6923 16.0765C11.8462 16.0765 11.9231 16.0765 11.9231 16.0765Z" fill="white"></path>
    <path d="M15.2309 19.0004C15.6155 19.0004 17.6155 19.0773 17.6155 16.9235C17.6155 14.9235 15.6924 15.3081 15.6924 14.5388C15.6924 14.1542 16.0001 14.0004 16.5386 14.0004C16.7693 14.0004 17.6155 14.0773 17.6155 14.0773L17.8463 12.6158C17.8463 12.6158 17.3078 12.4619 16.3078 12.4619C15.154 12.4619 13.9232 12.9235 13.9232 14.5388C13.9232 16.385 15.9232 16.2311 15.9232 16.9235C15.9232 17.385 15.3847 17.4619 15.0001 17.4619C14.3078 17.4619 13.5386 17.2311 13.5386 17.2311L13.3078 18.6927C13.4616 18.8465 13.9232 19.0004 15.2309 19.0004Z" fill="white"></path>
    <path d="M46.923 11.3076L46.6153 13.4615C46.6153 13.4615 45.9999 12.6922 45.0768 12.6922C43.6153 12.6922 42.3845 14.4615 42.3845 16.5384C42.3845 17.8461 42.9999 19.1538 44.3845 19.1538C45.3076 19.1538 45.923 18.5384 45.923 18.5384L45.8461 19.0768H47.4614L48.6153 11.4615L46.923 11.3076ZM46.1538 15.4615C46.1538 16.3076 45.7691 17.4615 44.8461 17.4615C44.3076 17.4615 43.9999 16.9999 43.9999 16.1538C43.9999 14.8461 44.5384 14.0768 45.3076 14.0768C45.8461 14.1538 46.1538 14.5384 46.1538 15.4615Z" fill="white"></path>
    <path d="M2.92304 18.923L3.84612 13.2307L3.99997 18.923H5.07689L7.15381 13.2307L6.30766 18.923H7.99997L9.30766 11.3076H6.69227L5.07689 15.9999L4.99997 11.3076H2.69227L1.38458 18.923H2.92304Z" fill="white"></path>
    <path d="M27.5385 18.9232C28 16.3078 28.0769 14.1539 29.2308 14.5385C29.3846 13.5385 29.6154 13.077 29.7692 12.6924H29.4615C28.7692 12.6924 28.1538 13.6155 28.1538 13.6155L28.3077 12.7693H26.7692L25.7692 18.9232H27.5385Z" fill="white"></path>
    <path d="M37.3846 12.5381C36.3077 12.5381 35.4615 12.8458 35.4615 12.8458L35.2307 14.2304C35.2307 14.2304 35.923 13.9227 37 13.9227C37.5384 13.9227 38 13.9996 38 14.4612C38 14.7689 37.923 14.8458 37.923 14.8458H37.2307C35.8461 14.8458 34.3846 15.3842 34.3846 17.2304C34.3846 18.6919 35.3077 18.9996 35.923 18.9996C37 18.9996 37.5384 18.3073 37.6154 18.3073L37.5384 18.9227H39L39.6154 14.5381C39.6154 12.615 37.923 12.5381 37.3846 12.5381ZM37.7692 16.0765C37.7692 16.3073 37.6154 17.615 36.6923 17.615C36.2307 17.615 36.0769 17.2304 36.0769 16.9996C36.0769 16.615 36.3077 16.0765 37.5384 16.0765C37.6923 16.0765 37.6923 16.0765 37.7692 16.0765Z" fill="white"></path>
    <path d="M40.8462 18.9232C41.3077 16.3078 41.3847 14.1539 42.5385 14.5385C42.6923 13.5385 42.9231 13.077 43.077 12.6924H42.7693C42.077 12.6924 41.4616 13.6155 41.4616 13.6155L41.6154 12.7693H40.077L39.077 18.9232H40.8462Z" fill="white"></path>
  </symbol>
  <symbol fill="none" xmlns="http://www.w3.org/2000/svg" viewBox="0 0 85 21" id="paypal">
    <path d="M32.3705 9.00011C32.1503 10.6668 30.8291 10.6668 29.6179 10.6668H28.9573L29.5078 7.44455C29.5078 7.22233 29.728 7.11122 29.9482 7.11122H30.2786C31.1594 7.11122 31.9301 7.11122 32.3705 7.55566C32.3705 8.00011 32.3705 8.44455 32.3705 9.00011ZM31.82 4.55566H27.0855C26.7552 4.55566 26.535 4.77789 26.4249 5.11122L24.5532 17.3334C24.5532 17.5557 24.6633 17.7779 24.9936 17.7779H27.1957C27.526 17.7779 27.7462 17.5557 27.8563 17.2223L28.4068 13.889C28.4068 13.5557 28.7371 13.3334 29.0674 13.3334H30.6089C33.6918 13.3334 35.4534 11.7779 36.0039 8.77788C36.2241 7.44455 36.0039 6.44455 35.4534 5.66678C34.5726 5.00011 33.3615 4.55566 31.82 4.55566Z" fill="#263577"></path>
    <path d="M42.7203 13.4445C42.5001 14.7778 41.5091 15.6667 40.1879 15.6667C39.5273 15.6667 38.9768 15.4445 38.6465 15.0001C38.3161 14.5556 38.206 14.0001 38.3161 13.4445C38.5363 12.1112 39.5273 11.2223 40.8485 11.2223C41.5091 11.2223 42.0597 11.4445 42.39 11.8889C42.6102 12.2223 42.8304 12.7778 42.7203 13.4445ZM45.8032 9.00006H43.6011C43.3809 9.00006 43.2708 9.11117 43.1607 9.33339L43.0506 10.0001L42.9405 9.77783C42.5001 9.11117 41.399 8.77783 40.298 8.77783C37.7656 8.77783 35.6736 10.6667 35.2332 13.3334C35.013 14.6667 35.3433 15.8889 36.114 16.7778C36.7747 17.5556 37.7656 17.8889 38.9767 17.8889C40.9586 17.8889 42.0596 16.5556 42.0596 16.5556L41.9496 17.2223C41.9496 17.4445 42.0597 17.6667 42.39 17.6667H44.3718C44.7021 17.6667 44.9223 17.4445 45.0325 17.1112L46.2436 9.33339C46.2436 9.22228 46.1335 9.00006 45.8032 9.00006Z" fill="#263577"></path>
    <path d="M57.8044 9H55.4922C55.272 9 55.0518 9.11111 54.9417 9.33333L51.8588 14L50.5375 9.55556C50.4274 9.22222 50.2072 9.11111 49.8769 9.11111H47.6748C47.4546 9.11111 47.2344 9.33333 47.3445 9.66666L49.8769 17L47.5647 20.3333C47.3445 20.5556 47.5647 21 47.8951 21H50.2072C50.4274 21 50.6477 20.8889 50.7578 20.6667L58.2448 9.66666C58.3549 9.33333 58.1347 9 57.8044 9Z" fill="#263577"></path>
    <path d="M65.842 9.00011C65.6218 10.6668 64.3005 10.6668 63.0894 10.6668H62.4287L62.9793 7.44455C62.9793 7.22233 63.1995 7.11122 63.4197 7.11122H63.75C64.6308 7.11122 65.4015 7.11122 65.842 7.55566C65.9521 8.00011 65.9521 8.44455 65.842 9.00011ZM65.2914 4.55566H60.557C60.2267 4.55566 60.0065 4.77789 59.8964 5.11122L58.0246 17.3334C58.0246 17.5557 58.1347 17.7779 58.465 17.7779H60.8873C61.1075 17.7779 61.3277 17.6668 61.3277 17.3334L61.8782 13.889C61.8782 13.5557 62.2085 13.3334 62.5389 13.3334H64.0803C67.1632 13.3334 68.9249 11.7779 69.4754 8.77788C69.6956 7.44455 69.4754 6.44455 68.9249 5.66678C68.1542 5.00011 66.943 4.55566 65.2914 4.55566Z" fill="#2199D6"></path>
    <path d="M76.3019 13.4445C76.0817 14.7778 75.0908 15.6667 73.7696 15.6667C73.1089 15.6667 72.5584 15.4445 72.2281 15.0001C71.8978 14.5556 71.7877 14.0001 71.8978 13.4445C72.118 12.1112 73.1089 11.2223 74.4302 11.2223C75.0908 11.2223 75.6413 11.4445 75.9716 11.8889C76.1918 12.2223 76.412 12.7778 76.3019 13.4445ZM79.3849 9.00006H77.1828C76.9626 9.00006 76.8524 9.11117 76.7423 9.33339L76.6323 10.0001L76.5222 9.77783C76.0817 9.11117 74.9807 8.77783 73.8797 8.77783C71.3473 8.77783 69.2553 10.6667 68.8149 13.3334C68.5947 14.6667 68.925 15.8889 69.6957 16.7778C70.3563 17.5556 71.3473 17.8889 72.5584 17.8889C74.5403 17.8889 75.6413 16.5556 75.6413 16.5556L75.5312 17.2223C75.5312 17.4445 75.6413 17.6667 75.9716 17.6667H77.9535C78.2838 17.6667 78.504 17.4445 78.6141 17.1112L79.8253 9.33339C79.8253 9.22228 79.6051 9.00006 79.3849 9.00006Z" fill="#2199D6"></path>
    <path d="M82.0272 4.889L80.0453 17.3334C80.0453 17.5557 80.1554 17.7779 80.4857 17.7779H82.4676C82.7979 17.7779 83.0181 17.5557 83.1282 17.2223L85 5.00011C85 4.77789 84.8899 4.55566 84.5595 4.55566H82.3575C82.2474 4.55566 82.1373 4.77789 82.0272 4.889Z" fill="#2199D6"></path>
    <path d="M4.95464 20.1114L5.28493 17.7781H4.51421H0.660583L3.30308 0.778102C3.30308 0.778102 3.30307 0.666992 3.41317 0.666992H3.52329H10.0194C12.1114 0.666992 13.6528 1.11144 14.4235 2.00033C14.7539 2.44477 14.9741 2.88922 15.0842 3.33366C15.1943 3.88922 15.1943 4.44477 15.0842 5.22255V5.66699L15.4145 5.88921C15.7448 6.00033 15.965 6.22255 16.1852 6.44477C16.5155 6.7781 16.7357 7.22255 16.7357 7.7781C16.8458 8.33366 16.8458 9.00033 16.6256 9.7781C16.4054 10.667 16.1852 11.3337 15.8549 12.0003C15.5246 12.5559 15.0842 13.0003 14.6437 13.4448C14.2033 13.7781 13.5427 14.0003 12.9922 14.2225C12.3316 14.3337 11.671 14.4448 10.9002 14.4448H10.3497C10.0194 14.4448 9.68909 14.5559 9.35878 14.7781C9.13857 15.0003 8.91837 15.3337 8.80826 15.667V15.8892L8.14764 20.0003V20.1114V20.2225C8.14764 20.2225 8.14763 20.2225 8.03753 20.2225H4.95464V20.1114Z" fill="#263577"></path>
    <path d="M15.855 5.22266C15.855 5.33377 15.8549 5.44488 15.7448 5.55599C14.864 10.0004 12.0013 11.4449 8.25781 11.4449H6.38603C5.94562 11.4449 5.50521 11.7782 5.50521 12.2227L4.51427 18.4449L4.29407 20.2227C4.29407 20.556 4.51427 20.7782 4.73448 20.7782H8.1477C8.58811 20.7782 8.91842 20.4449 8.91842 20.1115V19.8893L9.57905 15.8893V15.6671C9.68915 15.2227 10.0195 15.0004 10.3498 15.0004H10.9003C14.2034 15.0004 16.7358 13.6671 17.3964 9.77821C17.7267 8.11155 17.5065 6.77821 16.7358 5.88933C16.5156 5.6671 16.1853 5.44488 15.855 5.22266Z" fill="#2199D6"></path>
    <path d="M14.9741 4.889C14.864 4.889 14.7539 4.77789 14.5337 4.77789C14.4236 4.77789 14.2034 4.66677 14.0933 4.66677C13.5427 4.55566 12.9922 4.55566 12.4417 4.55566H7.37695C7.26684 4.55566 7.15674 4.55566 7.04663 4.66677C6.82643 4.77788 6.60622 5.00011 6.60622 5.22233L5.50519 12.1112V12.3334C5.61529 11.889 5.94559 11.5557 6.386 11.5557H8.25778C12.0013 11.5557 14.864 10.0001 15.7448 5.66678C15.7448 5.55566 15.7448 5.44455 15.8549 5.33344C15.6347 5.22233 15.4145 5.11122 15.1943 5.00011C15.0842 4.889 14.9741 4.889 14.9741 4.889Z" fill="#252C5E"></path>
    <path d="M6.60622 5.22222C6.60622 5 6.82642 4.77777 7.04663 4.66666C7.15673 4.66666 7.26684 4.55555 7.37694 4.55555H12.4417C12.9922 4.55555 13.6528 4.55555 14.0933 4.66666C14.2034 4.66666 14.4236 4.66667 14.5337 4.77778C14.6438 4.77778 14.7539 4.88889 14.9741 4.88889C15.0842 4.88889 15.0842 4.88889 15.1943 5C15.4145 5.11111 15.6347 5.22222 15.8549 5.33333C16.0751 3.66667 15.8549 2.55555 14.9741 1.55555C13.9832 0.444442 12.2215 0 10.0194 0H3.52331C3.0829 0 2.64248 0.33333 2.64248 0.777774L0 17.8889C0 18.2222 0.220207 18.5556 0.550518 18.5556H4.51424L5.50518 12.1111L6.60622 5.22222Z" fill="#263577"></path>
  </symbol>
  <symbol fill="none" xmlns="http://www.w3.org/2000/svg" viewBox="0 0 24 24" id="pin">
    <path d="M21 10C21 17 12 23 12 23C12 23 3 17 3 10C3 7.61305 3.94821 5.32387 5.63604 3.63604C7.32387 1.94821 9.61305 1 12 1C14.3869 1 16.6761 1.94821 18.364 3.63604C20.0518 5.32387 21 7.61305 21 10Z" stroke="#6C7072" stroke-width="2" stroke-linecap="round" stroke-linejoin="round"></path>
    <path d="M12 13C13.6569 13 15 11.6569 15 10C15 8.34315 13.6569 7 12 7C10.3431 7 9 8.34315 9 10C9 11.6569 10.3431 13 12 13Z" stroke="#6C7072" stroke-width="2" stroke-linecap="round" stroke-linejoin="round"></path>
  </symbol>
  <symbol fill="none" xmlns="http://www.w3.org/2000/svg" viewBox="0 0 24 24" id="search">
    <circle cx="11" cy="11" r="7" stroke="#101010" stroke-width="2"></circle>
    <circle cx="11" cy="11" r="7" stroke="black" stroke-opacity="0.2" stroke-width="2"></circle>
    <path d="M20 20L17 17" stroke="#101010" stroke-width="2" stroke-linecap="round"></path>
    <path d="M20 20L17 17" stroke="black" stroke-opacity="0.2" stroke-width="2" stroke-linecap="round"></path>
  </symbol>
  <symbol fill="none" xmlns="http://www.w3.org/2000/svg" viewBox="0 0 24 24" id="showplace">
    <path d="M22 20H21V8H22C22.2652 8 22.5196 7.89464 22.7071 7.70711C22.8946 7.51957 23 7.26522 23 7C23 6.73478 22.8946 6.48043 22.7071 6.29289C22.5196 6.10536 22.2652 6 22 6H21V3C21 2.73478 20.8946 2.48043 20.7071 2.29289C20.5196 2.10536 20.2652 2 20 2H4C3.73478 2 3.48043 2.10536 3.29289 2.29289C3.10536 2.48043 3 2.73478 3 3V6H2C1.73478 6 1.48043 6.10536 1.29289 6.29289C1.10536 6.48043 1 6.73478 1 7C1 7.26522 1.10536 7.51957 1.29289 7.70711C1.48043 7.89464 1.73478 8 2 8H3V20H2C1.73478 20 1.48043 20.1054 1.29289 20.2929C1.10536 20.4804 1 20.7348 1 21C1 21.2652 1.10536 21.5196 1.29289 21.7071C1.48043 21.8946 1.73478 22 2 22H22C22.2652 22 22.5196 21.8946 22.7071 21.7071C22.8946 21.5196 23 21.2652 23 21C23 20.7348 22.8946 20.4804 22.7071 20.2929C22.5196 20.1054 22.2652 20 22 20ZM15 20H9V16.47C8.99759 15.3982 9.27261 14.3441 9.79831 13.4101C10.324 12.4761 11.0825 11.694 12 11.14C12.9175 11.694 13.676 12.4761 14.2017 13.4101C14.7274 14.3441 15.0024 15.3982 15 16.47V20ZM19 20H17V16.47C17.0067 14.9403 16.5838 13.4394 15.7794 12.1382C14.975 10.837 13.8214 9.7878 12.45 9.11C12.3104 9.03967 12.1563 9.00303 12 9.00303C11.8437 9.00303 11.6896 9.03967 11.55 9.11C10.1786 9.7878 9.02504 10.837 8.22064 12.1382C7.41624 13.4394 6.99331 14.9403 7 16.47V20H5V8H19V20ZM19 6H5V4H19V6Z" fill="#6C7072"></path>
  </symbol>
  <symbol fill="none" xmlns="http://www.w3.org/2000/svg" viewBox="0 0 32 32" id="twitter">
    <path d="M30.6549 5.26678C30.6551 5.03127 30.5928 4.79992 30.4744 4.59631C30.3561 4.39269 30.1859 4.22407 29.9812 4.10762C29.7765 3.99117 29.5446 3.93106 29.3091 3.9334C29.0736 3.93574 28.8429 4.00045 28.6406 4.12094C27.8602 4.58545 27.0199 4.94118 26.1432 5.17827C24.8912 4.10391 23.2944 3.51601 21.6446 3.52202C19.8347 3.5241 18.0964 4.22948 16.7969 5.48919C15.4973 6.74891 14.7382 8.46437 14.6797 10.2733C11.1117 9.70434 7.87791 7.84203 5.595 5.04151C5.45745 4.87463 5.28178 4.74326 5.08281 4.65851C4.88385 4.57375 4.66741 4.53808 4.45177 4.55451C4.23625 4.57226 4.0283 4.64224 3.84589 4.75839C3.66349 4.87455 3.51213 5.03339 3.40489 5.22118C2.85493 6.18093 2.53907 7.25686 2.48296 8.36159C2.42685 9.46632 2.63208 10.5687 3.08197 11.5792L3.07937 11.5818C2.87717 11.7064 2.71029 11.8807 2.59471 12.0882C2.47913 12.2956 2.4187 12.5293 2.41921 12.7668C2.41676 12.9627 2.42851 13.1585 2.45437 13.3527C2.59055 15.0304 3.33408 16.6008 4.54552 17.7694C4.46334 17.9259 4.41318 18.0973 4.39797 18.2735C4.38277 18.4496 4.40283 18.6271 4.45697 18.7954C4.98512 20.4409 6.1083 21.8301 7.60672 22.6912C6.08437 23.2799 4.44061 23.4852 2.82025 23.2889C2.52035 23.2513 2.21656 23.3167 1.95872 23.4744C1.70087 23.6321 1.50429 23.8728 1.40121 24.1569C1.29812 24.441 1.29467 24.7518 1.3914 25.0381C1.48813 25.3245 1.67932 25.5695 1.93359 25.7329C4.72038 27.5278 7.96515 28.4821 11.2799 28.4816C15.039 28.5239 18.7066 27.3227 21.7123 25.0649C24.718 22.8071 26.8932 19.6192 27.8997 15.9972C28.3704 14.4194 28.6108 12.7818 28.6133 11.1353C28.6133 11.048 28.6133 10.9582 28.6119 10.8683C29.3081 10.1176 29.8474 9.23541 30.1982 8.27353C30.549 7.31166 30.7043 6.28944 30.6549 5.26678ZM26.246 9.54932C26.0258 9.80978 25.9144 10.1451 25.9348 10.4855C25.9479 10.7055 25.9466 10.9269 25.9466 11.1353C25.9438 12.5266 25.7399 13.9103 25.3411 15.2433C24.5191 18.3252 22.6866 21.0421 20.1372 22.9588C17.5878 24.8755 14.4689 25.8813 11.2799 25.815C10.1344 25.8153 8.9929 25.6807 7.87891 25.4139C9.29945 24.9561 10.6277 24.2503 11.8021 23.3293C12.0184 23.159 12.1767 22.9259 12.2553 22.662C12.3338 22.3982 12.3289 22.1165 12.241 21.8556C12.1531 21.5947 11.9866 21.3674 11.7645 21.2048C11.5423 21.0423 11.2752 20.9525 10.9999 20.9478C9.89172 20.9305 8.83345 20.4838 8.04812 19.7017C8.24735 19.6639 8.44527 19.617 8.64188 19.561C8.92989 19.4791 9.18194 19.3025 9.35743 19.0599C9.53292 18.8173 9.62164 18.5226 9.60931 18.2234C9.59698 17.9242 9.48432 17.6379 9.28946 17.4105C9.0946 17.1831 8.82889 17.0279 8.53511 16.9699C7.89182 16.8429 7.2865 16.5692 6.76619 16.1701C6.24588 15.7711 5.82461 15.2575 5.53511 14.6691C5.77608 14.702 6.01859 14.7224 6.26167 14.7303C6.55044 14.7347 6.83312 14.6471 7.06883 14.4802C7.30454 14.3133 7.48106 14.0758 7.57287 13.8019C7.66084 13.5256 7.65631 13.2281 7.55997 12.9546C7.46363 12.6811 7.28073 12.4465 7.03901 12.2863C6.45254 11.8956 5.97214 11.3655 5.64082 10.7436C5.3095 10.1216 5.13762 9.4272 5.14057 8.72251C5.14057 8.63398 5.14317 8.54543 5.14839 8.45819C8.13673 11.2452 12.0128 12.8881 16.0937 13.0975C16.2997 13.1056 16.5049 13.0668 16.6937 12.984C16.8825 12.9013 17.05 12.7767 17.1836 12.6196C17.3158 12.4611 17.4094 12.2741 17.4571 12.0732C17.5048 11.8723 17.5052 11.6631 17.4582 11.4621C17.382 11.1439 17.3431 10.8179 17.3424 10.4907C17.3436 9.35012 17.7972 8.25656 18.6038 7.45003C19.4103 6.64349 20.5039 6.18985 21.6445 6.18865C22.2313 6.18707 22.8121 6.30718 23.3502 6.54137C23.8883 6.77557 24.372 7.11878 24.7708 7.54932C24.9246 7.71477 25.1181 7.83812 25.333 7.90764C25.5479 7.97716 25.7771 7.99054 25.9986 7.94651C26.5463 7.83992 27.0862 7.69637 27.6145 7.51683C27.2541 8.25413 26.7936 8.93809 26.246 9.54932Z" fill="white"></path>
  </symbol>
  <symbol fill="none" xmlns="http://www.w3.org/2000/svg" viewBox="0 0 72 72" id="team">
    <path d="M36.9 36.66C38.5007 35.2744 39.7847 33.5607 40.6646 31.6351C41.5446 29.7095 42 27.6171 42 25.5C42 21.5218 40.4197 17.7064 37.6066 14.8934C34.7936 12.0804 30.9783 10.5 27 10.5C23.0218 10.5 19.2064 12.0804 16.3934 14.8934C13.5804 17.7064 12 21.5218 12 25.5C12 27.6171 12.4554 29.7095 13.3354 31.6351C14.2153 33.5607 15.4993 35.2744 17.1 36.66C12.9004 38.5617 9.3374 41.6326 6.83694 45.5056C4.33649 49.3787 3.00442 53.8899 3 58.5C3 59.2957 3.31607 60.0587 3.87868 60.6213C4.44129 61.1839 5.20435 61.5 6 61.5C6.79565 61.5 7.55871 61.1839 8.12132 60.6213C8.68393 60.0587 9 59.2957 9 58.5C9 53.7261 10.8964 49.1477 14.2721 45.7721C17.6477 42.3964 22.2261 40.5 27 40.5C31.7739 40.5 36.3523 42.3964 39.7279 45.7721C43.1036 49.1477 45 53.7261 45 58.5C45 59.2957 45.3161 60.0587 45.8787 60.6213C46.4413 61.1839 47.2044 61.5 48 61.5C48.7957 61.5 49.5587 61.1839 50.1213 60.6213C50.6839 60.0587 51 59.2957 51 58.5C50.9956 53.8899 49.6635 49.3787 47.1631 45.5056C44.6626 41.6326 41.0996 38.5617 36.9 36.66ZM27 34.5C25.22 34.5 23.4799 33.9722 21.9999 32.9832C20.5198 31.9943 19.3663 30.5887 18.6851 28.9442C18.0039 27.2996 17.8257 25.49 18.1729 23.7442C18.5202 21.9984 19.3774 20.3947 20.636 19.136C21.8947 17.8774 23.4984 17.0202 25.2442 16.6729C26.99 16.3257 28.7996 16.5039 30.4442 17.1851C32.0887 17.8663 33.4943 19.0198 34.4832 20.4999C35.4722 21.9799 36 23.72 36 25.5C36 27.8869 35.0518 30.1761 33.364 31.864C31.6761 33.5518 29.387 34.5 27 34.5ZM56.22 35.46C58.1399 33.298 59.394 30.6272 59.8314 27.769C60.2688 24.9109 59.8708 21.9872 58.6853 19.35C57.4998 16.7128 55.5774 14.4744 53.1494 12.9043C50.7214 11.3342 47.8914 10.4992 45 10.5C44.2044 10.5 43.4413 10.8161 42.8787 11.3787C42.3161 11.9413 42 12.7044 42 13.5C42 14.2957 42.3161 15.0587 42.8787 15.6213C43.4413 16.1839 44.2044 16.5 45 16.5C47.387 16.5 49.6761 17.4482 51.364 19.136C53.0518 20.8239 54 23.1131 54 25.5C53.9958 27.0757 53.5779 28.6227 52.7882 29.9863C51.9985 31.3498 50.8646 32.4821 49.5 33.27C49.0552 33.5266 48.6837 33.893 48.4211 34.3342C48.1585 34.7754 48.0135 35.2767 48 35.79C47.9875 36.2993 48.1048 36.8034 48.341 37.2548C48.5772 37.7062 48.9244 38.09 49.35 38.37L50.52 39.15L50.91 39.36C54.5262 41.0752 57.5769 43.788 59.7029 47.1789C61.8289 50.5699 62.9416 54.4978 62.91 58.5C62.91 59.2957 63.2261 60.0587 63.7887 60.6213C64.3513 61.1839 65.1144 61.5 65.91 61.5C66.7057 61.5 67.4687 61.1839 68.0313 60.6213C68.5939 60.0587 68.91 59.2957 68.91 58.5C68.9345 53.8963 67.7815 49.3628 65.5604 45.3302C63.3393 41.2976 60.124 37.8999 56.22 35.46Z" fill="black" stroke="black"></path>
  </symbol>
  <symbol fill="none" xmlns="http://www.w3.org/2000/svg" viewBox="0 0 22 20" id="sight-building">
    <path d="M21 18H20V6H21C21.2652 6 21.5196 5.89464 21.7071 5.70711C21.8946 5.51957 22 5.26522 22 5C22 4.73478 21.8946 4.48043 21.7071 4.29289C21.5196 4.10536 21.2652 4 21 4H20V1C20 0.734784 19.8946 0.48043 19.7071 0.292893C19.5196 0.105357 19.2652 0 19 0H3C2.73478 0 2.48043 0.105357 2.29289 0.292893C2.10536 0.48043 2 0.734784 2 1V4H1C0.734784 4 0.48043 4.10536 0.292893 4.29289C0.105357 4.48043 0 4.73478 0 5C0 5.26522 0.105357 5.51957 0.292893 5.70711C0.48043 5.89464 0.734784 6 1 6H2V18H1C0.734784 18 0.48043 18.1054 0.292893 18.2929C0.105357 18.4804 0 18.7348 0 19C0 19.2652 0.105357 19.5196 0.292893 19.7071C0.48043 19.8946 0.734784 20 1 20H21C21.2652 20 21.5196 19.8946 21.7071 19.7071C21.8946 19.5196 22 19.2652 22 19C22 18.7348 21.8946 18.4804 21.7071 18.2929C21.5196 18.1054 21.2652 18 21 18ZM14 18H8V14.47C7.99759 13.3982 8.27261 12.3441 8.79831 11.4101C9.32402 10.4761 10.0825 9.69401 11 9.14C11.9175 9.69401 12.676 10.4761 13.2017 11.4101C13.7274 12.3441 14.0024 13.3982 14 14.47V18ZM18 18H16V14.47C16.0067 12.9403 15.5838 11.4394 14.7794 10.1382C13.975 8.837 12.8214 7.7878 11.45 7.11C11.3104 7.03967 11.1563 7.00303 11 7.00303C10.8437 7.00303 10.6896 7.03967 10.55 7.11C9.1786 7.7878 8.02504 8.837 7.22064 10.1382C6.41624 11.4394 5.99331 12.9403 6 14.47V18H4V6H18V18ZM18 4H4V2H18V4Z" fill="#6C7072"></path>
  </symbol>
  <symbol fill="none" xmlns="http://www.w3.org/2000/svg" viewBox="0 0 32 32" id="utensils">
    <path d="M20.7067 18.84C20.5827 18.715 20.4353 18.6158 20.2728 18.5481C20.1103 18.4804 19.936 18.4456 19.76 18.4456C19.584 18.4456 19.4097 18.4804 19.2472 18.5481C19.0848 18.6158 18.9373 18.715 18.8134 18.84C18.565 19.0898 18.4256 19.4277 18.4256 19.78C18.4256 20.1322 18.565 20.4702 18.8134 20.72L27.0534 28.96C27.1773 29.0849 27.3248 29.1841 27.4872 29.2518C27.6497 29.3195 27.824 29.3544 28 29.3544C28.176 29.3544 28.3503 29.3195 28.5128 29.2518C28.6753 29.1841 28.8227 29.0849 28.9467 28.96C29.195 28.7102 29.3344 28.3722 29.3344 28.02C29.3344 27.6677 29.195 27.3298 28.9467 27.08L20.7067 18.84ZM22.3467 15.52C23.4072 15.519 24.4239 15.097 25.1734 14.3466L28.9467 10.5733C29.195 10.3235 29.3344 9.98555 29.3344 9.63331C29.3344 9.28106 29.195 8.94312 28.9467 8.69331C28.8227 8.56833 28.6753 8.46914 28.5128 8.40145C28.3503 8.33376 28.176 8.29891 28 8.29891C27.824 8.29891 27.6497 8.33376 27.4872 8.40145C27.3248 8.46914 27.1773 8.56833 27.0534 8.69331L23.28 12.4666C23.0302 12.715 22.6923 12.8544 22.34 12.8544C21.9878 12.8544 21.6498 12.715 21.4 12.4666L26.12 7.74664C26.3684 7.49682 26.5077 7.15889 26.5077 6.80664C26.5077 6.45439 26.3684 6.11646 26.12 5.86664C25.9961 5.74167 25.8486 5.64247 25.6861 5.57478C25.5236 5.50709 25.3494 5.47224 25.1734 5.47224C24.9973 5.47224 24.8231 5.50709 24.6606 5.57478C24.4981 5.64247 24.3506 5.74167 24.2267 5.86664L19.52 10.5733C19.2717 10.3235 19.1323 9.98555 19.1323 9.63331C19.1323 9.28106 19.2717 8.94312 19.52 8.69331L23.28 4.91997C23.4196 4.80044 23.533 4.65335 23.613 4.48793C23.693 4.32251 23.738 4.14233 23.7451 3.95871C23.7522 3.77508 23.7212 3.59197 23.6542 3.42087C23.5872 3.24977 23.4855 3.09438 23.3556 2.96444C23.2256 2.8345 23.0702 2.73282 22.8991 2.66579C22.728 2.59876 22.5449 2.56781 22.3613 2.57491C22.1777 2.582 21.9975 2.62697 21.8321 2.707C21.6666 2.78704 21.5195 2.9004 21.4 3.03997L17.6267 6.81331C16.8776 7.56331 16.4569 8.57997 16.4569 9.63997C16.4569 10.7 16.8776 11.7166 17.6267 12.4666L16 14.12L13.92 12.0666C14.5103 11.0012 14.7336 9.77116 14.5553 8.56628C14.3769 7.36139 13.807 6.2487 12.9333 5.39997C11.0133 3.47997 6.04002 1.33331 3.69335 3.71997C1.34668 6.10664 3.46668 11.0266 5.33335 12.96C6.37579 14.0061 7.77733 14.6163 9.25335 14.6666H9.44002C10.3415 14.6538 11.224 14.4056 12 13.9466L14.0933 16L3.05335 27.04C2.92991 27.1643 2.83216 27.3117 2.76569 27.4738C2.69922 27.6359 2.66532 27.8095 2.66594 27.9847C2.66656 28.1599 2.70168 28.3332 2.7693 28.4949C2.83691 28.6565 2.9357 28.8032 3.06002 28.9266C3.18433 29.0501 3.33175 29.1478 3.49384 29.2143C3.65594 29.2808 3.82954 29.3147 4.00473 29.314C4.17992 29.3134 4.35328 29.2783 4.5149 29.2107C4.67652 29.1431 4.82324 29.0443 4.94668 28.92L16.9467 16.92L19.5067 14.36C19.8804 14.7307 20.3237 15.024 20.8111 15.2231C21.2984 15.4221 21.8203 15.523 22.3467 15.52ZM11.24 11.2533C10.9902 11.5016 10.6921 11.696 10.3641 11.8245C10.0362 11.9529 9.68534 12.0126 9.33335 12C8.55389 11.9664 7.81783 11.6318 7.28002 11.0666C5.84002 9.62664 4.82668 6.35997 5.58668 5.59997C5.83912 5.40955 6.15101 5.31504 6.46668 5.33331C8.16841 5.46894 9.77913 6.15724 11.0534 7.2933C11.5977 7.79693 11.9224 8.49432 11.9573 9.2351C11.9922 9.97587 11.7346 10.7007 11.24 11.2533Z" fill="black"></path>
  </symbol>
  <symbol fill="none" xmlns="http://www.w3.org/2000/svg" viewBox="0 0 68 21" id="visa">
    <path d="M63.4269 0.299805H59.1521C57.8597 0.299805 56.8655 0.699805 56.269 1.9998L48.117 20.6998H53.8831C53.8831 20.6998 54.8772 18.1998 55.0761 17.5998C55.6726 17.5998 61.3392 17.5998 62.1345 17.5998C62.3334 18.2998 62.8305 20.5998 62.8305 20.5998H68L63.4269 0.299805ZM56.6667 13.3998C57.1638 12.1998 58.8538 7.6998 58.8538 7.6998C58.8538 7.7998 59.3509 6.4998 59.5498 5.7998L59.9474 7.5998C59.9474 7.5998 61.041 12.4998 61.2398 13.4998H56.6667V13.3998Z" fill="#3362AB"></path>
    <path d="M48.5147 14C48.5147 18.2 44.7369 21 38.8714 21C36.386 21 34 20.5 32.7076 19.9L33.503 15.3L34.1989 15.6C35.9883 16.4 37.1813 16.7 39.3685 16.7C40.9591 16.7 42.6492 16.1 42.6492 14.7C42.6492 13.8 41.9533 13.2 39.7661 12.2C37.6784 11.2 34.8948 9.6 34.8948 6.7C34.8948 2.7 38.772 0 44.2398 0C46.3275 0 48.117 0.4 49.2106 0.9L48.4152 5.3L48.0176 4.9C47.0234 4.5 45.731 4.1 43.8421 4.1C41.7544 4.2 40.7603 5.1 40.7603 5.9C40.7603 6.8 41.9533 7.5 43.8421 8.4C47.0234 9.9 48.5147 11.6 48.5147 14Z" fill="#3362AB"></path>
    <path d="M0 0.500098L0.0994152 0.100098H8.64912C9.8421 0.100098 10.7368 0.500098 11.0351 1.8001L12.924 10.8001C11.0351 6.0001 6.66082 2.1001 0 0.500098Z" fill="#F9B50B"></path>
    <path d="M24.9532 0.300195L16.3041 20.6002H10.4386L5.46783 3.6002C9.04678 5.9002 12.0292 9.5002 13.1228 12.0002L13.7193 14.1002L19.0877 0.200195H24.9532V0.300195Z" fill="#3362AB"></path>
    <path d="M27.2398 0.200195H32.7076L29.2281 20.6002H23.7603L27.2398 0.200195Z" fill="#3362AB"></path>
  </symbol>
  <symbol fill="none" xmlns="http://www.w3.org/2000/svg" viewBox="0 0 28 24" id="arrow">
    <path d="M2 10.5C1.17157 10.5 0.5 11.1716 0.5 12C0.5 12.8284 1.17157 13.5 2 13.5V10.5ZM27.0607 13.0607C27.6464 12.4749 27.6464 11.5251 27.0607 10.9393L17.5147 1.3934C16.9289 0.807611 15.9792 0.807611 15.3934 1.3934C14.8076 1.97919 14.8076 2.92893 15.3934 3.51472L23.8787 12L15.3934 20.4853C14.8076 21.0711 14.8076 22.0208 15.3934 22.6066C15.9792 23.1924 16.9289 23.1924 17.5147 22.6066L27.0607 13.0607ZM2 13.5H26V10.5H2V13.5Z" fill="black"></path>
  </symbol>
  <symbol fill="none" xmlns="http://www.w3.org/2000/svg" viewBox="0 0 64 64" id="wallet">
    <path d="M50.6667 18.6667H48V16C48 13.8783 47.1572 11.8434 45.6569 10.3431C44.1566 8.84285 42.1218 8 40 8H13.3334C11.2116 8 9.17681 8.84285 7.67652 10.3431C6.17623 11.8434 5.33337 13.8783 5.33337 16V48C5.33337 50.1217 6.17623 52.1566 7.67652 53.6569C9.17681 55.1571 11.2116 56 13.3334 56H50.6667C52.7884 56 54.8233 55.1571 56.3236 53.6569C57.8239 52.1566 58.6667 50.1217 58.6667 48V26.6667C58.6667 24.5449 57.8239 22.5101 56.3236 21.0098C54.8233 19.5095 52.7884 18.6667 50.6667 18.6667ZM13.3334 13.3333H40C40.7073 13.3333 41.3856 13.6143 41.8857 14.1144C42.3858 14.6145 42.6667 15.2928 42.6667 16V18.6667H13.3334C12.6261 18.6667 11.9479 18.3857 11.4478 17.8856C10.9477 17.3855 10.6667 16.7072 10.6667 16C10.6667 15.2928 10.9477 14.6145 11.4478 14.1144C11.9479 13.6143 12.6261 13.3333 13.3334 13.3333ZM53.3334 40H50.6667C49.9595 40 49.2812 39.719 48.7811 39.219C48.281 38.7189 48 38.0406 48 37.3333C48 36.6261 48.281 35.9478 48.7811 35.4477C49.2812 34.9476 49.9595 34.6667 50.6667 34.6667H53.3334V40ZM53.3334 29.3333H50.6667C48.545 29.3333 46.5101 30.1762 45.0099 31.6765C43.5096 33.1768 42.6667 35.2116 42.6667 37.3333C42.6667 39.4551 43.5096 41.4899 45.0099 42.9902C46.5101 44.4905 48.545 45.3333 50.6667 45.3333H53.3334V48C53.3334 48.7072 53.0524 49.3855 52.5523 49.8856C52.0522 50.3857 51.374 50.6667 50.6667 50.6667H13.3334C12.6261 50.6667 11.9479 50.3857 11.4478 49.8856C10.9477 49.3855 10.6667 48.7072 10.6667 48V23.5467C11.5234 23.848 12.4252 24.0013 13.3334 24H50.6667C51.374 24 52.0522 24.281 52.5523 24.781C53.0524 25.2811 53.3334 25.9594 53.3334 26.6667V29.3333Z" fill="#BCFD49"></path>
  </symbol>
  <symbol xmlns="http://www.w3.org/2000/svg" viewBox="0 0 50 50" id="apple-logo">
    <path d="M 44.527344 34.75 C 43.449219 37.144531 42.929688 38.214844 41.542969 40.328125 C 39.601563 43.28125 36.863281 46.96875 33.480469 46.992188 C 30.46875 47.019531 29.691406 45.027344 25.601563 45.0625 C 21.515625 45.082031 20.664063 47.03125 17.648438 47 C 14.261719 46.96875 11.671875 43.648438 9.730469 40.699219 C 4.300781 32.429688 3.726563 22.734375 7.082031 17.578125 C 9.457031 13.921875 13.210938 11.773438 16.738281 11.773438 C 20.332031 11.773438 22.589844 13.746094 25.558594 13.746094 C 28.441406 13.746094 30.195313 11.769531 34.351563 11.769531 C 37.492188 11.769531 40.8125 13.480469 43.1875 16.433594 C 35.421875 20.691406 36.683594 31.78125 44.527344 34.75 Z M 31.195313 8.46875 C 32.707031 6.527344 33.855469 3.789063 33.4375 1 C 30.972656 1.167969 28.089844 2.742188 26.40625 4.78125 C 24.878906 6.640625 23.613281 9.398438 24.105469 12.066406 C 26.796875 12.152344 29.582031 10.546875 31.195313 8.46875 Z"></path>
  </symbol>
  <symbol fill="none" xmlns="http://www.w3.org/2000/svg" viewBox="0 0 32 32" id="bus-one">
    <path d="M11.3333 22.6667C11.6869 22.6667 12.0261 22.5262 12.2761 22.2762C12.5262 22.0261 12.6666 21.687 12.6666 21.3334C12.6732 21.2446 12.6732 21.1555 12.6666 21.0667C12.652 20.9832 12.6251 20.9023 12.5866 20.8267C12.5574 20.7417 12.5171 20.661 12.4666 20.5867L12.3066 20.3867C12.1798 20.2653 12.0303 20.1701 11.8666 20.1067C11.6174 19.9893 11.3379 19.9521 11.0666 20L10.8266 20.08L10.5866 20.2C10.5168 20.2492 10.45 20.3027 10.3866 20.36L10.2266 20.56C10.1762 20.6343 10.1358 20.7151 10.1066 20.8C10.0682 20.8756 10.0412 20.9565 10.0266 21.04C10.0201 21.1288 10.0201 21.2179 10.0266 21.3067C10.0266 21.6603 10.1671 21.9994 10.4172 22.2495C10.6672 22.4995 11.0063 22.64 11.36 22.64L11.3333 22.6667ZM22 22.6667C22.3536 22.6667 22.6927 22.5262 22.9428 22.2762C23.1928 22.0261 23.3333 21.687 23.3333 21.3334C23.3398 21.2446 23.3398 21.1555 23.3333 21.0667C23.3187 20.9832 23.2917 20.9023 23.2533 20.8267C23.2241 20.7417 23.1838 20.661 23.1333 20.5867L22.9733 20.3867C22.8437 20.2689 22.6949 20.1742 22.5333 20.1067C22.2087 19.9733 21.8446 19.9733 21.52 20.1067C21.3584 20.1742 21.2096 20.2689 21.08 20.3867L20.92 20.5867C20.8695 20.661 20.8291 20.7417 20.8 20.8267C20.7615 20.9023 20.7346 20.9832 20.72 21.0667C20.7134 21.1555 20.7134 21.2446 20.72 21.3334C20.7214 21.6831 20.8603 22.0183 21.1066 22.2667C21.3429 22.5085 21.6622 22.6514 22 22.6667ZM18 6.66669H15.3333C14.9797 6.66669 14.6405 6.80716 14.3905 7.05721C14.1404 7.30726 14 7.6464 14 8.00002C14 8.35364 14.1404 8.69278 14.3905 8.94283C14.6405 9.19288 14.9797 9.33335 15.3333 9.33335H18C18.3536 9.33335 18.6927 9.19288 18.9428 8.94283C19.1928 8.69278 19.3333 8.35364 19.3333 8.00002C19.3333 7.6464 19.1928 7.30726 18.9428 7.05721C18.6927 6.80716 18.3536 6.66669 18 6.66669ZM24.6666 2.66669H8.66663C7.60576 2.66669 6.58834 3.08811 5.8382 3.83826C5.08805 4.58841 4.66663 5.60582 4.66663 6.66669V22.6667C4.66895 23.4919 4.92646 24.2963 5.40388 24.9694C5.88129 25.6426 6.55523 26.1516 7.33329 26.4267V28C7.33329 28.3536 7.47377 28.6928 7.72382 28.9428C7.97387 29.1929 8.313 29.3334 8.66663 29.3334C9.02025 29.3334 9.35939 29.1929 9.60944 28.9428C9.85948 28.6928 9.99996 28.3536 9.99996 28V26.6667H23.3333V28C23.3333 28.3536 23.4738 28.6928 23.7238 28.9428C23.9739 29.1929 24.313 29.3334 24.6666 29.3334C25.0202 29.3334 25.3594 29.1929 25.6094 28.9428C25.8595 28.6928 26 28.3536 26 28V26.4267C26.778 26.1516 27.452 25.6426 27.9294 24.9694C28.4068 24.2963 28.6643 23.4919 28.6666 22.6667V6.66669C28.6666 5.60582 28.2452 4.58841 27.4951 3.83826C26.7449 3.08811 25.7275 2.66669 24.6666 2.66669ZM26 22.6667C26 23.0203 25.8595 23.3594 25.6094 23.6095C25.3594 23.8595 25.0202 24 24.6666 24H8.66663C8.313 24 7.97387 23.8595 7.72382 23.6095C7.47377 23.3594 7.33329 23.0203 7.33329 22.6667V18.6667H26V22.6667ZM26 16H7.33329V6.66669C7.33329 6.31307 7.47377 5.97393 7.72382 5.72388C7.97387 5.47383 8.313 5.33335 8.66663 5.33335H24.6666C25.0202 5.33335 25.3594 5.47383 25.6094 5.72388C25.8595 5.97393 26 6.31307 26 6.66669V16Z" fill="black"></path>
  </symbol>
  <symbol fill="none" xmlns="http://www.w3.org/2000/svg" viewBox="0 0 64 64" id="building">
    <path d="M37.3333 21.3335H39.9999C40.7072 21.3335 41.3854 21.0525 41.8855 20.5524C42.3856 20.0523 42.6666 19.3741 42.6666 18.6668C42.6666 17.9596 42.3856 17.2813 41.8855 16.7812C41.3854 16.2811 40.7072 16.0002 39.9999 16.0002H37.3333C36.626 16.0002 35.9477 16.2811 35.4476 16.7812C34.9475 17.2813 34.6666 17.9596 34.6666 18.6668C34.6666 19.3741 34.9475 20.0523 35.4476 20.5524C35.9477 21.0525 36.626 21.3335 37.3333 21.3335ZM37.3333 32.0002H39.9999C40.7072 32.0002 41.3854 31.7192 41.8855 31.2191C42.3856 30.719 42.6666 30.0407 42.6666 29.3335C42.6666 28.6263 42.3856 27.948 41.8855 27.4479C41.3854 26.9478 40.7072 26.6668 39.9999 26.6668H37.3333C36.626 26.6668 35.9477 26.9478 35.4476 27.4479C34.9475 27.948 34.6666 28.6263 34.6666 29.3335C34.6666 30.0407 34.9475 30.719 35.4476 31.2191C35.9477 31.7192 36.626 32.0002 37.3333 32.0002ZM23.9999 21.3335H26.6666C27.3738 21.3335 28.0521 21.0525 28.5522 20.5524C29.0523 20.0523 29.3333 19.3741 29.3333 18.6668C29.3333 17.9596 29.0523 17.2813 28.5522 16.7812C28.0521 16.2811 27.3738 16.0002 26.6666 16.0002H23.9999C23.2927 16.0002 22.6144 16.2811 22.1143 16.7812C21.6142 17.2813 21.3333 17.9596 21.3333 18.6668C21.3333 19.3741 21.6142 20.0523 22.1143 20.5524C22.6144 21.0525 23.2927 21.3335 23.9999 21.3335ZM23.9999 32.0002H26.6666C27.3738 32.0002 28.0521 31.7192 28.5522 31.2191C29.0523 30.719 29.3333 30.0407 29.3333 29.3335C29.3333 28.6263 29.0523 27.948 28.5522 27.4479C28.0521 26.9478 27.3738 26.6668 26.6666 26.6668H23.9999C23.2927 26.6668 22.6144 26.9478 22.1143 27.4479C21.6142 27.948 21.3333 28.6263 21.3333 29.3335C21.3333 30.0407 21.6142 30.719 22.1143 31.2191C22.6144 31.7192 23.2927 32.0002 23.9999 32.0002ZM55.9999 53.3335H53.3332V8.00016C53.3332 7.29292 53.0523 6.61464 52.5522 6.11454C52.0521 5.61445 51.3738 5.3335 50.6666 5.3335H13.3333C12.626 5.3335 11.9477 5.61445 11.4476 6.11454C10.9475 6.61464 10.6666 7.29292 10.6666 8.00016V53.3335H7.99992C7.29267 53.3335 6.6144 53.6144 6.1143 54.1145C5.6142 54.6146 5.33325 55.2929 5.33325 56.0002C5.33325 56.7074 5.6142 57.3857 6.1143 57.8858C6.6144 58.3859 7.29267 58.6668 7.99992 58.6668H55.9999C56.7072 58.6668 57.3854 58.3859 57.8855 57.8858C58.3856 57.3857 58.6666 56.7074 58.6666 56.0002C58.6666 55.2929 58.3856 54.6146 57.8855 54.1145C57.3854 53.6144 56.7072 53.3335 55.9999 53.3335ZM34.6666 53.3335H29.3333V42.6668H34.6666V53.3335ZM47.9999 53.3335H39.9999V40.0002C39.9999 39.2929 39.719 38.6146 39.2189 38.1145C38.7188 37.6144 38.0405 37.3335 37.3333 37.3335H26.6666C25.9593 37.3335 25.2811 37.6144 24.781 38.1145C24.2809 38.6146 23.9999 39.2929 23.9999 40.0002V53.3335H15.9999V10.6668H47.9999V53.3335Z" fill="#BCFD49"></path>
  </symbol>
  <symbol fill="none" xmlns="http://www.w3.org/2000/svg" viewBox="0 0 12 12" id="arrow-right">
    <path d="M0.999982 7L8.58998 7L5.28998 10.29C5.10168 10.4783 4.99589 10.7337 4.99589 11C4.99589 11.2663 5.10168 11.5217 5.28998 11.71C5.47828 11.8983 5.73368 12.0041 5.99998 12.0041C6.26628 12.0041 6.52168 11.8983 6.70998 11.71L11.71 6.71C11.801 6.6149 11.8724 6.50275 11.92 6.38C12.02 6.13654 12.02 5.86346 11.92 5.62C11.8724 5.49725 11.801 5.3851 11.71 5.29L6.70998 0.290001C6.61702 0.196273 6.50642 0.121877 6.38456 0.0711079C6.2627 0.020339 6.13199 -0.00579834 5.99998 -0.00579834C5.86797 -0.00579834 5.73726 0.020339 5.6154 0.0711079C5.49355 0.121877 5.38294 0.196273 5.28998 0.290001C5.19625 0.382964 5.12186 0.493564 5.07109 0.615423C5.02032 0.737283 4.99418 0.867989 4.99418 1C4.99418 1.13201 5.02032 1.26272 5.07109 1.38458C5.12186 1.50644 5.19625 1.61704 5.28998 1.71L8.58998 5L0.999982 5C0.734765 5 0.480411 5.10536 0.292874 5.29289C0.105338 5.48043 -1.81198e-05 5.73478 -1.81198e-05 6C-1.81198e-05 6.26522 0.105338 6.51957 0.292874 6.70711C0.480411 6.89464 0.734765 7 0.999982 7Z" fill="white"></path>
  </symbol>
  <symbol fill="none" xmlns="http://www.w3.org/2000/svg" viewBox="0 0 24 26" id="arrow-left">
    <g filter="url(#filter0_d_5_98)">
      <path d="M17 11H9.41L12.71 7.71C12.8983 7.52169 13.0041 7.2663 13.0041 7C13.0041 6.7337 12.8983 6.4783 12.71 6.29C12.5217 6.10169 12.2663 5.99591 12 5.99591C11.7337 5.99591 11.4783 6.10169 11.29 6.29L6.29 11.29C6.19896 11.3851 6.1276 11.4972 6.08 11.62C5.97999 11.8635 5.97999 12.1365 6.08 12.38C6.1276 12.5027 6.19896 12.6149 6.29 12.71L11.29 17.71C11.383 17.8037 11.4936 17.8781 11.6154 17.9289C11.7373 17.9797 11.868 18.0058 12 18.0058C12.132 18.0058 12.2627 17.9797 12.3846 17.9289C12.5064 17.8781 12.617 17.8037 12.71 17.71C12.8037 17.617 12.8781 17.5064 12.9289 17.3846C12.9797 17.2627 13.0058 17.132 13.0058 17C13.0058 16.868 12.9797 16.7373 12.9289 16.6154C12.8781 16.4936 12.8037 16.383 12.71 16.29L9.41 13H17C17.2652 13 17.5196 12.8946 17.7071 12.7071C17.8946 12.5196 18 12.2652 18 12C18 11.7348 17.8946 11.4804 17.7071 11.2929C17.5196 11.1054 17.2652 11 17 11Z" fill="white"></path>
    </g>
    <defs>
      <filter id="filter0_d_5_98" x="-4" y="0" width="32" height="32" filterUnits="userSpaceOnUse" color-interpolation-filters="sRGB">
        <feFlood flood-opacity="0" result="BackgroundImageFix"></feFlood>
        <feColorMatrix in="SourceAlpha" type="matrix" values="0 0 0 0 0 0 0 0 0 0 0 0 0 0 0 0 0 0 127 0" result="hardAlpha"></feColorMatrix>
        <feOffset dy="4"></feOffset>
        <feGaussianBlur stdDeviation="2"></feGaussianBlur>
        <feComposite in2="hardAlpha" operator="out"></feComposite>
        <feColorMatrix type="matrix" values="0 0 0 0 0 0 0 0 0 0 0 0 0 0 0 0 0 0 0.25 0"></feColorMatrix>
        <feBlend mode="normal" in2="BackgroundImageFix" result="effect1_dropShadow_5_98"></feBlend>
        <feBlend mode="normal" in="SourceGraphic" in2="effect1_dropShadow_5_98" result="shape"></feBlend>
      </filter>
    </defs>
  </symbol>
  <symbol fill="none" xmlns="http://www.w3.org/2000/svg" viewBox="0 0 64 64" id="bus-two">
    <path d="M49.3333 5.3335H17.3333C15.2115 5.3335 13.1767 6.17635 11.6764 7.67664C10.1761 9.17693 9.33325 11.2118 9.33325 13.3335V45.3335C9.33789 46.984 9.85293 48.5927 10.8078 49.939C11.7626 51.2853 13.1105 52.3033 14.6666 52.8535V56.0002C14.6666 56.7074 14.9475 57.3857 15.4476 57.8858C15.9477 58.3859 16.626 58.6668 17.3333 58.6668C18.0405 58.6668 18.7188 58.3859 19.2189 57.8858C19.719 57.3857 19.9999 56.7074 19.9999 56.0002V53.3335H46.6666V56.0002C46.6666 56.7074 46.9475 57.3857 47.4476 57.8858C47.9477 58.3859 48.626 58.6668 49.3333 58.6668C50.0405 58.6668 50.7188 58.3859 51.2189 57.8858C51.719 57.3857 51.9999 56.7074 51.9999 56.0002V52.8535C53.5561 52.3033 54.9039 51.2853 55.8587 49.939C56.8136 48.5927 57.3286 46.984 57.3333 45.3335V13.3335C57.3333 11.2118 56.4904 9.17693 54.9901 7.67664C53.4898 6.17635 51.455 5.3335 49.3333 5.3335ZM14.6666 21.3335H30.6666V32.0002H14.6666V21.3335ZM51.9999 45.3335C51.9999 46.0407 51.719 46.719 51.2189 47.2191C50.7188 47.7192 50.0405 48.0002 49.3333 48.0002H17.3333C16.626 48.0002 15.9477 47.7192 15.4476 47.2191C14.9475 46.719 14.6666 46.0407 14.6666 45.3335V37.3335H51.9999V45.3335ZM51.9999 32.0002H35.9999V21.3335H51.9999V32.0002ZM51.9999 16.0002H14.6666V13.3335C14.6666 12.6263 14.9475 11.948 15.4476 11.4479C15.9477 10.9478 16.626 10.6668 17.3333 10.6668H49.3333C50.0405 10.6668 50.7188 10.9478 51.2189 11.4479C51.719 11.948 51.9999 12.6263 51.9999 13.3335V16.0002ZM42.9866 45.1202C43.3072 45.2568 43.6514 45.3293 43.9999 45.3335C44.7072 45.3335 45.3854 45.0525 45.8855 44.5525C46.3856 44.0524 46.6666 43.3741 46.6666 42.6668C46.6797 42.4893 46.6797 42.311 46.6666 42.1335C46.6374 41.9664 46.5835 41.8047 46.5066 41.6535C46.4482 41.4836 46.3675 41.3222 46.2666 41.1735C46.1681 41.0338 46.0613 40.9002 45.9466 40.7735L45.5466 40.4535C45.3979 40.3526 45.2365 40.2719 45.0666 40.2135C44.9021 40.1128 44.7218 40.0406 44.5333 40.0002C44.1008 39.9098 43.6526 39.9282 43.229 40.0539C42.8055 40.1796 42.4198 40.4085 42.1066 40.7202C41.9919 40.8469 41.885 40.9805 41.7866 41.1202C41.6857 41.2688 41.605 41.4302 41.5466 41.6002C41.4697 41.7513 41.4158 41.9131 41.3866 42.0802C41.3735 42.2577 41.3735 42.436 41.3866 42.6135C41.3895 43.3131 41.6673 43.9835 42.1599 44.4802C42.3905 44.746 42.6715 44.9635 42.9866 45.1202ZM21.6533 45.1202C21.9738 45.2568 22.3181 45.3293 22.6666 45.3335C23.3738 45.3335 24.0521 45.0525 24.5522 44.5525C25.0523 44.0524 25.3333 43.3741 25.3333 42.6668C25.3463 42.4893 25.3463 42.311 25.3333 42.1335C25.3041 41.9664 25.2501 41.8047 25.1733 41.6535C25.1149 41.4836 25.0342 41.3222 24.9333 41.1735C24.8348 41.0338 24.7279 40.9002 24.6133 40.7735L24.2133 40.4535L23.7333 40.2135L23.1999 40.0002C22.7674 39.9098 22.3193 39.9282 21.8957 40.0539C21.4721 40.1796 21.0864 40.4085 20.7733 40.7202C20.6586 40.8469 20.5517 40.9805 20.4533 41.1202C20.3523 41.2688 20.2716 41.4302 20.2133 41.6002C20.1364 41.7513 20.0824 41.9131 20.0533 42.0802C20.0402 42.2577 20.0402 42.436 20.0533 42.6135C20.0562 43.3131 20.3339 43.9835 20.8266 44.4802C21.0572 44.746 21.3382 44.9635 21.6533 45.1202Z" fill="#BCFD49"></path>
  </symbol>
</svg>