<svg width="64" height="64" viewBox="0 0 64 64" fill="none" xmlns="http://www.w3.org/2000/svg">
<path d="M37.3333 21.3335H39.9999C40.7072 21.3335 41.3854 21.0525 41.8855 20.5524C42.3856 20.0523 42.6666 19.3741 42.6666 18.6668C42.6666 17.9596 42.3856 17.2813 41.8855 16.7812C41.3854 16.2811 40.7072 16.0002 39.9999 16.0002H37.3333C36.626 16.0002 35.9477 16.2811 35.4476 16.7812C34.9475 17.2813 34.6666 17.9596 34.6666 18.6668C34.6666 19.3741 34.9475 20.0523 35.4476 20.5524C35.9477 21.0525 36.626 21.3335 37.3333 21.3335ZM37.3333 32.0002H39.9999C40.7072 32.0002 41.3854 31.7192 41.8855 31.2191C42.3856 30.719 42.6666 30.0407 42.6666 29.3335C42.6666 28.6263 42.3856 27.948 41.8855 27.4479C41.3854 26.9478 40.7072 26.6668 39.9999 26.6668H37.3333C36.626 26.6668 35.9477 26.9478 35.4476 27.4479C34.9475 27.948 34.6666 28.6263 34.6666 29.3335C34.6666 30.0407 34.9475 30.719 35.4476 31.2191C35.9477 31.7192 36.626 32.0002 37.3333 32.0002ZM23.9999 21.3335H26.6666C27.3738 21.3335 28.0521 21.0525 28.5522 20.5524C29.0523 20.0523 29.3333 19.3741 29.3333 18.6668C29.3333 17.9596 29.0523 17.2813 28.5522 16.7812C28.0521 16.2811 27.3738 16.0002 26.6666 16.0002H23.9999C23.2927 16.0002 22.6144 16.2811 22.1143 16.7812C21.6142 17.2813 21.3333 17.9596 21.3333 18.6668C21.3333 19.3741 21.6142 20.0523 22.1143 20.5524C22.6144 21.0525 23.2927 21.3335 23.9999 21.3335ZM23.9999 32.0002H26.6666C27.3738 32.0002 28.0521 31.7192 28.5522 31.2191C29.0523 30.719 29.3333 30.0407 29.3333 29.3335C29.3333 28.6263 29.0523 27.948 28.5522 27.4479C28.0521 26.9478 27.3738 26.6668 26.6666 26.6668H23.9999C23.2927 26.6668 22.6144 26.9478 22.1143 27.4479C21.6142 27.948 21.3333 28.6263 21.3333 29.3335C21.3333 30.0407 21.6142 30.719 22.1143 31.2191C22.6144 31.7192 23.2927 32.0002 23.9999 32.0002ZM55.9999 53.3335H53.3332V8.00016C53.3332 7.29292 53.0523 6.61464 52.5522 6.11454C52.0521 5.61445 51.3738 5.3335 50.6666 5.3335H13.3333C12.626 5.3335 11.9477 5.61445 11.4476 6.11454C10.9475 6.61464 10.6666 7.29292 10.6666 8.00016V53.3335H7.99992C7.29267 53.3335 6.6144 53.6144 6.1143 54.1145C5.6142 54.6146 5.33325 55.2929 5.33325 56.0002C5.33325 56.7074 5.6142 57.3857 6.1143 57.8858C6.6144 58.3859 7.29267 58.6668 7.99992 58.6668H55.9999C56.7072 58.6668 57.3854 58.3859 57.8855 57.8858C58.3856 57.3857 58.6666 56.7074 58.6666 56.0002C58.6666 55.2929 58.3856 54.6146 57.8855 54.1145C57.3854 53.6144 56.7072 53.3335 55.9999 53.3335ZM34.6666 53.3335H29.3333V42.6668H34.6666V53.3335ZM47.9999 53.3335H39.9999V40.0002C39.9999 39.2929 39.719 38.6146 39.2189 38.1145C38.7188 37.6144 38.0405 37.3335 37.3333 37.3335H26.6666C25.9593 37.3335 25.2811 37.6144 24.781 38.1145C24.2809 38.6146 23.9999 39.2929 23.9999 40.0002V53.3335H15.9999V10.6668H47.9999V53.3335Z" fill="#BCFD49"/>
</svg>
