<svg width="64" height="64" viewBox="0 0 64 64" fill="none" xmlns="http://www.w3.org/2000/svg">
<path d="M49.3333 5.3335H17.3333C15.2115 5.3335 13.1767 6.17635 11.6764 7.67664C10.1761 9.17693 9.33325 11.2118 9.33325 13.3335V45.3335C9.33789 46.984 9.85293 48.5927 10.8078 49.939C11.7626 51.2853 13.1105 52.3033 14.6666 52.8535V56.0002C14.6666 56.7074 14.9475 57.3857 15.4476 57.8858C15.9477 58.3859 16.626 58.6668 17.3333 58.6668C18.0405 58.6668 18.7188 58.3859 19.2189 57.8858C19.719 57.3857 19.9999 56.7074 19.9999 56.0002V53.3335H46.6666V56.0002C46.6666 56.7074 46.9475 57.3857 47.4476 57.8858C47.9477 58.3859 48.626 58.6668 49.3333 58.6668C50.0405 58.6668 50.7188 58.3859 51.2189 57.8858C51.719 57.3857 51.9999 56.7074 51.9999 56.0002V52.8535C53.5561 52.3033 54.9039 51.2853 55.8587 49.939C56.8136 48.5927 57.3286 46.984 57.3333 45.3335V13.3335C57.3333 11.2118 56.4904 9.17693 54.9901 7.67664C53.4898 6.17635 51.455 5.3335 49.3333 5.3335ZM14.6666 21.3335H30.6666V32.0002H14.6666V21.3335ZM51.9999 45.3335C51.9999 46.0407 51.719 46.719 51.2189 47.2191C50.7188 47.7192 50.0405 48.0002 49.3333 48.0002H17.3333C16.626 48.0002 15.9477 47.7192 15.4476 47.2191C14.9475 46.719 14.6666 46.0407 14.6666 45.3335V37.3335H51.9999V45.3335ZM51.9999 32.0002H35.9999V21.3335H51.9999V32.0002ZM51.9999 16.0002H14.6666V13.3335C14.6666 12.6263 14.9475 11.948 15.4476 11.4479C15.9477 10.9478 16.626 10.6668 17.3333 10.6668H49.3333C50.0405 10.6668 50.7188 10.9478 51.2189 11.4479C51.719 11.948 51.9999 12.6263 51.9999 13.3335V16.0002ZM42.9866 45.1202C43.3072 45.2568 43.6514 45.3293 43.9999 45.3335C44.7072 45.3335 45.3854 45.0525 45.8855 44.5525C46.3856 44.0524 46.6666 43.3741 46.6666 42.6668C46.6797 42.4893 46.6797 42.311 46.6666 42.1335C46.6374 41.9664 46.5835 41.8047 46.5066 41.6535C46.4482 41.4836 46.3675 41.3222 46.2666 41.1735C46.1681 41.0338 46.0613 40.9002 45.9466 40.7735L45.5466 40.4535C45.3979 40.3526 45.2365 40.2719 45.0666 40.2135C44.9021 40.1128 44.7218 40.0406 44.5333 40.0002C44.1008 39.9098 43.6526 39.9282 43.229 40.0539C42.8055 40.1796 42.4198 40.4085 42.1066 40.7202C41.9919 40.8469 41.885 40.9805 41.7866 41.1202C41.6857 41.2688 41.605 41.4302 41.5466 41.6002C41.4697 41.7513 41.4158 41.9131 41.3866 42.0802C41.3735 42.2577 41.3735 42.436 41.3866 42.6135C41.3895 43.3131 41.6673 43.9835 42.1599 44.4802C42.3905 44.746 42.6715 44.9635 42.9866 45.1202ZM21.6533 45.1202C21.9738 45.2568 22.3181 45.3293 22.6666 45.3335C23.3738 45.3335 24.0521 45.0525 24.5522 44.5525C25.0523 44.0524 25.3333 43.3741 25.3333 42.6668C25.3463 42.4893 25.3463 42.311 25.3333 42.1335C25.3041 41.9664 25.2501 41.8047 25.1733 41.6535C25.1149 41.4836 25.0342 41.3222 24.9333 41.1735C24.8348 41.0338 24.7279 40.9002 24.6133 40.7735L24.2133 40.4535L23.7333 40.2135L23.1999 40.0002C22.7674 39.9098 22.3193 39.9282 21.8957 40.0539C21.4721 40.1796 21.0864 40.4085 20.7733 40.7202C20.6586 40.8469 20.5517 40.9805 20.4533 41.1202C20.3523 41.2688 20.2716 41.4302 20.2133 41.6002C20.1364 41.7513 20.0824 41.9131 20.0533 42.0802C20.0402 42.2577 20.0402 42.436 20.0533 42.6135C20.0562 43.3131 20.3339 43.9835 20.8266 44.4802C21.0572 44.746 21.3382 44.9635 21.6533 45.1202Z" fill="#BCFD49"/>
</svg>
