<svg width="32" height="32" viewBox="0 0 32 32" fill="none" xmlns="http://www.w3.org/2000/svg">
<path d="M11.3333 22.6667C11.6869 22.6667 12.0261 22.5262 12.2761 22.2762C12.5262 22.0261 12.6666 21.687 12.6666 21.3334C12.6732 21.2446 12.6732 21.1555 12.6666 21.0667C12.652 20.9832 12.6251 20.9023 12.5866 20.8267C12.5574 20.7417 12.5171 20.661 12.4666 20.5867L12.3066 20.3867C12.1798 20.2653 12.0303 20.1701 11.8666 20.1067C11.6174 19.9893 11.3379 19.9521 11.0666 20L10.8266 20.08L10.5866 20.2C10.5168 20.2492 10.45 20.3027 10.3866 20.36L10.2266 20.56C10.1762 20.6343 10.1358 20.7151 10.1066 20.8C10.0682 20.8756 10.0412 20.9565 10.0266 21.04C10.0201 21.1288 10.0201 21.2179 10.0266 21.3067C10.0266 21.6603 10.1671 21.9994 10.4172 22.2495C10.6672 22.4995 11.0063 22.64 11.36 22.64L11.3333 22.6667ZM22 22.6667C22.3536 22.6667 22.6927 22.5262 22.9428 22.2762C23.1928 22.0261 23.3333 21.687 23.3333 21.3334C23.3398 21.2446 23.3398 21.1555 23.3333 21.0667C23.3187 20.9832 23.2917 20.9023 23.2533 20.8267C23.2241 20.7417 23.1838 20.661 23.1333 20.5867L22.9733 20.3867C22.8437 20.2689 22.6949 20.1742 22.5333 20.1067C22.2087 19.9733 21.8446 19.9733 21.52 20.1067C21.3584 20.1742 21.2096 20.2689 21.08 20.3867L20.92 20.5867C20.8695 20.661 20.8291 20.7417 20.8 20.8267C20.7615 20.9023 20.7346 20.9832 20.72 21.0667C20.7134 21.1555 20.7134 21.2446 20.72 21.3334C20.7214 21.6831 20.8603 22.0183 21.1066 22.2667C21.3429 22.5085 21.6622 22.6514 22 22.6667ZM18 6.66669H15.3333C14.9797 6.66669 14.6405 6.80716 14.3905 7.05721C14.1404 7.30726 14 7.6464 14 8.00002C14 8.35364 14.1404 8.69278 14.3905 8.94283C14.6405 9.19288 14.9797 9.33335 15.3333 9.33335H18C18.3536 9.33335 18.6927 9.19288 18.9428 8.94283C19.1928 8.69278 19.3333 8.35364 19.3333 8.00002C19.3333 7.6464 19.1928 7.30726 18.9428 7.05721C18.6927 6.80716 18.3536 6.66669 18 6.66669ZM24.6666 2.66669H8.66663C7.60576 2.66669 6.58834 3.08811 5.8382 3.83826C5.08805 4.58841 4.66663 5.60582 4.66663 6.66669V22.6667C4.66895 23.4919 4.92646 24.2963 5.40388 24.9694C5.88129 25.6426 6.55523 26.1516 7.33329 26.4267V28C7.33329 28.3536 7.47377 28.6928 7.72382 28.9428C7.97387 29.1929 8.313 29.3334 8.66663 29.3334C9.02025 29.3334 9.35939 29.1929 9.60944 28.9428C9.85948 28.6928 9.99996 28.3536 9.99996 28V26.6667H23.3333V28C23.3333 28.3536 23.4738 28.6928 23.7238 28.9428C23.9739 29.1929 24.313 29.3334 24.6666 29.3334C25.0202 29.3334 25.3594 29.1929 25.6094 28.9428C25.8595 28.6928 26 28.3536 26 28V26.4267C26.778 26.1516 27.452 25.6426 27.9294 24.9694C28.4068 24.2963 28.6643 23.4919 28.6666 22.6667V6.66669C28.6666 5.60582 28.2452 4.58841 27.4951 3.83826C26.7449 3.08811 25.7275 2.66669 24.6666 2.66669ZM26 22.6667C26 23.0203 25.8595 23.3594 25.6094 23.6095C25.3594 23.8595 25.0202 24 24.6666 24H8.66663C8.313 24 7.97387 23.8595 7.72382 23.6095C7.47377 23.3594 7.33329 23.0203 7.33329 22.6667V18.6667H26V22.6667ZM26 16H7.33329V6.66669C7.33329 6.31307 7.47377 5.97393 7.72382 5.72388C7.97387 5.47383 8.313 5.33335 8.66663 5.33335H24.6666C25.0202 5.33335 25.3594 5.47383 25.6094 5.72388C25.8595 5.97393 26 6.31307 26 6.66669V16Z" fill="black"/>
</svg>
