<svg width="72" height="72" viewBox="0 0 72 72" fill="none" xmlns="http://www.w3.org/2000/svg">
<path d="M60 36V21C60 17.6863 57.3137 15 54 15H18C14.6863 15 12 17.6863 12 21V57C12 60.3137 14.6863 63 18 63H24M45 9V21M27 9V21M12 33H60M59.5715 45L40.9719 63.5997L33.0002 55.6284" stroke="#101010" stroke-width="6" stroke-linecap="round" stroke-linejoin="round"/>
<path d="M60 36V21C60 17.6863 57.3137 15 54 15H18C14.6863 15 12 17.6863 12 21V57C12 60.3137 14.6863 63 18 63H24M45 9V21M27 9V21M12 33H60M59.5715 45L40.9719 63.5997L33.0002 55.6284" stroke="black" stroke-opacity="0.2" stroke-width="6" stroke-linecap="round" stroke-linejoin="round"/>
</svg>
