<svg width="68" height="68" viewBox="0 0 68 68" fill="none" xmlns="http://www.w3.org/2000/svg">
<path d="M31 25H43C43.7957 25 44.5587 24.6839 45.1213 24.1213C45.6839 23.5587 46 22.7957 46 22C46 21.2044 45.6839 20.4413 45.1213 19.8787C44.5587 19.3161 43.7957 19 43 19H37V16C37 15.2044 36.6839 14.4413 36.1213 13.8787C35.5587 13.3161 34.7957 13 34 13C33.2044 13 32.4413 13.3161 31.8787 13.8787C31.3161 14.4413 31 15.2044 31 16V19C28.6131 19 26.3239 19.9482 24.6361 21.636C22.9482 23.3239 22 25.6131 22 28C22 30.387 22.9482 32.6761 24.6361 34.364C26.3239 36.0518 28.6131 37 31 37H37C37.7957 37 38.5587 37.3161 39.1213 37.8787C39.6839 38.4413 40 39.2044 40 40C40 40.7957 39.6839 41.5587 39.1213 42.1213C38.5587 42.6839 37.7957 43 37 43H25C24.2044 43 23.4413 43.3161 22.8787 43.8787C22.3161 44.4413 22 45.2044 22 46C22 46.7957 22.3161 47.5587 22.8787 48.1213C23.4413 48.6839 24.2044 49 25 49H31V52C31 52.7957 31.3161 53.5587 31.8787 54.1213C32.4413 54.6839 33.2044 55 34 55C34.7957 55 35.5587 54.6839 36.1213 54.1213C36.6839 53.5587 37 52.7957 37 52V49C39.387 49 41.6761 48.0518 43.364 46.364C45.0518 44.6761 46 42.387 46 40C46 37.6131 45.0518 35.3239 43.364 33.636C41.6761 31.9482 39.387 31 37 31H31C30.2044 31 29.4413 30.6839 28.8787 30.1213C28.3161 29.5587 28 28.7957 28 28C28 27.2044 28.3161 26.4413 28.8787 25.8787C29.4413 25.3161 30.2044 25 31 25V25ZM34 1C27.4732 1 21.093 2.93542 15.6662 6.5615C10.2394 10.1876 6.00968 15.3415 3.51199 21.3714C1.0143 27.4014 0.360788 34.0366 1.6341 40.438C2.90741 46.8394 6.05036 52.7194 10.6655 57.3345C15.2806 61.9497 21.1607 65.0926 27.562 66.3659C33.9634 67.6392 40.5986 66.9857 46.6286 64.488C52.6585 61.9903 57.8124 57.7606 61.4385 52.3338C65.0646 46.907 67 40.5268 67 34C67 25.2479 63.5232 16.8542 57.3345 10.6655C51.1458 4.47678 42.7522 1 34 1V1ZM34 61C28.6599 61 23.4397 59.4165 18.9996 56.4497C14.5595 53.4829 11.0988 49.2661 9.05527 44.3325C7.0117 39.3989 6.47701 33.9701 7.51881 28.7326C8.56061 23.4951 11.1321 18.6841 14.9081 14.9081C18.6841 11.1321 23.4951 8.5606 28.7326 7.5188C33.9701 6.477 39.3989 7.01169 44.3325 9.05525C49.2661 11.0988 53.4829 14.5595 56.4497 18.9996C59.4165 23.4397 61 28.6599 61 34C61 41.1608 58.1554 48.0284 53.0919 53.0919C48.0284 58.1554 41.1609 61 34 61V61Z" fill="black" stroke="black"/>
</svg>
