<svg width="30" height="26" viewBox="0 0 30 26" fill="none" xmlns="http://www.w3.org/2000/svg">
<path d="M19.4269 6.5C19.4269 9.07711 17.5485 11 15.4269 11C13.3053 11 11.4269 9.07711 11.4269 6.5C11.4269 3.92289 13.3053 2 15.4269 2C17.5485 2 19.4269 3.92289 19.4269 6.5Z" stroke="#222222" stroke-width="2" stroke-linecap="round"/>
<path d="M17.9385 3.78995C18.3208 3.19385 18.9018 2.69735 19.6211 2.37809C20.3409 2.05864 21.1565 1.93613 21.9618 2.03155C22.7671 2.12697 23.5117 2.43418 24.1041 2.90168C24.6954 3.36843 25.1043 3.96984 25.2981 4.62066C25.4914 5.26988 25.4669 5.95441 25.2259 6.59357C24.9841 7.23453 24.5299 7.8139 23.9024 8.24724C23.2741 8.68114 22.5062 8.94425 21.695 8.9921C20.8838 9.03995 20.0802 8.86946 19.388 8.50976" stroke="#222222" stroke-width="2"/>
<path d="M11.0013 3.70658C10.6898 3.09956 10.2352 2.62941 9.7109 2.33851C9.18874 2.04882 8.61279 1.94454 8.05129 2.02771C7.48866 2.11104 6.94414 2.38232 6.49182 2.82858C6.03819 3.27613 5.69994 3.87856 5.53596 4.56701C5.37197 5.25556 5.39346 5.98463 5.59653 6.6576C5.79954 7.33041 6.17032 7.90311 6.64528 8.31312C7.11867 8.72177 7.67407 8.95143 8.2388 8.99307C8.80296 9.03467 9.37393 8.8886 9.88218 8.55849" stroke="#222222" stroke-width="2"/>
<path d="M14.9269 13C22.6631 13 24.0994 20.2947 24.3661 23.0033C24.4202 23.5529 23.9792 24 23.4269 24H6.42688C5.87459 24 5.43356 23.5529 5.48767 23.0033C5.75434 20.2947 7.19063 13 14.9269 13Z" stroke="#222222" stroke-width="2" stroke-linecap="round"/>
<path d="M27.9647 20.0435L26.9839 20.2386V20.2386L27.9647 20.0435ZM16.8971 14.2717L16.1586 13.5974L14.9177 14.9565L16.7332 15.2582L16.8971 14.2717ZM24.0747 21.1335L23.1141 21.4114L23.323 22.1335H24.0747V21.1335ZM21.1271 13.368C23.0723 13.368 24.3891 14.4242 25.3252 15.8688C26.2772 17.3382 26.7599 19.1129 26.9839 20.2386L28.9455 19.8483C28.7022 18.6256 28.1577 16.5625 27.0036 14.7813C25.8335 12.9753 23.9652 11.368 21.1271 11.368V13.368ZM17.6356 14.946C18.4936 14.0063 19.6085 13.368 21.1271 13.368V11.368C18.9527 11.368 17.3273 12.3175 16.1586 13.5974L17.6356 14.946ZM16.7332 15.2582C20.6984 15.9171 22.3802 18.8748 23.1141 21.4114L25.0353 20.8556C24.2033 17.9798 22.1251 14.1268 17.061 13.2852L16.7332 15.2582ZM27.0344 20.1335H24.0747V22.1335H27.0344V20.1335ZM26.9839 20.2386C26.9823 20.2306 26.9815 20.2137 26.987 20.1934C26.9922 20.1746 27.0007 20.1607 27.0085 20.1517C27.0242 20.1336 27.0381 20.1335 27.0344 20.1335V22.1335C28.2012 22.1335 29.1946 21.1004 28.9455 19.8483L26.9839 20.2386Z" fill="#222222"/>
<path d="M13.0857 14.2717L13.2496 15.2582L15.065 14.9565L13.8242 13.5974L13.0857 14.2717ZM2.01803 20.0435L1.03726 19.8483L2.01803 20.0435ZM5.90812 21.1335V22.1335H6.65982L6.86873 21.4114L5.90812 21.1335ZM8.85566 13.368C10.3742 13.368 11.4892 14.0063 12.3472 14.946L13.8242 13.5974C12.6555 12.3175 11.0301 11.368 8.85566 11.368V13.368ZM2.9988 20.2386C3.22279 19.1129 3.70551 17.3382 4.65759 15.8688C5.59362 14.4242 6.91051 13.368 8.85566 13.368V11.368C6.01756 11.368 4.14928 12.9753 2.97912 14.7813C1.82502 16.5625 1.28055 18.6256 1.03726 19.8483L2.9988 20.2386ZM2.94829 20.1335C2.94466 20.1335 2.95854 20.1336 2.97419 20.1517C2.98198 20.1607 2.99052 20.1746 2.99569 20.1934C3.00125 20.2137 3.0004 20.2306 2.9988 20.2386L1.03726 19.8483C0.788134 21.1004 1.78155 22.1335 2.94829 22.1335V20.1335ZM5.90812 20.1335H2.94829V22.1335H5.90812V20.1335ZM6.86873 21.4114C7.60258 18.8749 9.28442 15.9171 13.2496 15.2582L12.9217 13.2852C7.85773 14.1268 5.77949 17.9798 4.94752 20.8556L6.86873 21.4114Z" fill="#222222"/>
</svg>
