<svg width="70" height="63" viewBox="0 0 70 63" fill="none" xmlns="http://www.w3.org/2000/svg">
<path d="M61.52 8.83011C59.9877 7.29712 58.1684 6.08104 56.1661 5.25136C54.1637 4.42167 52.0175 3.99463 49.85 3.99463C47.6825 3.99463 45.5363 4.42167 43.5339 5.25136C41.5315 6.08104 39.7123 7.29712 38.18 8.83011L35 12.0101L31.82 8.83011C28.7249 5.73503 24.5271 3.99623 20.15 3.99623C15.7729 3.99623 11.5751 5.73503 8.47999 8.83011C5.38491 11.9252 3.64612 16.123 3.64612 20.5001C3.64612 24.8772 5.38491 29.075 8.47999 32.1701L11.66 35.3501L35 58.6901L58.34 35.3501L61.52 32.1701C63.053 30.6378 64.269 28.8185 65.0987 26.8162C65.9284 24.8138 66.3555 22.6676 66.3555 20.5001C66.3555 18.3326 65.9284 16.1864 65.0987 14.184C64.269 12.1817 63.053 10.3624 61.52 8.83011V8.83011Z" stroke="black" stroke-width="7" stroke-linecap="round" stroke-linejoin="round"/>
</svg>
