<svg width="40" height="40" viewBox="0 0 40 40" fill="none" xmlns="http://www.w3.org/2000/svg">
<path d="M9.16663 16.6667V30.5C9.16663 31.4428 9.16663 31.9142 9.45952 32.2071C9.75241 32.5 10.2238 32.5 11.1666 32.5H28.8333C29.7761 32.5 30.2475 32.5 30.5404 32.2071C30.8333 31.9142 30.8333 31.4428 30.8333 30.5V16.6667" stroke="#101010" stroke-width="3"/>
<path d="M9.16663 16.6667V30.5C9.16663 31.4428 9.16663 31.9142 9.45952 32.2071C9.75241 32.5 10.2238 32.5 11.1666 32.5H28.8333C29.7761 32.5 30.2475 32.5 30.5404 32.2071C30.8333 31.9142 30.8333 31.4428 30.8333 30.5V16.6667" stroke="black" stroke-opacity="0.2" stroke-width="3"/>
<path d="M34.1667 19.1667L20.5767 9.57376C20.231 9.32972 19.7691 9.32971 19.4234 9.57376L5.83337 19.1667" stroke="#101010" stroke-width="3" stroke-linecap="round"/>
<path d="M34.1667 19.1667L20.5767 9.57376C20.231 9.32972 19.7691 9.32971 19.4234 9.57376L5.83337 19.1667" stroke="black" stroke-opacity="0.2" stroke-width="3" stroke-linecap="round"/>
<path d="M24.1666 31.6667V23.6667C24.1666 22.5621 23.2712 21.6667 22.1666 21.6667H17.8333C16.7287 21.6667 15.8333 22.5621 15.8333 23.6667V31.6667" stroke="#101010" stroke-width="3" stroke-linejoin="round"/>
<path d="M24.1666 31.6667V23.6667C24.1666 22.5621 23.2712 21.6667 22.1666 21.6667H17.8333C16.7287 21.6667 15.8333 22.5621 15.8333 23.6667V31.6667" stroke="black" stroke-opacity="0.2" stroke-width="3" stroke-linejoin="round"/>
<path d="M29.1667 15V9.16669" stroke="#101010" stroke-width="3" stroke-linecap="round"/>
<path d="M29.1667 15V9.16669" stroke="black" stroke-opacity="0.2" stroke-width="3" stroke-linecap="round"/>
</svg>
