<svg width="32" height="32" viewBox="0 0 32 32" fill="none" xmlns="http://www.w3.org/2000/svg">
<path d="M23.12 7.27984C22.8035 7.27984 22.4942 7.37368 22.231 7.54949C21.9679 7.7253 21.7629 7.97518 21.6418 8.26754C21.5207 8.55991 21.489 8.88161 21.5507 9.19198C21.6124 9.50235 21.7648 9.78744 21.9886 10.0112C22.2124 10.235 22.4974 10.3874 22.8078 10.4491C23.1182 10.5108 23.4399 10.4791 23.7323 10.358C24.0246 10.2369 24.2745 10.0319 24.4503 9.76875C24.6261 9.50563 24.72 9.19629 24.72 8.87984C24.72 8.45549 24.5514 8.04852 24.2513 7.74847C23.9513 7.44841 23.5443 7.27984 23.12 7.27984ZM29.2533 10.5065C29.2274 9.40024 29.0202 8.30571 28.64 7.2665C28.3009 6.37735 27.7733 5.57221 27.0933 4.9065C26.4331 4.22307 25.626 3.69874 24.7333 3.37317C23.6968 2.98138 22.6011 2.76945 21.4933 2.7465C20.08 2.6665 19.6266 2.6665 16 2.6665C12.3733 2.6665 11.92 2.6665 10.5066 2.7465C9.39883 2.76945 8.30308 2.98138 7.26663 3.37317C6.37553 3.70204 5.5692 4.22592 4.90663 4.9065C4.22319 5.56674 3.69886 6.37376 3.37329 7.2665C2.98151 8.30296 2.76957 9.39871 2.74663 10.5065C2.66663 11.9198 2.66663 12.3732 2.66663 15.9998C2.66663 19.6265 2.66663 20.0798 2.74663 21.4932C2.76957 22.601 2.98151 23.6967 3.37329 24.7332C3.69886 25.6259 4.22319 26.4329 4.90663 27.0932C5.5692 27.7738 6.37553 28.2976 7.26663 28.6265C8.30308 29.0183 9.39883 29.2302 10.5066 29.2532C11.92 29.3332 12.3733 29.3332 16 29.3332C19.6266 29.3332 20.08 29.3332 21.4933 29.2532C22.6011 29.2302 23.6968 29.0183 24.7333 28.6265C25.626 28.3009 26.4331 27.7766 27.0933 27.0932C27.7763 26.4299 28.3044 25.6241 28.64 24.7332C29.0202 23.694 29.2274 22.5994 29.2533 21.4932C29.2533 20.0798 29.3333 19.6265 29.3333 15.9998C29.3333 12.3732 29.3333 11.9198 29.2533 10.5065ZM26.8533 21.3332C26.8436 22.1795 26.6903 23.0181 26.4 23.8132C26.1871 24.3934 25.8451 24.9177 25.4 25.3465C24.9675 25.7872 24.4443 26.1284 23.8666 26.3465C23.0716 26.6368 22.233 26.7901 21.3866 26.7998C20.0533 26.8665 19.56 26.8798 16.0533 26.8798C12.5466 26.8798 12.0533 26.8798 10.72 26.7998C9.84115 26.8163 8.96609 26.681 8.13329 26.3998C7.581 26.1706 7.08177 25.8302 6.66663 25.3998C6.22408 24.9715 5.88642 24.4468 5.67996 23.8665C5.35443 23.06 5.17388 22.2024 5.14663 21.3332C5.14663 19.9998 5.06663 19.5065 5.06663 15.9998C5.06663 12.4932 5.06663 11.9998 5.14663 10.6665C5.1526 9.80124 5.31056 8.94376 5.61329 8.13317C5.84802 7.57039 6.20831 7.06872 6.66663 6.6665C7.07171 6.20806 7.57234 5.84397 8.13329 5.59984C8.94603 5.30656 9.80262 5.15328 10.6666 5.1465C12 5.1465 12.4933 5.0665 16 5.0665C19.5066 5.0665 20 5.0665 21.3333 5.1465C22.1797 5.15621 23.0182 5.3095 23.8133 5.59984C24.4192 5.82471 24.963 6.1903 25.4 6.6665C25.8369 7.07608 26.1783 7.57681 26.4 8.13317C26.6963 8.94508 26.8497 9.80221 26.8533 10.6665C26.92 11.9998 26.9333 12.4932 26.9333 15.9998C26.9333 19.5065 26.92 19.9998 26.8533 21.3332ZM16 9.15984C14.6477 9.16247 13.3266 9.56587 12.2035 10.3191C11.0804 11.0723 10.2058 12.1414 9.69014 13.3915C9.17448 14.6416 9.04093 16.0165 9.30635 17.3424C9.57178 18.6684 10.2243 19.8859 11.1814 20.8411C12.1385 21.7964 13.3573 22.4465 14.6838 22.7094C16.0102 22.9722 17.3848 22.836 18.6339 22.3179C19.883 21.7998 20.9505 20.9231 21.7015 19.7985C22.4525 18.674 22.8533 17.3521 22.8533 15.9998C22.8551 15.1 22.6789 14.2086 22.3349 13.3771C21.991 12.5456 21.486 11.7903 20.8491 11.1546C20.2122 10.5189 19.4559 10.0154 18.6237 9.67308C17.7915 9.33074 16.8998 9.15632 16 9.15984ZM16 20.4398C15.1218 20.4398 14.2634 20.1794 13.5332 19.6916C12.8031 19.2037 12.234 18.5103 11.8979 17.699C11.5619 16.8876 11.474 15.9949 11.6453 15.1336C11.8166 14.2724 12.2395 13.4812 12.8604 12.8603C13.4814 12.2393 14.2725 11.8165 15.1338 11.6452C15.995 11.4738 16.8878 11.5618 17.6991 11.8978C18.5104 12.2339 19.2038 12.803 19.6917 13.5331C20.1796 14.2633 20.44 15.1217 20.44 15.9998C20.44 16.5829 20.3251 17.1603 20.102 17.699C19.8789 18.2376 19.5518 18.7271 19.1395 19.1394C18.7272 19.5517 18.2378 19.8787 17.6991 20.1019C17.1604 20.325 16.583 20.4398 16 20.4398Z" fill="white"/>
</svg>
