<svg width="41" height="32" viewBox="0 0 41 32" fill="none" xmlns="http://www.w3.org/2000/svg">
<path d="M40.997 9.94008L39.4786 14.6243H18.2209L16.7025 9.94008H40.997ZM25.8129 0L32.2647 4.55522V24.5333C32.2647 25.1071 32.3314 25.5542 32.4649 25.8745C32.5983 26.1814 32.8252 26.4016 33.1455 26.5351C33.4791 26.6552 33.9195 26.7152 34.4667 26.7152C34.8537 26.7152 35.174 26.7086 35.4275 26.6952C35.6811 26.6685 39.2517 26.6122 39.4786 26.5721L36.1482 31.4195C35.5743 31.6063 34.9738 31.7464 34.3466 31.8399C33.7193 31.9466 33.0521 32 32.3448 32C30.9035 32 29.669 31.7731 28.6414 31.3194C27.6272 30.8656 26.8531 30.1517 26.3193 29.1775C25.7855 28.2032 25.5186 26.9354 25.5186 25.374L25.8129 0Z" fill="#101010"/>
<path d="M40.997 9.94008L39.4786 14.6243H18.2209L16.7025 9.94008H40.997ZM25.8129 0L32.2647 4.55522V24.5333C32.2647 25.1071 32.3314 25.5542 32.4649 25.8745C32.5983 26.1814 32.8252 26.4016 33.1455 26.5351C33.4791 26.6552 33.9195 26.7152 34.4667 26.7152C34.8537 26.7152 35.174 26.7086 35.4275 26.6952C35.6811 26.6685 39.2517 26.6122 39.4786 26.5721L36.1482 31.4195C35.5743 31.6063 34.9738 31.7464 34.3466 31.8399C33.7193 31.9466 33.0521 32 32.3448 32C30.9035 32 29.669 31.7731 28.6414 31.3194C27.6272 30.8656 26.8531 30.1517 26.3193 29.1775C25.7855 28.2032 25.5186 26.9354 25.5186 25.374L25.8129 0Z" fill="black" fill-opacity="0.2"/>
<path d="M16.5228 0V31.8866H9.07801V0H16.5228ZM25.8129 0V5.93493H0V0H25.8129Z" fill="#101010"/>
<path d="M16.5228 0V31.8866H9.07801V0H16.5228ZM25.8129 0V5.93493H0V0H25.8129Z" fill="black" fill-opacity="0.2"/>
</svg>
