<svg width="50" height="30" viewBox="0 0 50 30" fill="none" xmlns="http://www.w3.org/2000/svg">
<path d="M50 15C50 23.2308 43.3077 30 35 30C26.7692 30 20 23.2308 20 15C20 6.76923 26.6923 0 34.9231 0C43.3077 0 50 6.76923 50 15Z" fill="#F9B50B"/>
<path d="M29.9231 15.0769C29.9231 14 29.7692 12.9231 29.6154 11.9231H20.3846C20.4615 11.3846 20.6154 10.9231 20.7692 10.3077H29C28.8462 9.76923 28.6154 9.23077 28.3846 8.69231H21.3846C21.6154 8.15385 21.9231 7.69231 22.2308 7.07692H27.5385C27.2308 6.53846 26.8462 6 26.3846 5.46154H23.4615C23.9231 4.92308 24.3846 4.46154 25 3.92308C22.3846 1.46154 18.8462 0 14.9231 0C6.76923 0.230769 0 6.76923 0 15C0 23.2308 6.69231 30 15 30C18.9231 30 22.3846 28.4615 25.0769 26.0769C25.6154 25.6154 26.0769 25.0769 26.6154 24.4615H23.5385C23.1538 24 22.7692 23.4615 22.4615 22.9231H27.6923C28 22.4615 28.3077 21.9231 28.5385 21.3077H21.5385C21.3077 20.8462 21.0769 20.3077 20.9231 19.6923H29.1539C29.6154 18.3077 29.9231 16.7692 29.9231 15.0769Z" fill="#C8191C"/>
<path d="M20.3077 18.8467L20.5385 17.4621C20.4615 17.4621 20.3077 17.539 20.1538 17.539C19.6154 17.539 19.5385 17.2313 19.6154 17.0774L20.0769 14.3082H20.9231L21.1538 12.7698H20.3846L20.5385 11.8467H18.9231C18.9231 11.8467 18 17.0774 18 17.6928C18 18.6159 18.5385 19.0774 19.3077 19.0774C19.7692 19.0774 20.1538 18.9236 20.3077 18.8467Z" fill="white"/>
<path d="M20.8461 16.308C20.8461 18.5388 22.3846 19.0772 23.6154 19.0772C24.7692 19.0772 25.3077 18.8465 25.3077 18.8465L25.6154 17.308C25.6154 17.308 24.7692 17.6926 23.9231 17.6926C22.1538 17.6926 22.4615 16.3849 22.4615 16.3849H25.6923C25.6923 16.3849 25.9231 15.3849 25.9231 14.9234C25.9231 13.9234 25.3846 12.6157 23.6154 12.6157C22.0769 12.5388 20.8461 14.308 20.8461 16.308ZM23.6154 14.0003C24.4615 14.0003 24.3077 15.0003 24.3077 15.0772H22.5384C22.6154 15.0003 22.7692 14.0003 23.6154 14.0003Z" fill="white"/>
<path d="M33.6923 18.8464L34 17.0771C34 17.0771 33.2308 17.4618 32.6154 17.4618C31.5384 17.4618 31 16.6156 31 15.6156C31 13.6925 31.9231 12.6925 33.0769 12.6925C33.8461 12.6925 34.5384 13.1541 34.5384 13.1541L34.7692 11.4618C34.7692 11.4618 33.8461 11.0771 32.9231 11.0771C31.0769 11.0771 29.3077 12.6925 29.3077 15.6925C29.3077 17.6925 30.2308 19.0002 32.1538 19.0002C32.8461 19.0771 33.6923 18.8464 33.6923 18.8464Z" fill="white"/>
<path d="M11.6154 12.5381C10.5385 12.5381 9.69234 12.8458 9.69234 12.8458L9.46157 14.2304C9.46157 14.2304 10.1539 13.9227 11.2308 13.9227C11.7693 13.9227 12.2308 13.9996 12.2308 14.4612C12.2308 14.7689 12.1539 14.8458 12.1539 14.8458H11.4616C10.077 14.8458 8.61542 15.3842 8.61542 17.2304C8.61542 18.6919 9.53849 18.9996 10.1539 18.9996C11.2308 18.9996 11.7693 18.3073 11.8462 18.3073L11.7693 18.9227H13.077L13.6923 14.5381C13.6923 12.615 12.1539 12.5381 11.6154 12.5381ZM11.9231 16.0765C11.9231 16.3073 11.7693 17.615 10.8462 17.615C10.3846 17.615 10.2308 17.2304 10.2308 16.9996C10.2308 16.615 10.4616 16.0765 11.6923 16.0765C11.8462 16.0765 11.9231 16.0765 11.9231 16.0765Z" fill="white"/>
<path d="M15.2309 19.0004C15.6155 19.0004 17.6155 19.0773 17.6155 16.9235C17.6155 14.9235 15.6924 15.3081 15.6924 14.5388C15.6924 14.1542 16.0001 14.0004 16.5386 14.0004C16.7693 14.0004 17.6155 14.0773 17.6155 14.0773L17.8463 12.6158C17.8463 12.6158 17.3078 12.4619 16.3078 12.4619C15.154 12.4619 13.9232 12.9235 13.9232 14.5388C13.9232 16.385 15.9232 16.2311 15.9232 16.9235C15.9232 17.385 15.3847 17.4619 15.0001 17.4619C14.3078 17.4619 13.5386 17.2311 13.5386 17.2311L13.3078 18.6927C13.4616 18.8465 13.9232 19.0004 15.2309 19.0004Z" fill="white"/>
<path d="M46.923 11.3076L46.6153 13.4615C46.6153 13.4615 45.9999 12.6922 45.0768 12.6922C43.6153 12.6922 42.3845 14.4615 42.3845 16.5384C42.3845 17.8461 42.9999 19.1538 44.3845 19.1538C45.3076 19.1538 45.923 18.5384 45.923 18.5384L45.8461 19.0768H47.4614L48.6153 11.4615L46.923 11.3076ZM46.1538 15.4615C46.1538 16.3076 45.7691 17.4615 44.8461 17.4615C44.3076 17.4615 43.9999 16.9999 43.9999 16.1538C43.9999 14.8461 44.5384 14.0768 45.3076 14.0768C45.8461 14.1538 46.1538 14.5384 46.1538 15.4615Z" fill="white"/>
<path d="M2.92304 18.923L3.84612 13.2307L3.99997 18.923H5.07689L7.15381 13.2307L6.30766 18.923H7.99997L9.30766 11.3076H6.69227L5.07689 15.9999L4.99997 11.3076H2.69227L1.38458 18.923H2.92304Z" fill="white"/>
<path d="M27.5385 18.9232C28 16.3078 28.0769 14.1539 29.2308 14.5385C29.3846 13.5385 29.6154 13.077 29.7692 12.6924H29.4615C28.7692 12.6924 28.1538 13.6155 28.1538 13.6155L28.3077 12.7693H26.7692L25.7692 18.9232H27.5385Z" fill="white"/>
<path d="M37.3846 12.5381C36.3077 12.5381 35.4615 12.8458 35.4615 12.8458L35.2307 14.2304C35.2307 14.2304 35.923 13.9227 37 13.9227C37.5384 13.9227 38 13.9996 38 14.4612C38 14.7689 37.923 14.8458 37.923 14.8458H37.2307C35.8461 14.8458 34.3846 15.3842 34.3846 17.2304C34.3846 18.6919 35.3077 18.9996 35.923 18.9996C37 18.9996 37.5384 18.3073 37.6154 18.3073L37.5384 18.9227H39L39.6154 14.5381C39.6154 12.615 37.923 12.5381 37.3846 12.5381ZM37.7692 16.0765C37.7692 16.3073 37.6154 17.615 36.6923 17.615C36.2307 17.615 36.0769 17.2304 36.0769 16.9996C36.0769 16.615 36.3077 16.0765 37.5384 16.0765C37.6923 16.0765 37.6923 16.0765 37.7692 16.0765Z" fill="white"/>
<path d="M40.8462 18.9232C41.3077 16.3078 41.3847 14.1539 42.5385 14.5385C42.6923 13.5385 42.9231 13.077 43.077 12.6924H42.7693C42.077 12.6924 41.4616 13.6155 41.4616 13.6155L41.6154 12.7693H40.077L39.077 18.9232H40.8462Z" fill="white"/>
</svg>
