<svg width="85" height="21" viewBox="0 0 85 21" fill="none" xmlns="http://www.w3.org/2000/svg">
<path d="M32.3705 9.00011C32.1503 10.6668 30.8291 10.6668 29.6179 10.6668H28.9573L29.5078 7.44455C29.5078 7.22233 29.728 7.11122 29.9482 7.11122H30.2786C31.1594 7.11122 31.9301 7.11122 32.3705 7.55566C32.3705 8.00011 32.3705 8.44455 32.3705 9.00011ZM31.82 4.55566H27.0855C26.7552 4.55566 26.535 4.77789 26.4249 5.11122L24.5532 17.3334C24.5532 17.5557 24.6633 17.7779 24.9936 17.7779H27.1957C27.526 17.7779 27.7462 17.5557 27.8563 17.2223L28.4068 13.889C28.4068 13.5557 28.7371 13.3334 29.0674 13.3334H30.6089C33.6918 13.3334 35.4534 11.7779 36.0039 8.77788C36.2241 7.44455 36.0039 6.44455 35.4534 5.66678C34.5726 5.00011 33.3615 4.55566 31.82 4.55566Z" fill="#263577"/>
<path d="M42.7203 13.4445C42.5001 14.7778 41.5091 15.6667 40.1879 15.6667C39.5273 15.6667 38.9768 15.4445 38.6465 15.0001C38.3161 14.5556 38.206 14.0001 38.3161 13.4445C38.5363 12.1112 39.5273 11.2223 40.8485 11.2223C41.5091 11.2223 42.0597 11.4445 42.39 11.8889C42.6102 12.2223 42.8304 12.7778 42.7203 13.4445ZM45.8032 9.00006H43.6011C43.3809 9.00006 43.2708 9.11117 43.1607 9.33339L43.0506 10.0001L42.9405 9.77783C42.5001 9.11117 41.399 8.77783 40.298 8.77783C37.7656 8.77783 35.6736 10.6667 35.2332 13.3334C35.013 14.6667 35.3433 15.8889 36.114 16.7778C36.7747 17.5556 37.7656 17.8889 38.9767 17.8889C40.9586 17.8889 42.0596 16.5556 42.0596 16.5556L41.9496 17.2223C41.9496 17.4445 42.0597 17.6667 42.39 17.6667H44.3718C44.7021 17.6667 44.9223 17.4445 45.0325 17.1112L46.2436 9.33339C46.2436 9.22228 46.1335 9.00006 45.8032 9.00006Z" fill="#263577"/>
<path d="M57.8044 9H55.4922C55.272 9 55.0518 9.11111 54.9417 9.33333L51.8588 14L50.5375 9.55556C50.4274 9.22222 50.2072 9.11111 49.8769 9.11111H47.6748C47.4546 9.11111 47.2344 9.33333 47.3445 9.66666L49.8769 17L47.5647 20.3333C47.3445 20.5556 47.5647 21 47.8951 21H50.2072C50.4274 21 50.6477 20.8889 50.7578 20.6667L58.2448 9.66666C58.3549 9.33333 58.1347 9 57.8044 9Z" fill="#263577"/>
<path d="M65.842 9.00011C65.6218 10.6668 64.3005 10.6668 63.0894 10.6668H62.4287L62.9793 7.44455C62.9793 7.22233 63.1995 7.11122 63.4197 7.11122H63.75C64.6308 7.11122 65.4015 7.11122 65.842 7.55566C65.9521 8.00011 65.9521 8.44455 65.842 9.00011ZM65.2914 4.55566H60.557C60.2267 4.55566 60.0065 4.77789 59.8964 5.11122L58.0246 17.3334C58.0246 17.5557 58.1347 17.7779 58.465 17.7779H60.8873C61.1075 17.7779 61.3277 17.6668 61.3277 17.3334L61.8782 13.889C61.8782 13.5557 62.2085 13.3334 62.5389 13.3334H64.0803C67.1632 13.3334 68.9249 11.7779 69.4754 8.77788C69.6956 7.44455 69.4754 6.44455 68.9249 5.66678C68.1542 5.00011 66.943 4.55566 65.2914 4.55566Z" fill="#2199D6"/>
<path d="M76.3019 13.4445C76.0817 14.7778 75.0908 15.6667 73.7696 15.6667C73.1089 15.6667 72.5584 15.4445 72.2281 15.0001C71.8978 14.5556 71.7877 14.0001 71.8978 13.4445C72.118 12.1112 73.1089 11.2223 74.4302 11.2223C75.0908 11.2223 75.6413 11.4445 75.9716 11.8889C76.1918 12.2223 76.412 12.7778 76.3019 13.4445ZM79.3849 9.00006H77.1828C76.9626 9.00006 76.8524 9.11117 76.7423 9.33339L76.6323 10.0001L76.5222 9.77783C76.0817 9.11117 74.9807 8.77783 73.8797 8.77783C71.3473 8.77783 69.2553 10.6667 68.8149 13.3334C68.5947 14.6667 68.925 15.8889 69.6957 16.7778C70.3563 17.5556 71.3473 17.8889 72.5584 17.8889C74.5403 17.8889 75.6413 16.5556 75.6413 16.5556L75.5312 17.2223C75.5312 17.4445 75.6413 17.6667 75.9716 17.6667H77.9535C78.2838 17.6667 78.504 17.4445 78.6141 17.1112L79.8253 9.33339C79.8253 9.22228 79.6051 9.00006 79.3849 9.00006Z" fill="#2199D6"/>
<path d="M82.0272 4.889L80.0453 17.3334C80.0453 17.5557 80.1554 17.7779 80.4857 17.7779H82.4676C82.7979 17.7779 83.0181 17.5557 83.1282 17.2223L85 5.00011C85 4.77789 84.8899 4.55566 84.5595 4.55566H82.3575C82.2474 4.55566 82.1373 4.77789 82.0272 4.889Z" fill="#2199D6"/>
<path d="M4.95464 20.1114L5.28493 17.7781H4.51421H0.660583L3.30308 0.778102C3.30308 0.778102 3.30307 0.666992 3.41317 0.666992H3.52329H10.0194C12.1114 0.666992 13.6528 1.11144 14.4235 2.00033C14.7539 2.44477 14.9741 2.88922 15.0842 3.33366C15.1943 3.88922 15.1943 4.44477 15.0842 5.22255V5.66699L15.4145 5.88921C15.7448 6.00033 15.965 6.22255 16.1852 6.44477C16.5155 6.7781 16.7357 7.22255 16.7357 7.7781C16.8458 8.33366 16.8458 9.00033 16.6256 9.7781C16.4054 10.667 16.1852 11.3337 15.8549 12.0003C15.5246 12.5559 15.0842 13.0003 14.6437 13.4448C14.2033 13.7781 13.5427 14.0003 12.9922 14.2225C12.3316 14.3337 11.671 14.4448 10.9002 14.4448H10.3497C10.0194 14.4448 9.68909 14.5559 9.35878 14.7781C9.13857 15.0003 8.91837 15.3337 8.80826 15.667V15.8892L8.14764 20.0003V20.1114V20.2225C8.14764 20.2225 8.14763 20.2225 8.03753 20.2225H4.95464V20.1114Z" fill="#263577"/>
<path d="M15.855 5.22266C15.855 5.33377 15.8549 5.44488 15.7448 5.55599C14.864 10.0004 12.0013 11.4449 8.25781 11.4449H6.38603C5.94562 11.4449 5.50521 11.7782 5.50521 12.2227L4.51427 18.4449L4.29407 20.2227C4.29407 20.556 4.51427 20.7782 4.73448 20.7782H8.1477C8.58811 20.7782 8.91842 20.4449 8.91842 20.1115V19.8893L9.57905 15.8893V15.6671C9.68915 15.2227 10.0195 15.0004 10.3498 15.0004H10.9003C14.2034 15.0004 16.7358 13.6671 17.3964 9.77821C17.7267 8.11155 17.5065 6.77821 16.7358 5.88933C16.5156 5.6671 16.1853 5.44488 15.855 5.22266Z" fill="#2199D6"/>
<path d="M14.9741 4.889C14.864 4.889 14.7539 4.77789 14.5337 4.77789C14.4236 4.77789 14.2034 4.66677 14.0933 4.66677C13.5427 4.55566 12.9922 4.55566 12.4417 4.55566H7.37695C7.26684 4.55566 7.15674 4.55566 7.04663 4.66677C6.82643 4.77788 6.60622 5.00011 6.60622 5.22233L5.50519 12.1112V12.3334C5.61529 11.889 5.94559 11.5557 6.386 11.5557H8.25778C12.0013 11.5557 14.864 10.0001 15.7448 5.66678C15.7448 5.55566 15.7448 5.44455 15.8549 5.33344C15.6347 5.22233 15.4145 5.11122 15.1943 5.00011C15.0842 4.889 14.9741 4.889 14.9741 4.889Z" fill="#252C5E"/>
<path d="M6.60622 5.22222C6.60622 5 6.82642 4.77777 7.04663 4.66666C7.15673 4.66666 7.26684 4.55555 7.37694 4.55555H12.4417C12.9922 4.55555 13.6528 4.55555 14.0933 4.66666C14.2034 4.66666 14.4236 4.66667 14.5337 4.77778C14.6438 4.77778 14.7539 4.88889 14.9741 4.88889C15.0842 4.88889 15.0842 4.88889 15.1943 5C15.4145 5.11111 15.6347 5.22222 15.8549 5.33333C16.0751 3.66667 15.8549 2.55555 14.9741 1.55555C13.9832 0.444442 12.2215 0 10.0194 0H3.52331C3.0829 0 2.64248 0.33333 2.64248 0.777774L0 17.8889C0 18.2222 0.220207 18.5556 0.550518 18.5556H4.51424L5.50518 12.1111L6.60622 5.22222Z" fill="#263577"/>
</svg>
