<svg width="22" height="20" viewBox="0 0 22 20" fill="none" xmlns="http://www.w3.org/2000/svg">
<path d="M21 18H20V6H21C21.2652 6 21.5196 5.89464 21.7071 5.70711C21.8946 5.51957 22 5.26522 22 5C22 4.73478 21.8946 4.48043 21.7071 4.29289C21.5196 4.10536 21.2652 4 21 4H20V1C20 0.734784 19.8946 0.48043 19.7071 0.292893C19.5196 0.105357 19.2652 0 19 0H3C2.73478 0 2.48043 0.105357 2.29289 0.292893C2.10536 0.48043 2 0.734784 2 1V4H1C0.734784 4 0.48043 4.10536 0.292893 4.29289C0.105357 4.48043 0 4.73478 0 5C0 5.26522 0.105357 5.51957 0.292893 5.70711C0.48043 5.89464 0.734784 6 1 6H2V18H1C0.734784 18 0.48043 18.1054 0.292893 18.2929C0.105357 18.4804 0 18.7348 0 19C0 19.2652 0.105357 19.5196 0.292893 19.7071C0.48043 19.8946 0.734784 20 1 20H21C21.2652 20 21.5196 19.8946 21.7071 19.7071C21.8946 19.5196 22 19.2652 22 19C22 18.7348 21.8946 18.4804 21.7071 18.2929C21.5196 18.1054 21.2652 18 21 18ZM14 18H8V14.47C7.99759 13.3982 8.27261 12.3441 8.79831 11.4101C9.32402 10.4761 10.0825 9.69401 11 9.14C11.9175 9.69401 12.676 10.4761 13.2017 11.4101C13.7274 12.3441 14.0024 13.3982 14 14.47V18ZM18 18H16V14.47C16.0067 12.9403 15.5838 11.4394 14.7794 10.1382C13.975 8.837 12.8214 7.7878 11.45 7.11C11.3104 7.03967 11.1563 7.00303 11 7.00303C10.8437 7.00303 10.6896 7.03967 10.55 7.11C9.1786 7.7878 8.02504 8.837 7.22064 10.1382C6.41624 11.4394 5.99331 12.9403 6 14.47V18H4V6H18V18ZM18 4H4V2H18V4Z" fill="#6C7072"/>
</svg>
