<svg width="72" height="72" viewBox="0 0 72 72" fill="none" xmlns="http://www.w3.org/2000/svg">
<path d="M36.9 36.66C38.5007 35.2744 39.7847 33.5607 40.6646 31.6351C41.5446 29.7095 42 27.6171 42 25.5C42 21.5218 40.4197 17.7064 37.6066 14.8934C34.7936 12.0804 30.9783 10.5 27 10.5C23.0218 10.5 19.2064 12.0804 16.3934 14.8934C13.5804 17.7064 12 21.5218 12 25.5C12 27.6171 12.4554 29.7095 13.3354 31.6351C14.2153 33.5607 15.4993 35.2744 17.1 36.66C12.9004 38.5617 9.3374 41.6326 6.83694 45.5056C4.33649 49.3787 3.00442 53.8899 3 58.5C3 59.2957 3.31607 60.0587 3.87868 60.6213C4.44129 61.1839 5.20435 61.5 6 61.5C6.79565 61.5 7.55871 61.1839 8.12132 60.6213C8.68393 60.0587 9 59.2957 9 58.5C9 53.7261 10.8964 49.1477 14.2721 45.7721C17.6477 42.3964 22.2261 40.5 27 40.5C31.7739 40.5 36.3523 42.3964 39.7279 45.7721C43.1036 49.1477 45 53.7261 45 58.5C45 59.2957 45.3161 60.0587 45.8787 60.6213C46.4413 61.1839 47.2044 61.5 48 61.5C48.7957 61.5 49.5587 61.1839 50.1213 60.6213C50.6839 60.0587 51 59.2957 51 58.5C50.9956 53.8899 49.6635 49.3787 47.1631 45.5056C44.6626 41.6326 41.0996 38.5617 36.9 36.66ZM27 34.5C25.22 34.5 23.4799 33.9722 21.9999 32.9832C20.5198 31.9943 19.3663 30.5887 18.6851 28.9442C18.0039 27.2996 17.8257 25.49 18.1729 23.7442C18.5202 21.9984 19.3774 20.3947 20.636 19.136C21.8947 17.8774 23.4984 17.0202 25.2442 16.6729C26.99 16.3257 28.7996 16.5039 30.4442 17.1851C32.0887 17.8663 33.4943 19.0198 34.4832 20.4999C35.4722 21.9799 36 23.72 36 25.5C36 27.8869 35.0518 30.1761 33.364 31.864C31.6761 33.5518 29.387 34.5 27 34.5ZM56.22 35.46C58.1399 33.298 59.394 30.6272 59.8314 27.769C60.2688 24.9109 59.8708 21.9872 58.6853 19.35C57.4998 16.7128 55.5774 14.4744 53.1494 12.9043C50.7214 11.3342 47.8914 10.4992 45 10.5C44.2044 10.5 43.4413 10.8161 42.8787 11.3787C42.3161 11.9413 42 12.7044 42 13.5C42 14.2957 42.3161 15.0587 42.8787 15.6213C43.4413 16.1839 44.2044 16.5 45 16.5C47.387 16.5 49.6761 17.4482 51.364 19.136C53.0518 20.8239 54 23.1131 54 25.5C53.9958 27.0757 53.5779 28.6227 52.7882 29.9863C51.9985 31.3498 50.8646 32.4821 49.5 33.27C49.0552 33.5266 48.6837 33.893 48.4211 34.3342C48.1585 34.7754 48.0135 35.2767 48 35.79C47.9875 36.2993 48.1048 36.8034 48.341 37.2548C48.5772 37.7062 48.9244 38.09 49.35 38.37L50.52 39.15L50.91 39.36C54.5262 41.0752 57.5769 43.788 59.7029 47.1789C61.8289 50.5699 62.9416 54.4978 62.91 58.5C62.91 59.2957 63.2261 60.0587 63.7887 60.6213C64.3513 61.1839 65.1144 61.5 65.91 61.5C66.7057 61.5 67.4687 61.1839 68.0313 60.6213C68.5939 60.0587 68.91 59.2957 68.91 58.5C68.9345 53.8963 67.7815 49.3628 65.5604 45.3302C63.3393 41.2976 60.124 37.8999 56.22 35.46Z" fill="black" stroke="black"/>
</svg>
