<svg width="32" height="32" viewBox="0 0 32 32" fill="none" xmlns="http://www.w3.org/2000/svg">
<path d="M30.6549 5.26678C30.6551 5.03127 30.5928 4.79992 30.4744 4.59631C30.3561 4.39269 30.1859 4.22407 29.9812 4.10762C29.7765 3.99117 29.5446 3.93106 29.3091 3.9334C29.0736 3.93574 28.8429 4.00045 28.6406 4.12094C27.8602 4.58545 27.0199 4.94118 26.1432 5.17827C24.8912 4.10391 23.2944 3.51601 21.6446 3.52202C19.8347 3.5241 18.0964 4.22948 16.7969 5.48919C15.4973 6.74891 14.7382 8.46437 14.6797 10.2733C11.1117 9.70434 7.87791 7.84203 5.595 5.04151C5.45745 4.87463 5.28178 4.74326 5.08281 4.65851C4.88385 4.57375 4.66741 4.53808 4.45177 4.55451C4.23625 4.57226 4.0283 4.64224 3.84589 4.75839C3.66349 4.87455 3.51213 5.03339 3.40489 5.22118C2.85493 6.18093 2.53907 7.25686 2.48296 8.36159C2.42685 9.46632 2.63208 10.5687 3.08197 11.5792L3.07937 11.5818C2.87717 11.7064 2.71029 11.8807 2.59471 12.0882C2.47913 12.2956 2.4187 12.5293 2.41921 12.7668C2.41676 12.9627 2.42851 13.1585 2.45437 13.3527C2.59055 15.0304 3.33408 16.6008 4.54552 17.7694C4.46334 17.9259 4.41318 18.0973 4.39797 18.2735C4.38277 18.4496 4.40283 18.6271 4.45697 18.7954C4.98512 20.4409 6.1083 21.8301 7.60672 22.6912C6.08437 23.2799 4.44061 23.4852 2.82025 23.2889C2.52035 23.2513 2.21656 23.3167 1.95872 23.4744C1.70087 23.6321 1.50429 23.8728 1.40121 24.1569C1.29812 24.441 1.29467 24.7518 1.3914 25.0381C1.48813 25.3245 1.67932 25.5695 1.93359 25.7329C4.72038 27.5278 7.96515 28.4821 11.2799 28.4816C15.039 28.5239 18.7066 27.3227 21.7123 25.0649C24.718 22.8071 26.8932 19.6192 27.8997 15.9972C28.3704 14.4194 28.6108 12.7818 28.6133 11.1353C28.6133 11.048 28.6133 10.9582 28.6119 10.8683C29.3081 10.1176 29.8474 9.23541 30.1982 8.27353C30.549 7.31166 30.7043 6.28944 30.6549 5.26678ZM26.246 9.54932C26.0258 9.80978 25.9144 10.1451 25.9348 10.4855C25.9479 10.7055 25.9466 10.9269 25.9466 11.1353C25.9438 12.5266 25.7399 13.9103 25.3411 15.2433C24.5191 18.3252 22.6866 21.0421 20.1372 22.9588C17.5878 24.8755 14.4689 25.8813 11.2799 25.815C10.1344 25.8153 8.9929 25.6807 7.87891 25.4139C9.29945 24.9561 10.6277 24.2503 11.8021 23.3293C12.0184 23.159 12.1767 22.9259 12.2553 22.662C12.3338 22.3982 12.3289 22.1165 12.241 21.8556C12.1531 21.5947 11.9866 21.3674 11.7645 21.2048C11.5423 21.0423 11.2752 20.9525 10.9999 20.9478C9.89172 20.9305 8.83345 20.4838 8.04812 19.7017C8.24735 19.6639 8.44527 19.617 8.64188 19.561C8.92989 19.4791 9.18194 19.3025 9.35743 19.0599C9.53292 18.8173 9.62164 18.5226 9.60931 18.2234C9.59698 17.9242 9.48432 17.6379 9.28946 17.4105C9.0946 17.1831 8.82889 17.0279 8.53511 16.9699C7.89182 16.8429 7.2865 16.5692 6.76619 16.1701C6.24588 15.7711 5.82461 15.2575 5.53511 14.6691C5.77608 14.702 6.01859 14.7224 6.26167 14.7303C6.55044 14.7347 6.83312 14.6471 7.06883 14.4802C7.30454 14.3133 7.48106 14.0758 7.57287 13.8019C7.66084 13.5256 7.65631 13.2281 7.55997 12.9546C7.46363 12.6811 7.28073 12.4465 7.03901 12.2863C6.45254 11.8956 5.97214 11.3655 5.64082 10.7436C5.3095 10.1216 5.13762 9.4272 5.14057 8.72251C5.14057 8.63398 5.14317 8.54543 5.14839 8.45819C8.13673 11.2452 12.0128 12.8881 16.0937 13.0975C16.2997 13.1056 16.5049 13.0668 16.6937 12.984C16.8825 12.9013 17.05 12.7767 17.1836 12.6196C17.3158 12.4611 17.4094 12.2741 17.4571 12.0732C17.5048 11.8723 17.5052 11.6631 17.4582 11.4621C17.382 11.1439 17.3431 10.8179 17.3424 10.4907C17.3436 9.35012 17.7972 8.25656 18.6038 7.45003C19.4103 6.64349 20.5039 6.18985 21.6445 6.18865C22.2313 6.18707 22.8121 6.30718 23.3502 6.54137C23.8883 6.77557 24.372 7.11878 24.7708 7.54932C24.9246 7.71477 25.1181 7.83812 25.333 7.90764C25.5479 7.97716 25.7771 7.99054 25.9986 7.94651C26.5463 7.83992 27.0862 7.69637 27.6145 7.51683C27.2541 8.25413 26.7936 8.93809 26.246 9.54932Z" fill="white"/>
</svg>
