<svg width="32" height="32" viewBox="0 0 32 32" fill="none" xmlns="http://www.w3.org/2000/svg">
<path d="M20.7067 18.84C20.5827 18.715 20.4353 18.6158 20.2728 18.5481C20.1103 18.4804 19.936 18.4456 19.76 18.4456C19.584 18.4456 19.4097 18.4804 19.2472 18.5481C19.0848 18.6158 18.9373 18.715 18.8134 18.84C18.565 19.0898 18.4256 19.4277 18.4256 19.78C18.4256 20.1322 18.565 20.4702 18.8134 20.72L27.0534 28.96C27.1773 29.0849 27.3248 29.1841 27.4872 29.2518C27.6497 29.3195 27.824 29.3544 28 29.3544C28.176 29.3544 28.3503 29.3195 28.5128 29.2518C28.6753 29.1841 28.8227 29.0849 28.9467 28.96C29.195 28.7102 29.3344 28.3722 29.3344 28.02C29.3344 27.6677 29.195 27.3298 28.9467 27.08L20.7067 18.84ZM22.3467 15.52C23.4072 15.519 24.4239 15.097 25.1734 14.3466L28.9467 10.5733C29.195 10.3235 29.3344 9.98555 29.3344 9.63331C29.3344 9.28106 29.195 8.94312 28.9467 8.69331C28.8227 8.56833 28.6753 8.46914 28.5128 8.40145C28.3503 8.33376 28.176 8.29891 28 8.29891C27.824 8.29891 27.6497 8.33376 27.4872 8.40145C27.3248 8.46914 27.1773 8.56833 27.0534 8.69331L23.28 12.4666C23.0302 12.715 22.6923 12.8544 22.34 12.8544C21.9878 12.8544 21.6498 12.715 21.4 12.4666L26.12 7.74664C26.3684 7.49682 26.5077 7.15889 26.5077 6.80664C26.5077 6.45439 26.3684 6.11646 26.12 5.86664C25.9961 5.74167 25.8486 5.64247 25.6861 5.57478C25.5236 5.50709 25.3494 5.47224 25.1734 5.47224C24.9973 5.47224 24.8231 5.50709 24.6606 5.57478C24.4981 5.64247 24.3506 5.74167 24.2267 5.86664L19.52 10.5733C19.2717 10.3235 19.1323 9.98555 19.1323 9.63331C19.1323 9.28106 19.2717 8.94312 19.52 8.69331L23.28 4.91997C23.4196 4.80044 23.533 4.65335 23.613 4.48793C23.693 4.32251 23.738 4.14233 23.7451 3.95871C23.7522 3.77508 23.7212 3.59197 23.6542 3.42087C23.5872 3.24977 23.4855 3.09438 23.3556 2.96444C23.2256 2.8345 23.0702 2.73282 22.8991 2.66579C22.728 2.59876 22.5449 2.56781 22.3613 2.57491C22.1777 2.582 21.9975 2.62697 21.8321 2.707C21.6666 2.78704 21.5195 2.9004 21.4 3.03997L17.6267 6.81331C16.8776 7.56331 16.4569 8.57997 16.4569 9.63997C16.4569 10.7 16.8776 11.7166 17.6267 12.4666L16 14.12L13.92 12.0666C14.5103 11.0012 14.7336 9.77116 14.5553 8.56628C14.3769 7.36139 13.807 6.2487 12.9333 5.39997C11.0133 3.47997 6.04002 1.33331 3.69335 3.71997C1.34668 6.10664 3.46668 11.0266 5.33335 12.96C6.37579 14.0061 7.77733 14.6163 9.25335 14.6666H9.44002C10.3415 14.6538 11.224 14.4056 12 13.9466L14.0933 16L3.05335 27.04C2.92991 27.1643 2.83216 27.3117 2.76569 27.4738C2.69922 27.6359 2.66532 27.8095 2.66594 27.9847C2.66656 28.1599 2.70168 28.3332 2.7693 28.4949C2.83691 28.6565 2.9357 28.8032 3.06002 28.9266C3.18433 29.0501 3.33175 29.1478 3.49384 29.2143C3.65594 29.2808 3.82954 29.3147 4.00473 29.314C4.17992 29.3134 4.35328 29.2783 4.5149 29.2107C4.67652 29.1431 4.82324 29.0443 4.94668 28.92L16.9467 16.92L19.5067 14.36C19.8804 14.7307 20.3237 15.024 20.8111 15.2231C21.2984 15.4221 21.8203 15.523 22.3467 15.52ZM11.24 11.2533C10.9902 11.5016 10.6921 11.696 10.3641 11.8245C10.0362 11.9529 9.68534 12.0126 9.33335 12C8.55389 11.9664 7.81783 11.6318 7.28002 11.0666C5.84002 9.62664 4.82668 6.35997 5.58668 5.59997C5.83912 5.40955 6.15101 5.31504 6.46668 5.33331C8.16841 5.46894 9.77913 6.15724 11.0534 7.2933C11.5977 7.79693 11.9224 8.49432 11.9573 9.2351C11.9922 9.97587 11.7346 10.7007 11.24 11.2533Z" fill="black"/>
</svg>
