<svg width="68" height="21" viewBox="0 0 68 21" fill="none" xmlns="http://www.w3.org/2000/svg">
<path d="M63.4269 0.299805H59.1521C57.8597 0.299805 56.8655 0.699805 56.269 1.9998L48.117 20.6998H53.8831C53.8831 20.6998 54.8772 18.1998 55.0761 17.5998C55.6726 17.5998 61.3392 17.5998 62.1345 17.5998C62.3334 18.2998 62.8305 20.5998 62.8305 20.5998H68L63.4269 0.299805ZM56.6667 13.3998C57.1638 12.1998 58.8538 7.6998 58.8538 7.6998C58.8538 7.7998 59.3509 6.4998 59.5498 5.7998L59.9474 7.5998C59.9474 7.5998 61.041 12.4998 61.2398 13.4998H56.6667V13.3998Z" fill="#3362AB"/>
<path d="M48.5147 14C48.5147 18.2 44.7369 21 38.8714 21C36.386 21 34 20.5 32.7076 19.9L33.503 15.3L34.1989 15.6C35.9883 16.4 37.1813 16.7 39.3685 16.7C40.9591 16.7 42.6492 16.1 42.6492 14.7C42.6492 13.8 41.9533 13.2 39.7661 12.2C37.6784 11.2 34.8948 9.6 34.8948 6.7C34.8948 2.7 38.772 0 44.2398 0C46.3275 0 48.117 0.4 49.2106 0.9L48.4152 5.3L48.0176 4.9C47.0234 4.5 45.731 4.1 43.8421 4.1C41.7544 4.2 40.7603 5.1 40.7603 5.9C40.7603 6.8 41.9533 7.5 43.8421 8.4C47.0234 9.9 48.5147 11.6 48.5147 14Z" fill="#3362AB"/>
<path d="M0 0.500098L0.0994152 0.100098H8.64912C9.8421 0.100098 10.7368 0.500098 11.0351 1.8001L12.924 10.8001C11.0351 6.0001 6.66082 2.1001 0 0.500098Z" fill="#F9B50B"/>
<path d="M24.9532 0.300195L16.3041 20.6002H10.4386L5.46783 3.6002C9.04678 5.9002 12.0292 9.5002 13.1228 12.0002L13.7193 14.1002L19.0877 0.200195H24.9532V0.300195Z" fill="#3362AB"/>
<path d="M27.2398 0.200195H32.7076L29.2281 20.6002H23.7603L27.2398 0.200195Z" fill="#3362AB"/>
</svg>
