<svg width="64" height="64" viewBox="0 0 64 64" fill="none" xmlns="http://www.w3.org/2000/svg">
<path d="M50.6667 18.6667H48V16C48 13.8783 47.1572 11.8434 45.6569 10.3431C44.1566 8.84285 42.1218 8 40 8H13.3334C11.2116 8 9.17681 8.84285 7.67652 10.3431C6.17623 11.8434 5.33337 13.8783 5.33337 16V48C5.33337 50.1217 6.17623 52.1566 7.67652 53.6569C9.17681 55.1571 11.2116 56 13.3334 56H50.6667C52.7884 56 54.8233 55.1571 56.3236 53.6569C57.8239 52.1566 58.6667 50.1217 58.6667 48V26.6667C58.6667 24.5449 57.8239 22.5101 56.3236 21.0098C54.8233 19.5095 52.7884 18.6667 50.6667 18.6667ZM13.3334 13.3333H40C40.7073 13.3333 41.3856 13.6143 41.8857 14.1144C42.3858 14.6145 42.6667 15.2928 42.6667 16V18.6667H13.3334C12.6261 18.6667 11.9479 18.3857 11.4478 17.8856C10.9477 17.3855 10.6667 16.7072 10.6667 16C10.6667 15.2928 10.9477 14.6145 11.4478 14.1144C11.9479 13.6143 12.6261 13.3333 13.3334 13.3333ZM53.3334 40H50.6667C49.9595 40 49.2812 39.719 48.7811 39.219C48.281 38.7189 48 38.0406 48 37.3333C48 36.6261 48.281 35.9478 48.7811 35.4477C49.2812 34.9476 49.9595 34.6667 50.6667 34.6667H53.3334V40ZM53.3334 29.3333H50.6667C48.545 29.3333 46.5101 30.1762 45.0099 31.6765C43.5096 33.1768 42.6667 35.2116 42.6667 37.3333C42.6667 39.4551 43.5096 41.4899 45.0099 42.9902C46.5101 44.4905 48.545 45.3333 50.6667 45.3333H53.3334V48C53.3334 48.7072 53.0524 49.3855 52.5523 49.8856C52.0522 50.3857 51.374 50.6667 50.6667 50.6667H13.3334C12.6261 50.6667 11.9479 50.3857 11.4478 49.8856C10.9477 49.3855 10.6667 48.7072 10.6667 48V23.5467C11.5234 23.848 12.4252 24.0013 13.3334 24H50.6667C51.374 24 52.0522 24.281 52.5523 24.781C53.0524 25.2811 53.3334 25.9594 53.3334 26.6667V29.3333Z" fill="#BCFD49"/>
</svg>
